G04 #@! TF.GenerationSoftware,KiCad,Pcbnew,(5.1.5)-3*
G04 #@! TF.CreationDate,2020-09-03T09:53:24+02:00*
G04 #@! TF.ProjectId,chargemod-hw,63686172-6765-46d6-9f64-2d68772e6b69,rev?*
G04 #@! TF.SameCoordinates,Original*
G04 #@! TF.FileFunction,Legend,Bot*
G04 #@! TF.FilePolarity,Positive*
%FSLAX46Y46*%
G04 Gerber Fmt 4.6, Leading zero omitted, Abs format (unit mm)*
G04 Created by KiCad (PCBNEW (5.1.5)-3) date 2020-09-03 09:53:24*
%MOMM*%
%LPD*%
G04 APERTURE LIST*
%ADD10C,0.300000*%
%ADD11O,4.100000X2.600000*%
%ADD12C,1.711200*%
%ADD13C,3.600000*%
%ADD14O,2.080000X4.060000*%
%ADD15R,2.080000X4.060000*%
G04 APERTURE END LIST*
D10*
X105675952Y-97533333D02*
X106628333Y-97533333D01*
X105485476Y-98104761D02*
X106152142Y-96104761D01*
X106818809Y-98104761D01*
X107199761Y-96771428D02*
X107961666Y-96771428D01*
X107485476Y-96104761D02*
X107485476Y-97819047D01*
X107580714Y-98009523D01*
X107771190Y-98104761D01*
X107961666Y-98104761D01*
X108342619Y-96771428D02*
X109104523Y-96771428D01*
X108628333Y-96104761D02*
X108628333Y-97819047D01*
X108723571Y-98009523D01*
X108914047Y-98104761D01*
X109104523Y-98104761D01*
X110533095Y-98009523D02*
X110342619Y-98104761D01*
X109961666Y-98104761D01*
X109771190Y-98009523D01*
X109675952Y-97819047D01*
X109675952Y-97057142D01*
X109771190Y-96866666D01*
X109961666Y-96771428D01*
X110342619Y-96771428D01*
X110533095Y-96866666D01*
X110628333Y-97057142D01*
X110628333Y-97247619D01*
X109675952Y-97438095D01*
X111485476Y-96771428D02*
X111485476Y-98104761D01*
X111485476Y-96961904D02*
X111580714Y-96866666D01*
X111771190Y-96771428D01*
X112056904Y-96771428D01*
X112247380Y-96866666D01*
X112342619Y-97057142D01*
X112342619Y-98104761D01*
X113009285Y-96771428D02*
X113771190Y-96771428D01*
X113295000Y-96104761D02*
X113295000Y-97819047D01*
X113390238Y-98009523D01*
X113580714Y-98104761D01*
X113771190Y-98104761D01*
X114437857Y-98104761D02*
X114437857Y-96771428D01*
X114437857Y-96104761D02*
X114342619Y-96200000D01*
X114437857Y-96295238D01*
X114533095Y-96200000D01*
X114437857Y-96104761D01*
X114437857Y-96295238D01*
X115675952Y-98104761D02*
X115485476Y-98009523D01*
X115390238Y-97914285D01*
X115295000Y-97723809D01*
X115295000Y-97152380D01*
X115390238Y-96961904D01*
X115485476Y-96866666D01*
X115675952Y-96771428D01*
X115961666Y-96771428D01*
X116152142Y-96866666D01*
X116247380Y-96961904D01*
X116342619Y-97152380D01*
X116342619Y-97723809D01*
X116247380Y-97914285D01*
X116152142Y-98009523D01*
X115961666Y-98104761D01*
X115675952Y-98104761D01*
X117199761Y-96771428D02*
X117199761Y-98104761D01*
X117199761Y-96961904D02*
X117295000Y-96866666D01*
X117485476Y-96771428D01*
X117771190Y-96771428D01*
X117961666Y-96866666D01*
X118056904Y-97057142D01*
X118056904Y-98104761D01*
X119009285Y-97914285D02*
X119104523Y-98009523D01*
X119009285Y-98104761D01*
X118914047Y-98009523D01*
X119009285Y-97914285D01*
X119009285Y-98104761D01*
X119009285Y-96866666D02*
X119104523Y-96961904D01*
X119009285Y-97057142D01*
X118914047Y-96961904D01*
X119009285Y-96866666D01*
X119009285Y-97057142D01*
X105771190Y-100642857D02*
X107295000Y-100642857D01*
X110056904Y-101404761D02*
X109866428Y-101309523D01*
X109771190Y-101214285D01*
X109675952Y-101023809D01*
X109675952Y-100452380D01*
X109771190Y-100261904D01*
X109866428Y-100166666D01*
X110056904Y-100071428D01*
X110342619Y-100071428D01*
X110533095Y-100166666D01*
X110628333Y-100261904D01*
X110723571Y-100452380D01*
X110723571Y-101023809D01*
X110628333Y-101214285D01*
X110533095Y-101309523D01*
X110342619Y-101404761D01*
X110056904Y-101404761D01*
X111580714Y-100071428D02*
X111580714Y-101404761D01*
X111580714Y-100261904D02*
X111675952Y-100166666D01*
X111866428Y-100071428D01*
X112152142Y-100071428D01*
X112342619Y-100166666D01*
X112437857Y-100357142D01*
X112437857Y-101404761D01*
X113675952Y-101404761D02*
X113485476Y-101309523D01*
X113390238Y-101119047D01*
X113390238Y-99404761D01*
X114247380Y-100071428D02*
X114723571Y-101404761D01*
X115199761Y-100071428D02*
X114723571Y-101404761D01*
X114533095Y-101880952D01*
X114437857Y-101976190D01*
X114247380Y-102071428D01*
X118342619Y-100071428D02*
X118342619Y-101404761D01*
X117485476Y-100071428D02*
X117485476Y-101119047D01*
X117580714Y-101309523D01*
X117771190Y-101404761D01*
X118056904Y-101404761D01*
X118247380Y-101309523D01*
X118342619Y-101214285D01*
X119199761Y-101309523D02*
X119390238Y-101404761D01*
X119771190Y-101404761D01*
X119961666Y-101309523D01*
X120056904Y-101119047D01*
X120056904Y-101023809D01*
X119961666Y-100833333D01*
X119771190Y-100738095D01*
X119485476Y-100738095D01*
X119295000Y-100642857D01*
X119199761Y-100452380D01*
X119199761Y-100357142D01*
X119295000Y-100166666D01*
X119485476Y-100071428D01*
X119771190Y-100071428D01*
X119961666Y-100166666D01*
X121675952Y-101309523D02*
X121485476Y-101404761D01*
X121104523Y-101404761D01*
X120914047Y-101309523D01*
X120818809Y-101119047D01*
X120818809Y-100357142D01*
X120914047Y-100166666D01*
X121104523Y-100071428D01*
X121485476Y-100071428D01*
X121675952Y-100166666D01*
X121771190Y-100357142D01*
X121771190Y-100547619D01*
X120818809Y-100738095D01*
X124152142Y-101404761D02*
X124152142Y-99404761D01*
X124152142Y-100166666D02*
X124342619Y-100071428D01*
X124723571Y-100071428D01*
X124914047Y-100166666D01*
X125009285Y-100261904D01*
X125104523Y-100452380D01*
X125104523Y-101023809D01*
X125009285Y-101214285D01*
X124914047Y-101309523D01*
X124723571Y-101404761D01*
X124342619Y-101404761D01*
X124152142Y-101309523D01*
X126818809Y-101404761D02*
X126818809Y-100357142D01*
X126723571Y-100166666D01*
X126533095Y-100071428D01*
X126152142Y-100071428D01*
X125961666Y-100166666D01*
X126818809Y-101309523D02*
X126628333Y-101404761D01*
X126152142Y-101404761D01*
X125961666Y-101309523D01*
X125866428Y-101119047D01*
X125866428Y-100928571D01*
X125961666Y-100738095D01*
X126152142Y-100642857D01*
X126628333Y-100642857D01*
X126818809Y-100547619D01*
X127485476Y-100071428D02*
X128247380Y-100071428D01*
X127771190Y-99404761D02*
X127771190Y-101119047D01*
X127866428Y-101309523D01*
X128056904Y-101404761D01*
X128247380Y-101404761D01*
X128628333Y-100071428D02*
X129390238Y-100071428D01*
X128914047Y-99404761D02*
X128914047Y-101119047D01*
X129009285Y-101309523D01*
X129199761Y-101404761D01*
X129390238Y-101404761D01*
X130818809Y-101309523D02*
X130628333Y-101404761D01*
X130247380Y-101404761D01*
X130056904Y-101309523D01*
X129961666Y-101119047D01*
X129961666Y-100357142D01*
X130056904Y-100166666D01*
X130247380Y-100071428D01*
X130628333Y-100071428D01*
X130818809Y-100166666D01*
X130914047Y-100357142D01*
X130914047Y-100547619D01*
X129961666Y-100738095D01*
X131771190Y-101404761D02*
X131771190Y-100071428D01*
X131771190Y-100452380D02*
X131866428Y-100261904D01*
X131961666Y-100166666D01*
X132152142Y-100071428D01*
X132342619Y-100071428D01*
X133009285Y-101404761D02*
X133009285Y-100071428D01*
X133009285Y-99404761D02*
X132914047Y-99500000D01*
X133009285Y-99595238D01*
X133104523Y-99500000D01*
X133009285Y-99404761D01*
X133009285Y-99595238D01*
X134723571Y-101309523D02*
X134533095Y-101404761D01*
X134152142Y-101404761D01*
X133961666Y-101309523D01*
X133866428Y-101119047D01*
X133866428Y-100357142D01*
X133961666Y-100166666D01*
X134152142Y-100071428D01*
X134533095Y-100071428D01*
X134723571Y-100166666D01*
X134818809Y-100357142D01*
X134818809Y-100547619D01*
X133866428Y-100738095D01*
X135580714Y-101309523D02*
X135771190Y-101404761D01*
X136152142Y-101404761D01*
X136342619Y-101309523D01*
X136437857Y-101119047D01*
X136437857Y-101023809D01*
X136342619Y-100833333D01*
X136152142Y-100738095D01*
X135866428Y-100738095D01*
X135675952Y-100642857D01*
X135580714Y-100452380D01*
X135580714Y-100357142D01*
X135675952Y-100166666D01*
X135866428Y-100071428D01*
X136152142Y-100071428D01*
X136342619Y-100166666D01*
X138628333Y-100071428D02*
X139009285Y-101404761D01*
X139390238Y-100452380D01*
X139771190Y-101404761D01*
X140152142Y-100071428D01*
X140914047Y-101404761D02*
X140914047Y-100071428D01*
X140914047Y-99404761D02*
X140818809Y-99500000D01*
X140914047Y-99595238D01*
X141009285Y-99500000D01*
X140914047Y-99404761D01*
X140914047Y-99595238D01*
X141580714Y-100071428D02*
X142342619Y-100071428D01*
X141866428Y-99404761D02*
X141866428Y-101119047D01*
X141961666Y-101309523D01*
X142152142Y-101404761D01*
X142342619Y-101404761D01*
X143009285Y-101404761D02*
X143009285Y-99404761D01*
X143866428Y-101404761D02*
X143866428Y-100357142D01*
X143771190Y-100166666D01*
X143580714Y-100071428D01*
X143295000Y-100071428D01*
X143104523Y-100166666D01*
X143009285Y-100261904D01*
X105771190Y-104704761D02*
X105771190Y-103371428D01*
X105771190Y-102704761D02*
X105675952Y-102800000D01*
X105771190Y-102895238D01*
X105866428Y-102800000D01*
X105771190Y-102704761D01*
X105771190Y-102895238D01*
X106723571Y-103371428D02*
X106723571Y-104704761D01*
X106723571Y-103561904D02*
X106818809Y-103466666D01*
X107009285Y-103371428D01*
X107295000Y-103371428D01*
X107485476Y-103466666D01*
X107580714Y-103657142D01*
X107580714Y-104704761D01*
X109390238Y-104609523D02*
X109199761Y-104704761D01*
X108818809Y-104704761D01*
X108628333Y-104609523D01*
X108533095Y-104514285D01*
X108437857Y-104323809D01*
X108437857Y-103752380D01*
X108533095Y-103561904D01*
X108628333Y-103466666D01*
X108818809Y-103371428D01*
X109199761Y-103371428D01*
X109390238Y-103466666D01*
X110533095Y-104704761D02*
X110342619Y-104609523D01*
X110247380Y-104419047D01*
X110247380Y-102704761D01*
X112152142Y-103371428D02*
X112152142Y-104704761D01*
X111295000Y-103371428D02*
X111295000Y-104419047D01*
X111390238Y-104609523D01*
X111580714Y-104704761D01*
X111866428Y-104704761D01*
X112056904Y-104609523D01*
X112152142Y-104514285D01*
X113961666Y-104704761D02*
X113961666Y-102704761D01*
X113961666Y-104609523D02*
X113771190Y-104704761D01*
X113390238Y-104704761D01*
X113199761Y-104609523D01*
X113104523Y-104514285D01*
X113009285Y-104323809D01*
X113009285Y-103752380D01*
X113104523Y-103561904D01*
X113199761Y-103466666D01*
X113390238Y-103371428D01*
X113771190Y-103371428D01*
X113961666Y-103466666D01*
X115675952Y-104609523D02*
X115485476Y-104704761D01*
X115104523Y-104704761D01*
X114914047Y-104609523D01*
X114818809Y-104419047D01*
X114818809Y-103657142D01*
X114914047Y-103466666D01*
X115104523Y-103371428D01*
X115485476Y-103371428D01*
X115675952Y-103466666D01*
X115771190Y-103657142D01*
X115771190Y-103847619D01*
X114818809Y-104038095D01*
X117485476Y-104704761D02*
X117485476Y-102704761D01*
X117485476Y-104609523D02*
X117295000Y-104704761D01*
X116914047Y-104704761D01*
X116723571Y-104609523D01*
X116628333Y-104514285D01*
X116533095Y-104323809D01*
X116533095Y-103752380D01*
X116628333Y-103561904D01*
X116723571Y-103466666D01*
X116914047Y-103371428D01*
X117295000Y-103371428D01*
X117485476Y-103466666D01*
X119961666Y-103371428D02*
X119961666Y-105371428D01*
X119961666Y-103466666D02*
X120152142Y-103371428D01*
X120533095Y-103371428D01*
X120723571Y-103466666D01*
X120818809Y-103561904D01*
X120914047Y-103752380D01*
X120914047Y-104323809D01*
X120818809Y-104514285D01*
X120723571Y-104609523D01*
X120533095Y-104704761D01*
X120152142Y-104704761D01*
X119961666Y-104609523D01*
X121771190Y-104704761D02*
X121771190Y-103371428D01*
X121771190Y-103752380D02*
X121866428Y-103561904D01*
X121961666Y-103466666D01*
X122152142Y-103371428D01*
X122342619Y-103371428D01*
X123295000Y-104704761D02*
X123104523Y-104609523D01*
X123009285Y-104514285D01*
X122914047Y-104323809D01*
X122914047Y-103752380D01*
X123009285Y-103561904D01*
X123104523Y-103466666D01*
X123295000Y-103371428D01*
X123580714Y-103371428D01*
X123771190Y-103466666D01*
X123866428Y-103561904D01*
X123961666Y-103752380D01*
X123961666Y-104323809D01*
X123866428Y-104514285D01*
X123771190Y-104609523D01*
X123580714Y-104704761D01*
X123295000Y-104704761D01*
X124533095Y-103371428D02*
X125295000Y-103371428D01*
X124818809Y-102704761D02*
X124818809Y-104419047D01*
X124914047Y-104609523D01*
X125104523Y-104704761D01*
X125295000Y-104704761D01*
X126723571Y-104609523D02*
X126533095Y-104704761D01*
X126152142Y-104704761D01*
X125961666Y-104609523D01*
X125866428Y-104419047D01*
X125866428Y-103657142D01*
X125961666Y-103466666D01*
X126152142Y-103371428D01*
X126533095Y-103371428D01*
X126723571Y-103466666D01*
X126818809Y-103657142D01*
X126818809Y-103847619D01*
X125866428Y-104038095D01*
X128533095Y-104609523D02*
X128342619Y-104704761D01*
X127961666Y-104704761D01*
X127771190Y-104609523D01*
X127675952Y-104514285D01*
X127580714Y-104323809D01*
X127580714Y-103752380D01*
X127675952Y-103561904D01*
X127771190Y-103466666D01*
X127961666Y-103371428D01*
X128342619Y-103371428D01*
X128533095Y-103466666D01*
X129104523Y-103371428D02*
X129866428Y-103371428D01*
X129390238Y-102704761D02*
X129390238Y-104419047D01*
X129485476Y-104609523D01*
X129675952Y-104704761D01*
X129866428Y-104704761D01*
X130533095Y-104704761D02*
X130533095Y-103371428D01*
X130533095Y-102704761D02*
X130437857Y-102800000D01*
X130533095Y-102895238D01*
X130628333Y-102800000D01*
X130533095Y-102704761D01*
X130533095Y-102895238D01*
X131771190Y-104704761D02*
X131580714Y-104609523D01*
X131485476Y-104514285D01*
X131390238Y-104323809D01*
X131390238Y-103752380D01*
X131485476Y-103561904D01*
X131580714Y-103466666D01*
X131771190Y-103371428D01*
X132056904Y-103371428D01*
X132247380Y-103466666D01*
X132342619Y-103561904D01*
X132437857Y-103752380D01*
X132437857Y-104323809D01*
X132342619Y-104514285D01*
X132247380Y-104609523D01*
X132056904Y-104704761D01*
X131771190Y-104704761D01*
X133295000Y-103371428D02*
X133295000Y-104704761D01*
X133295000Y-103561904D02*
X133390238Y-103466666D01*
X133580714Y-103371428D01*
X133866428Y-103371428D01*
X134056904Y-103466666D01*
X134152142Y-103657142D01*
X134152142Y-104704761D01*
X137485476Y-104609523D02*
X137295000Y-104704761D01*
X136914047Y-104704761D01*
X136723571Y-104609523D01*
X136628333Y-104514285D01*
X136533095Y-104323809D01*
X136533095Y-103752380D01*
X136628333Y-103561904D01*
X136723571Y-103466666D01*
X136914047Y-103371428D01*
X137295000Y-103371428D01*
X137485476Y-103466666D01*
X138342619Y-104704761D02*
X138342619Y-103371428D01*
X138342619Y-102704761D02*
X138247380Y-102800000D01*
X138342619Y-102895238D01*
X138437857Y-102800000D01*
X138342619Y-102704761D01*
X138342619Y-102895238D01*
X139295000Y-104704761D02*
X139295000Y-103371428D01*
X139295000Y-103752380D02*
X139390238Y-103561904D01*
X139485476Y-103466666D01*
X139675952Y-103371428D01*
X139866428Y-103371428D01*
X141390238Y-104609523D02*
X141199761Y-104704761D01*
X140818809Y-104704761D01*
X140628333Y-104609523D01*
X140533095Y-104514285D01*
X140437857Y-104323809D01*
X140437857Y-103752380D01*
X140533095Y-103561904D01*
X140628333Y-103466666D01*
X140818809Y-103371428D01*
X141199761Y-103371428D01*
X141390238Y-103466666D01*
X143104523Y-103371428D02*
X143104523Y-104704761D01*
X142247380Y-103371428D02*
X142247380Y-104419047D01*
X142342619Y-104609523D01*
X142533095Y-104704761D01*
X142818809Y-104704761D01*
X143009285Y-104609523D01*
X143104523Y-104514285D01*
X144056904Y-104704761D02*
X144056904Y-103371428D01*
X144056904Y-102704761D02*
X143961666Y-102800000D01*
X144056904Y-102895238D01*
X144152142Y-102800000D01*
X144056904Y-102704761D01*
X144056904Y-102895238D01*
X144723571Y-103371428D02*
X145485476Y-103371428D01*
X145009285Y-102704761D02*
X145009285Y-104419047D01*
X145104523Y-104609523D01*
X145295000Y-104704761D01*
X145485476Y-104704761D01*
X105771190Y-107242857D02*
X107295000Y-107242857D01*
X110628333Y-107909523D02*
X110437857Y-108004761D01*
X110056904Y-108004761D01*
X109866428Y-107909523D01*
X109771190Y-107814285D01*
X109675952Y-107623809D01*
X109675952Y-107052380D01*
X109771190Y-106861904D01*
X109866428Y-106766666D01*
X110056904Y-106671428D01*
X110437857Y-106671428D01*
X110628333Y-106766666D01*
X111485476Y-108004761D02*
X111485476Y-106004761D01*
X112342619Y-108004761D02*
X112342619Y-106957142D01*
X112247380Y-106766666D01*
X112056904Y-106671428D01*
X111771190Y-106671428D01*
X111580714Y-106766666D01*
X111485476Y-106861904D01*
X114056904Y-107909523D02*
X113866428Y-108004761D01*
X113485476Y-108004761D01*
X113295000Y-107909523D01*
X113199761Y-107719047D01*
X113199761Y-106957142D01*
X113295000Y-106766666D01*
X113485476Y-106671428D01*
X113866428Y-106671428D01*
X114056904Y-106766666D01*
X114152142Y-106957142D01*
X114152142Y-107147619D01*
X113199761Y-107338095D01*
X115866428Y-107909523D02*
X115675952Y-108004761D01*
X115295000Y-108004761D01*
X115104523Y-107909523D01*
X115009285Y-107814285D01*
X114914047Y-107623809D01*
X114914047Y-107052380D01*
X115009285Y-106861904D01*
X115104523Y-106766666D01*
X115295000Y-106671428D01*
X115675952Y-106671428D01*
X115866428Y-106766666D01*
X116723571Y-108004761D02*
X116723571Y-106004761D01*
X116914047Y-107242857D02*
X117485476Y-108004761D01*
X117485476Y-106671428D02*
X116723571Y-107433333D01*
X119866428Y-106671428D02*
X119866428Y-108671428D01*
X119866428Y-106766666D02*
X120056904Y-106671428D01*
X120437857Y-106671428D01*
X120628333Y-106766666D01*
X120723571Y-106861904D01*
X120818809Y-107052380D01*
X120818809Y-107623809D01*
X120723571Y-107814285D01*
X120628333Y-107909523D01*
X120437857Y-108004761D01*
X120056904Y-108004761D01*
X119866428Y-107909523D01*
X121961666Y-108004761D02*
X121771190Y-107909523D01*
X121675952Y-107814285D01*
X121580714Y-107623809D01*
X121580714Y-107052380D01*
X121675952Y-106861904D01*
X121771190Y-106766666D01*
X121961666Y-106671428D01*
X122247380Y-106671428D01*
X122437857Y-106766666D01*
X122533095Y-106861904D01*
X122628333Y-107052380D01*
X122628333Y-107623809D01*
X122533095Y-107814285D01*
X122437857Y-107909523D01*
X122247380Y-108004761D01*
X121961666Y-108004761D01*
X123771190Y-108004761D02*
X123580714Y-107909523D01*
X123485476Y-107719047D01*
X123485476Y-106004761D01*
X125390238Y-108004761D02*
X125390238Y-106957142D01*
X125295000Y-106766666D01*
X125104523Y-106671428D01*
X124723571Y-106671428D01*
X124533095Y-106766666D01*
X125390238Y-107909523D02*
X125199761Y-108004761D01*
X124723571Y-108004761D01*
X124533095Y-107909523D01*
X124437857Y-107719047D01*
X124437857Y-107528571D01*
X124533095Y-107338095D01*
X124723571Y-107242857D01*
X125199761Y-107242857D01*
X125390238Y-107147619D01*
X126342619Y-108004761D02*
X126342619Y-106671428D01*
X126342619Y-107052380D02*
X126437857Y-106861904D01*
X126533095Y-106766666D01*
X126723571Y-106671428D01*
X126914047Y-106671428D01*
X127580714Y-108004761D02*
X127580714Y-106671428D01*
X127580714Y-106004761D02*
X127485476Y-106100000D01*
X127580714Y-106195238D01*
X127675952Y-106100000D01*
X127580714Y-106004761D01*
X127580714Y-106195238D01*
X128247380Y-106671428D02*
X129009285Y-106671428D01*
X128533095Y-106004761D02*
X128533095Y-107719047D01*
X128628333Y-107909523D01*
X128818809Y-108004761D01*
X129009285Y-108004761D01*
X129485476Y-106671428D02*
X129961666Y-108004761D01*
X130437857Y-106671428D02*
X129961666Y-108004761D01*
X129771190Y-108480952D01*
X129675952Y-108576190D01*
X129485476Y-108671428D01*
X132723571Y-108004761D02*
X132723571Y-106004761D01*
X132723571Y-106766666D02*
X132914047Y-106671428D01*
X133295000Y-106671428D01*
X133485476Y-106766666D01*
X133580714Y-106861904D01*
X133675952Y-107052380D01*
X133675952Y-107623809D01*
X133580714Y-107814285D01*
X133485476Y-107909523D01*
X133295000Y-108004761D01*
X132914047Y-108004761D01*
X132723571Y-107909523D01*
X135295000Y-107909523D02*
X135104523Y-108004761D01*
X134723571Y-108004761D01*
X134533095Y-107909523D01*
X134437857Y-107719047D01*
X134437857Y-106957142D01*
X134533095Y-106766666D01*
X134723571Y-106671428D01*
X135104523Y-106671428D01*
X135295000Y-106766666D01*
X135390238Y-106957142D01*
X135390238Y-107147619D01*
X134437857Y-107338095D01*
X135961666Y-106671428D02*
X136723571Y-106671428D01*
X136247380Y-108004761D02*
X136247380Y-106290476D01*
X136342619Y-106100000D01*
X136533095Y-106004761D01*
X136723571Y-106004761D01*
X137675952Y-108004761D02*
X137485476Y-107909523D01*
X137390238Y-107814285D01*
X137295000Y-107623809D01*
X137295000Y-107052380D01*
X137390238Y-106861904D01*
X137485476Y-106766666D01*
X137675952Y-106671428D01*
X137961666Y-106671428D01*
X138152142Y-106766666D01*
X138247380Y-106861904D01*
X138342619Y-107052380D01*
X138342619Y-107623809D01*
X138247380Y-107814285D01*
X138152142Y-107909523D01*
X137961666Y-108004761D01*
X137675952Y-108004761D01*
X139199761Y-108004761D02*
X139199761Y-106671428D01*
X139199761Y-107052380D02*
X139295000Y-106861904D01*
X139390238Y-106766666D01*
X139580714Y-106671428D01*
X139771190Y-106671428D01*
X141199761Y-107909523D02*
X141009285Y-108004761D01*
X140628333Y-108004761D01*
X140437857Y-107909523D01*
X140342619Y-107719047D01*
X140342619Y-106957142D01*
X140437857Y-106766666D01*
X140628333Y-106671428D01*
X141009285Y-106671428D01*
X141199761Y-106766666D01*
X141295000Y-106957142D01*
X141295000Y-107147619D01*
X140342619Y-107338095D01*
X143675952Y-108004761D02*
X143675952Y-106671428D01*
X143675952Y-106004761D02*
X143580714Y-106100000D01*
X143675952Y-106195238D01*
X143771190Y-106100000D01*
X143675952Y-106004761D01*
X143675952Y-106195238D01*
X144628333Y-106671428D02*
X144628333Y-108004761D01*
X144628333Y-106861904D02*
X144723571Y-106766666D01*
X144914047Y-106671428D01*
X145199761Y-106671428D01*
X145390238Y-106766666D01*
X145485476Y-106957142D01*
X145485476Y-108004761D01*
X146342619Y-107909523D02*
X146533095Y-108004761D01*
X146914047Y-108004761D01*
X147104523Y-107909523D01*
X147199761Y-107719047D01*
X147199761Y-107623809D01*
X147104523Y-107433333D01*
X146914047Y-107338095D01*
X146628333Y-107338095D01*
X146437857Y-107242857D01*
X146342619Y-107052380D01*
X146342619Y-106957142D01*
X146437857Y-106766666D01*
X146628333Y-106671428D01*
X146914047Y-106671428D01*
X147104523Y-106766666D01*
X148818809Y-107909523D02*
X148628333Y-108004761D01*
X148247380Y-108004761D01*
X148056904Y-107909523D01*
X147961666Y-107719047D01*
X147961666Y-106957142D01*
X148056904Y-106766666D01*
X148247380Y-106671428D01*
X148628333Y-106671428D01*
X148818809Y-106766666D01*
X148914047Y-106957142D01*
X148914047Y-107147619D01*
X147961666Y-107338095D01*
X149771190Y-108004761D02*
X149771190Y-106671428D01*
X149771190Y-107052380D02*
X149866428Y-106861904D01*
X149961666Y-106766666D01*
X150152142Y-106671428D01*
X150342619Y-106671428D01*
X150723571Y-106671428D02*
X151485476Y-106671428D01*
X151009285Y-106004761D02*
X151009285Y-107719047D01*
X151104523Y-107909523D01*
X151295000Y-108004761D01*
X151485476Y-108004761D01*
X152152142Y-108004761D02*
X152152142Y-106671428D01*
X152152142Y-106004761D02*
X152056904Y-106100000D01*
X152152142Y-106195238D01*
X152247380Y-106100000D01*
X152152142Y-106004761D01*
X152152142Y-106195238D01*
X153104523Y-106671428D02*
X153104523Y-108004761D01*
X153104523Y-106861904D02*
X153199761Y-106766666D01*
X153390238Y-106671428D01*
X153675952Y-106671428D01*
X153866428Y-106766666D01*
X153961666Y-106957142D01*
X153961666Y-108004761D01*
X155771190Y-106671428D02*
X155771190Y-108290476D01*
X155675952Y-108480952D01*
X155580714Y-108576190D01*
X155390238Y-108671428D01*
X155104523Y-108671428D01*
X154914047Y-108576190D01*
X155771190Y-107909523D02*
X155580714Y-108004761D01*
X155199761Y-108004761D01*
X155009285Y-107909523D01*
X154914047Y-107814285D01*
X154818809Y-107623809D01*
X154818809Y-107052380D01*
X154914047Y-106861904D01*
X155009285Y-106766666D01*
X155199761Y-106671428D01*
X155580714Y-106671428D01*
X155771190Y-106766666D01*
X105485476Y-109971428D02*
X106247380Y-109971428D01*
X105771190Y-109304761D02*
X105771190Y-111019047D01*
X105866428Y-111209523D01*
X106056904Y-111304761D01*
X106247380Y-111304761D01*
X106914047Y-111304761D02*
X106914047Y-109304761D01*
X107771190Y-111304761D02*
X107771190Y-110257142D01*
X107675952Y-110066666D01*
X107485476Y-109971428D01*
X107199761Y-109971428D01*
X107009285Y-110066666D01*
X106914047Y-110161904D01*
X109485476Y-111209523D02*
X109295000Y-111304761D01*
X108914047Y-111304761D01*
X108723571Y-111209523D01*
X108628333Y-111019047D01*
X108628333Y-110257142D01*
X108723571Y-110066666D01*
X108914047Y-109971428D01*
X109295000Y-109971428D01*
X109485476Y-110066666D01*
X109580714Y-110257142D01*
X109580714Y-110447619D01*
X108628333Y-110638095D01*
X111961666Y-111304761D02*
X111961666Y-109304761D01*
X111961666Y-110066666D02*
X112152142Y-109971428D01*
X112533095Y-109971428D01*
X112723571Y-110066666D01*
X112818809Y-110161904D01*
X112914047Y-110352380D01*
X112914047Y-110923809D01*
X112818809Y-111114285D01*
X112723571Y-111209523D01*
X112533095Y-111304761D01*
X112152142Y-111304761D01*
X111961666Y-111209523D01*
X114628333Y-111304761D02*
X114628333Y-110257142D01*
X114533095Y-110066666D01*
X114342619Y-109971428D01*
X113961666Y-109971428D01*
X113771190Y-110066666D01*
X114628333Y-111209523D02*
X114437857Y-111304761D01*
X113961666Y-111304761D01*
X113771190Y-111209523D01*
X113675952Y-111019047D01*
X113675952Y-110828571D01*
X113771190Y-110638095D01*
X113961666Y-110542857D01*
X114437857Y-110542857D01*
X114628333Y-110447619D01*
X115295000Y-109971428D02*
X116056904Y-109971428D01*
X115580714Y-109304761D02*
X115580714Y-111019047D01*
X115675952Y-111209523D01*
X115866428Y-111304761D01*
X116056904Y-111304761D01*
X116437857Y-109971428D02*
X117199761Y-109971428D01*
X116723571Y-109304761D02*
X116723571Y-111019047D01*
X116818809Y-111209523D01*
X117009285Y-111304761D01*
X117199761Y-111304761D01*
X118628333Y-111209523D02*
X118437857Y-111304761D01*
X118056904Y-111304761D01*
X117866428Y-111209523D01*
X117771190Y-111019047D01*
X117771190Y-110257142D01*
X117866428Y-110066666D01*
X118056904Y-109971428D01*
X118437857Y-109971428D01*
X118628333Y-110066666D01*
X118723571Y-110257142D01*
X118723571Y-110447619D01*
X117771190Y-110638095D01*
X119580714Y-111304761D02*
X119580714Y-109971428D01*
X119580714Y-110352380D02*
X119675952Y-110161904D01*
X119771190Y-110066666D01*
X119961666Y-109971428D01*
X120152142Y-109971428D01*
X120628333Y-109971428D02*
X121104523Y-111304761D01*
X121580714Y-109971428D02*
X121104523Y-111304761D01*
X120914047Y-111780952D01*
X120818809Y-111876190D01*
X120628333Y-111971428D01*
X105771190Y-113842857D02*
X107295000Y-113842857D01*
X110628333Y-114509523D02*
X110437857Y-114604761D01*
X110056904Y-114604761D01*
X109866428Y-114509523D01*
X109771190Y-114414285D01*
X109675952Y-114223809D01*
X109675952Y-113652380D01*
X109771190Y-113461904D01*
X109866428Y-113366666D01*
X110056904Y-113271428D01*
X110437857Y-113271428D01*
X110628333Y-113366666D01*
X111485476Y-114604761D02*
X111485476Y-112604761D01*
X112342619Y-114604761D02*
X112342619Y-113557142D01*
X112247380Y-113366666D01*
X112056904Y-113271428D01*
X111771190Y-113271428D01*
X111580714Y-113366666D01*
X111485476Y-113461904D01*
X114152142Y-114604761D02*
X114152142Y-113557142D01*
X114056904Y-113366666D01*
X113866428Y-113271428D01*
X113485476Y-113271428D01*
X113295000Y-113366666D01*
X114152142Y-114509523D02*
X113961666Y-114604761D01*
X113485476Y-114604761D01*
X113295000Y-114509523D01*
X113199761Y-114319047D01*
X113199761Y-114128571D01*
X113295000Y-113938095D01*
X113485476Y-113842857D01*
X113961666Y-113842857D01*
X114152142Y-113747619D01*
X115104523Y-114604761D02*
X115104523Y-113271428D01*
X115104523Y-113652380D02*
X115199761Y-113461904D01*
X115295000Y-113366666D01*
X115485476Y-113271428D01*
X115675952Y-113271428D01*
X117199761Y-113271428D02*
X117199761Y-114890476D01*
X117104523Y-115080952D01*
X117009285Y-115176190D01*
X116818809Y-115271428D01*
X116533095Y-115271428D01*
X116342619Y-115176190D01*
X117199761Y-114509523D02*
X117009285Y-114604761D01*
X116628333Y-114604761D01*
X116437857Y-114509523D01*
X116342619Y-114414285D01*
X116247380Y-114223809D01*
X116247380Y-113652380D01*
X116342619Y-113461904D01*
X116437857Y-113366666D01*
X116628333Y-113271428D01*
X117009285Y-113271428D01*
X117199761Y-113366666D01*
X118914047Y-114509523D02*
X118723571Y-114604761D01*
X118342619Y-114604761D01*
X118152142Y-114509523D01*
X118056904Y-114319047D01*
X118056904Y-113557142D01*
X118152142Y-113366666D01*
X118342619Y-113271428D01*
X118723571Y-113271428D01*
X118914047Y-113366666D01*
X119009285Y-113557142D01*
X119009285Y-113747619D01*
X118056904Y-113938095D01*
X121390238Y-114604761D02*
X121390238Y-112604761D01*
X121390238Y-113366666D02*
X121580714Y-113271428D01*
X121961666Y-113271428D01*
X122152142Y-113366666D01*
X122247380Y-113461904D01*
X122342619Y-113652380D01*
X122342619Y-114223809D01*
X122247380Y-114414285D01*
X122152142Y-114509523D01*
X121961666Y-114604761D01*
X121580714Y-114604761D01*
X121390238Y-114509523D01*
X123485476Y-114604761D02*
X123295000Y-114509523D01*
X123199761Y-114414285D01*
X123104523Y-114223809D01*
X123104523Y-113652380D01*
X123199761Y-113461904D01*
X123295000Y-113366666D01*
X123485476Y-113271428D01*
X123771190Y-113271428D01*
X123961666Y-113366666D01*
X124056904Y-113461904D01*
X124152142Y-113652380D01*
X124152142Y-114223809D01*
X124056904Y-114414285D01*
X123961666Y-114509523D01*
X123771190Y-114604761D01*
X123485476Y-114604761D01*
X124723571Y-113271428D02*
X125485476Y-113271428D01*
X125009285Y-112604761D02*
X125009285Y-114319047D01*
X125104523Y-114509523D01*
X125295000Y-114604761D01*
X125485476Y-114604761D01*
X126152142Y-114604761D02*
X126152142Y-112604761D01*
X127009285Y-114604761D02*
X127009285Y-113557142D01*
X126914047Y-113366666D01*
X126723571Y-113271428D01*
X126437857Y-113271428D01*
X126247380Y-113366666D01*
X126152142Y-113461904D01*
X129485476Y-114604761D02*
X129485476Y-112604761D01*
X129485476Y-113366666D02*
X129675952Y-113271428D01*
X130056904Y-113271428D01*
X130247380Y-113366666D01*
X130342619Y-113461904D01*
X130437857Y-113652380D01*
X130437857Y-114223809D01*
X130342619Y-114414285D01*
X130247380Y-114509523D01*
X130056904Y-114604761D01*
X129675952Y-114604761D01*
X129485476Y-114509523D01*
X132152142Y-114604761D02*
X132152142Y-113557142D01*
X132056904Y-113366666D01*
X131866428Y-113271428D01*
X131485476Y-113271428D01*
X131295000Y-113366666D01*
X132152142Y-114509523D02*
X131961666Y-114604761D01*
X131485476Y-114604761D01*
X131295000Y-114509523D01*
X131199761Y-114319047D01*
X131199761Y-114128571D01*
X131295000Y-113938095D01*
X131485476Y-113842857D01*
X131961666Y-113842857D01*
X132152142Y-113747619D01*
X132818809Y-113271428D02*
X133580714Y-113271428D01*
X133104523Y-112604761D02*
X133104523Y-114319047D01*
X133199761Y-114509523D01*
X133390238Y-114604761D01*
X133580714Y-114604761D01*
X133961666Y-113271428D02*
X134723571Y-113271428D01*
X134247380Y-112604761D02*
X134247380Y-114319047D01*
X134342619Y-114509523D01*
X134533095Y-114604761D01*
X134723571Y-114604761D01*
X136152142Y-114509523D02*
X135961666Y-114604761D01*
X135580714Y-114604761D01*
X135390238Y-114509523D01*
X135295000Y-114319047D01*
X135295000Y-113557142D01*
X135390238Y-113366666D01*
X135580714Y-113271428D01*
X135961666Y-113271428D01*
X136152142Y-113366666D01*
X136247380Y-113557142D01*
X136247380Y-113747619D01*
X135295000Y-113938095D01*
X137104523Y-114604761D02*
X137104523Y-113271428D01*
X137104523Y-113652380D02*
X137199761Y-113461904D01*
X137295000Y-113366666D01*
X137485476Y-113271428D01*
X137675952Y-113271428D01*
X138342619Y-114604761D02*
X138342619Y-113271428D01*
X138342619Y-112604761D02*
X138247380Y-112700000D01*
X138342619Y-112795238D01*
X138437857Y-112700000D01*
X138342619Y-112604761D01*
X138342619Y-112795238D01*
X140056904Y-114509523D02*
X139866428Y-114604761D01*
X139485476Y-114604761D01*
X139295000Y-114509523D01*
X139199761Y-114319047D01*
X139199761Y-113557142D01*
X139295000Y-113366666D01*
X139485476Y-113271428D01*
X139866428Y-113271428D01*
X140056904Y-113366666D01*
X140152142Y-113557142D01*
X140152142Y-113747619D01*
X139199761Y-113938095D01*
X140914047Y-114509523D02*
X141104523Y-114604761D01*
X141485476Y-114604761D01*
X141675952Y-114509523D01*
X141771190Y-114319047D01*
X141771190Y-114223809D01*
X141675952Y-114033333D01*
X141485476Y-113938095D01*
X141199761Y-113938095D01*
X141009285Y-113842857D01*
X140914047Y-113652380D01*
X140914047Y-113557142D01*
X141009285Y-113366666D01*
X141199761Y-113271428D01*
X141485476Y-113271428D01*
X141675952Y-113366666D01*
X143866428Y-113271428D02*
X144628333Y-113271428D01*
X144152142Y-112604761D02*
X144152142Y-114319047D01*
X144247380Y-114509523D01*
X144437857Y-114604761D01*
X144628333Y-114604761D01*
X145580714Y-114604761D02*
X145390238Y-114509523D01*
X145295000Y-114414285D01*
X145199761Y-114223809D01*
X145199761Y-113652380D01*
X145295000Y-113461904D01*
X145390238Y-113366666D01*
X145580714Y-113271428D01*
X145866428Y-113271428D01*
X146056904Y-113366666D01*
X146152142Y-113461904D01*
X146247380Y-113652380D01*
X146247380Y-114223809D01*
X146152142Y-114414285D01*
X146056904Y-114509523D01*
X145866428Y-114604761D01*
X145580714Y-114604761D01*
X148342619Y-113271428D02*
X149104523Y-113271428D01*
X148628333Y-112604761D02*
X148628333Y-114319047D01*
X148723571Y-114509523D01*
X148914047Y-114604761D01*
X149104523Y-114604761D01*
X149771190Y-114604761D02*
X149771190Y-112604761D01*
X150628333Y-114604761D02*
X150628333Y-113557142D01*
X150533095Y-113366666D01*
X150342619Y-113271428D01*
X150056904Y-113271428D01*
X149866428Y-113366666D01*
X149771190Y-113461904D01*
X152342619Y-114509523D02*
X152152142Y-114604761D01*
X151771190Y-114604761D01*
X151580714Y-114509523D01*
X151485476Y-114319047D01*
X151485476Y-113557142D01*
X151580714Y-113366666D01*
X151771190Y-113271428D01*
X152152142Y-113271428D01*
X152342619Y-113366666D01*
X152437857Y-113557142D01*
X152437857Y-113747619D01*
X151485476Y-113938095D01*
X154723571Y-114509523D02*
X154914047Y-114604761D01*
X155295000Y-114604761D01*
X155485476Y-114509523D01*
X155580714Y-114319047D01*
X155580714Y-114223809D01*
X155485476Y-114033333D01*
X155295000Y-113938095D01*
X155009285Y-113938095D01*
X154818809Y-113842857D01*
X154723571Y-113652380D01*
X154723571Y-113557142D01*
X154818809Y-113366666D01*
X155009285Y-113271428D01*
X155295000Y-113271428D01*
X155485476Y-113366666D01*
X157295000Y-114604761D02*
X157295000Y-113557142D01*
X157199761Y-113366666D01*
X157009285Y-113271428D01*
X156628333Y-113271428D01*
X156437857Y-113366666D01*
X157295000Y-114509523D02*
X157104523Y-114604761D01*
X156628333Y-114604761D01*
X156437857Y-114509523D01*
X156342619Y-114319047D01*
X156342619Y-114128571D01*
X156437857Y-113938095D01*
X156628333Y-113842857D01*
X157104523Y-113842857D01*
X157295000Y-113747619D01*
X158247380Y-114604761D02*
X158247380Y-113271428D01*
X158247380Y-113461904D02*
X158342619Y-113366666D01*
X158533095Y-113271428D01*
X158818809Y-113271428D01*
X159009285Y-113366666D01*
X159104523Y-113557142D01*
X159104523Y-114604761D01*
X159104523Y-113557142D02*
X159199761Y-113366666D01*
X159390238Y-113271428D01*
X159675952Y-113271428D01*
X159866428Y-113366666D01*
X159961666Y-113557142D01*
X159961666Y-114604761D01*
X161675952Y-114509523D02*
X161485476Y-114604761D01*
X161104523Y-114604761D01*
X160914047Y-114509523D01*
X160818809Y-114319047D01*
X160818809Y-113557142D01*
X160914047Y-113366666D01*
X161104523Y-113271428D01*
X161485476Y-113271428D01*
X161675952Y-113366666D01*
X161771190Y-113557142D01*
X161771190Y-113747619D01*
X160818809Y-113938095D01*
X106056904Y-117904761D02*
X105866428Y-117809523D01*
X105771190Y-117619047D01*
X105771190Y-115904761D01*
X107580714Y-117809523D02*
X107390238Y-117904761D01*
X107009285Y-117904761D01*
X106818809Y-117809523D01*
X106723571Y-117619047D01*
X106723571Y-116857142D01*
X106818809Y-116666666D01*
X107009285Y-116571428D01*
X107390238Y-116571428D01*
X107580714Y-116666666D01*
X107675952Y-116857142D01*
X107675952Y-117047619D01*
X106723571Y-117238095D01*
X108342619Y-116571428D02*
X108818809Y-117904761D01*
X109295000Y-116571428D01*
X110818809Y-117809523D02*
X110628333Y-117904761D01*
X110247380Y-117904761D01*
X110056904Y-117809523D01*
X109961666Y-117619047D01*
X109961666Y-116857142D01*
X110056904Y-116666666D01*
X110247380Y-116571428D01*
X110628333Y-116571428D01*
X110818809Y-116666666D01*
X110914047Y-116857142D01*
X110914047Y-117047619D01*
X109961666Y-117238095D01*
X112056904Y-117904761D02*
X111866428Y-117809523D01*
X111771190Y-117619047D01*
X111771190Y-115904761D01*
X114342619Y-117904761D02*
X114342619Y-115904761D01*
X114342619Y-116666666D02*
X114533095Y-116571428D01*
X114914047Y-116571428D01*
X115104523Y-116666666D01*
X115199761Y-116761904D01*
X115295000Y-116952380D01*
X115295000Y-117523809D01*
X115199761Y-117714285D01*
X115104523Y-117809523D01*
X114914047Y-117904761D01*
X114533095Y-117904761D01*
X114342619Y-117809523D01*
X116914047Y-117809523D02*
X116723571Y-117904761D01*
X116342619Y-117904761D01*
X116152142Y-117809523D01*
X116056904Y-117619047D01*
X116056904Y-116857142D01*
X116152142Y-116666666D01*
X116342619Y-116571428D01*
X116723571Y-116571428D01*
X116914047Y-116666666D01*
X117009285Y-116857142D01*
X117009285Y-117047619D01*
X116056904Y-117238095D01*
X117580714Y-116571428D02*
X118342619Y-116571428D01*
X117866428Y-117904761D02*
X117866428Y-116190476D01*
X117961666Y-116000000D01*
X118152142Y-115904761D01*
X118342619Y-115904761D01*
X119295000Y-117904761D02*
X119104523Y-117809523D01*
X119009285Y-117714285D01*
X118914047Y-117523809D01*
X118914047Y-116952380D01*
X119009285Y-116761904D01*
X119104523Y-116666666D01*
X119295000Y-116571428D01*
X119580714Y-116571428D01*
X119771190Y-116666666D01*
X119866428Y-116761904D01*
X119961666Y-116952380D01*
X119961666Y-117523809D01*
X119866428Y-117714285D01*
X119771190Y-117809523D01*
X119580714Y-117904761D01*
X119295000Y-117904761D01*
X120818809Y-117904761D02*
X120818809Y-116571428D01*
X120818809Y-116952380D02*
X120914047Y-116761904D01*
X121009285Y-116666666D01*
X121199761Y-116571428D01*
X121390238Y-116571428D01*
X122818809Y-117809523D02*
X122628333Y-117904761D01*
X122247380Y-117904761D01*
X122056904Y-117809523D01*
X121961666Y-117619047D01*
X121961666Y-116857142D01*
X122056904Y-116666666D01*
X122247380Y-116571428D01*
X122628333Y-116571428D01*
X122818809Y-116666666D01*
X122914047Y-116857142D01*
X122914047Y-117047619D01*
X121961666Y-117238095D01*
X125295000Y-117904761D02*
X125295000Y-116571428D01*
X125295000Y-115904761D02*
X125199761Y-116000000D01*
X125295000Y-116095238D01*
X125390238Y-116000000D01*
X125295000Y-115904761D01*
X125295000Y-116095238D01*
X126247380Y-116571428D02*
X126247380Y-117904761D01*
X126247380Y-116761904D02*
X126342619Y-116666666D01*
X126533095Y-116571428D01*
X126818809Y-116571428D01*
X127009285Y-116666666D01*
X127104523Y-116857142D01*
X127104523Y-117904761D01*
X127961666Y-117809523D02*
X128152142Y-117904761D01*
X128533095Y-117904761D01*
X128723571Y-117809523D01*
X128818809Y-117619047D01*
X128818809Y-117523809D01*
X128723571Y-117333333D01*
X128533095Y-117238095D01*
X128247380Y-117238095D01*
X128056904Y-117142857D01*
X127961666Y-116952380D01*
X127961666Y-116857142D01*
X128056904Y-116666666D01*
X128247380Y-116571428D01*
X128533095Y-116571428D01*
X128723571Y-116666666D01*
X130437857Y-117809523D02*
X130247380Y-117904761D01*
X129866428Y-117904761D01*
X129675952Y-117809523D01*
X129580714Y-117619047D01*
X129580714Y-116857142D01*
X129675952Y-116666666D01*
X129866428Y-116571428D01*
X130247380Y-116571428D01*
X130437857Y-116666666D01*
X130533095Y-116857142D01*
X130533095Y-117047619D01*
X129580714Y-117238095D01*
X131390238Y-117904761D02*
X131390238Y-116571428D01*
X131390238Y-116952380D02*
X131485476Y-116761904D01*
X131580714Y-116666666D01*
X131771190Y-116571428D01*
X131961666Y-116571428D01*
X132342619Y-116571428D02*
X133104523Y-116571428D01*
X132628333Y-115904761D02*
X132628333Y-117619047D01*
X132723571Y-117809523D01*
X132914047Y-117904761D01*
X133104523Y-117904761D01*
X133771190Y-117904761D02*
X133771190Y-116571428D01*
X133771190Y-115904761D02*
X133675952Y-116000000D01*
X133771190Y-116095238D01*
X133866428Y-116000000D01*
X133771190Y-115904761D01*
X133771190Y-116095238D01*
X134723571Y-116571428D02*
X134723571Y-117904761D01*
X134723571Y-116761904D02*
X134818809Y-116666666D01*
X135009285Y-116571428D01*
X135295000Y-116571428D01*
X135485476Y-116666666D01*
X135580714Y-116857142D01*
X135580714Y-117904761D01*
X137390238Y-116571428D02*
X137390238Y-118190476D01*
X137295000Y-118380952D01*
X137199761Y-118476190D01*
X137009285Y-118571428D01*
X136723571Y-118571428D01*
X136533095Y-118476190D01*
X137390238Y-117809523D02*
X137199761Y-117904761D01*
X136818809Y-117904761D01*
X136628333Y-117809523D01*
X136533095Y-117714285D01*
X136437857Y-117523809D01*
X136437857Y-116952380D01*
X136533095Y-116761904D01*
X136628333Y-116666666D01*
X136818809Y-116571428D01*
X137199761Y-116571428D01*
X137390238Y-116666666D01*
X139866428Y-117904761D02*
X139866428Y-116571428D01*
X139866428Y-115904761D02*
X139771190Y-116000000D01*
X139866428Y-116095238D01*
X139961666Y-116000000D01*
X139866428Y-115904761D01*
X139866428Y-116095238D01*
X140533095Y-116571428D02*
X141295000Y-116571428D01*
X140818809Y-115904761D02*
X140818809Y-117619047D01*
X140914047Y-117809523D01*
X141104523Y-117904761D01*
X141295000Y-117904761D01*
%LPC*%
D11*
X135775000Y-75480000D03*
X133235000Y-83100000D03*
X138315000Y-83100000D03*
X135775000Y-138720000D03*
X138315000Y-131100000D03*
X133235000Y-131100000D03*
X114525000Y-75480000D03*
X111985000Y-83100000D03*
X117065000Y-83100000D03*
X114525000Y-138720000D03*
X117065000Y-131100000D03*
X111985000Y-131100000D03*
D12*
X99105000Y-112035000D03*
X99105000Y-114575000D03*
X99105000Y-117115000D03*
X101645000Y-112035000D03*
X101645000Y-114575000D03*
X101645000Y-117115000D03*
D13*
X97000000Y-77325000D03*
X157000000Y-77325000D03*
X97000000Y-137325000D03*
X157000000Y-137325000D03*
D14*
X154375000Y-122575000D03*
D15*
X149375000Y-122575000D03*
M02*
