G04 #@! TF.GenerationSoftware,KiCad,Pcbnew,(5.1.5)-3*
G04 #@! TF.CreationDate,2020-09-03T09:53:24+02:00*
G04 #@! TF.ProjectId,chargemod-hw,63686172-6765-46d6-9f64-2d68772e6b69,rev?*
G04 #@! TF.SameCoordinates,Original*
G04 #@! TF.FileFunction,Copper,L2,Bot*
G04 #@! TF.FilePolarity,Positive*
%FSLAX46Y46*%
G04 Gerber Fmt 4.6, Leading zero omitted, Abs format (unit mm)*
G04 Created by KiCad (PCBNEW (5.1.5)-3) date 2020-09-03 09:53:24*
%MOMM*%
%LPD*%
G04 APERTURE LIST*
%ADD10O,4.000000X2.500000*%
%ADD11C,1.508000*%
%ADD12R,2.500000X1.800000*%
%ADD13C,0.500000*%
%ADD14O,1.980000X3.960000*%
%ADD15R,1.980000X3.960000*%
%ADD16C,0.800000*%
%ADD17C,1.200000*%
%ADD18C,0.400000*%
%ADD19C,0.250000*%
%ADD20C,0.800000*%
%ADD21C,0.254000*%
G04 APERTURE END LIST*
D10*
X135775000Y-75480000D03*
X133235000Y-83100000D03*
X138315000Y-83100000D03*
X135775000Y-138720000D03*
X138315000Y-131100000D03*
X133235000Y-131100000D03*
X114525000Y-75480000D03*
X111985000Y-83100000D03*
X117065000Y-83100000D03*
X114525000Y-138720000D03*
X117065000Y-131100000D03*
X111985000Y-131100000D03*
D11*
X99105000Y-112035000D03*
X99105000Y-114575000D03*
X99105000Y-117115000D03*
X101645000Y-112035000D03*
X101645000Y-114575000D03*
X101645000Y-117115000D03*
D12*
X153425000Y-86800000D03*
D13*
X154425000Y-86150000D03*
X154425000Y-87450000D03*
X153425000Y-86150000D03*
X153425000Y-87450000D03*
X152425000Y-86150000D03*
X152425000Y-87450000D03*
D14*
X154375000Y-122575000D03*
D15*
X149375000Y-122575000D03*
D16*
X93875000Y-104000000D03*
X93850000Y-114850000D03*
X164400000Y-92175000D03*
X165600000Y-92200000D03*
X164000000Y-89300000D03*
X162850000Y-89275000D03*
X159850000Y-86825000D03*
X159850000Y-85225000D03*
X157500000Y-88475000D03*
X158800000Y-88400000D03*
X153175000Y-93475000D03*
X153050000Y-92300000D03*
X152525000Y-98900000D03*
X153625000Y-100300000D03*
X153550000Y-104875000D03*
X153575000Y-105900000D03*
X157750000Y-111500000D03*
X157750000Y-112375000D03*
X157775000Y-113175000D03*
X157825000Y-113975000D03*
X158550000Y-115200000D03*
X157600000Y-115250000D03*
X156575000Y-115250000D03*
X156750000Y-114450000D03*
X159120000Y-119530000D03*
X159150000Y-118590000D03*
X149875000Y-88500000D03*
X149275000Y-85625000D03*
X149175000Y-87200000D03*
X149950000Y-89525000D03*
X148725000Y-88550000D03*
X148800000Y-89700000D03*
X148525000Y-84450000D03*
X94475000Y-99250000D03*
X97075000Y-99225000D03*
X94425000Y-98200000D03*
X100750000Y-103250000D03*
X102700000Y-97875000D03*
X101800000Y-97100000D03*
X100900000Y-97125000D03*
X92400000Y-97100000D03*
X91300000Y-97200000D03*
X89625000Y-97025000D03*
X128850000Y-108050000D03*
X126950000Y-108150000D03*
X125050000Y-108050000D03*
X149225000Y-112850000D03*
X149500000Y-114300000D03*
X150575000Y-114650000D03*
X152125000Y-114850000D03*
X152925000Y-113750000D03*
X152925000Y-112750000D03*
X151925000Y-103700000D03*
X154825000Y-105600000D03*
X151275000Y-75150000D03*
X149650000Y-72800000D03*
X147575000Y-70350000D03*
X107575000Y-69975000D03*
X105850000Y-70450000D03*
X104575000Y-72250000D03*
X102400000Y-68950000D03*
X101475000Y-70225000D03*
X101300000Y-71600000D03*
X104700000Y-79050000D03*
X90525000Y-104950000D03*
X89550000Y-104950000D03*
X88600000Y-105000000D03*
X87750000Y-105050000D03*
X90375000Y-104000000D03*
X89550000Y-104025000D03*
X88725000Y-104025000D03*
X87775000Y-104075000D03*
X92300000Y-86400000D03*
X91300000Y-86400000D03*
X89600000Y-87775000D03*
X89450000Y-89675000D03*
X165225000Y-104750000D03*
X163550000Y-104725000D03*
X162350000Y-104800000D03*
X162600000Y-109125000D03*
X164000000Y-109225000D03*
X165500000Y-109225000D03*
X155600000Y-100325000D03*
X155487500Y-102287500D03*
X150100000Y-78500000D03*
X145300000Y-104250000D03*
X143500000Y-100025000D03*
X138850000Y-104675000D03*
X145025000Y-107375000D03*
X139100000Y-107550000D03*
X106525000Y-109125000D03*
X108275000Y-107275000D03*
X107400000Y-108275000D03*
X93725000Y-117050000D03*
X93775000Y-118475000D03*
X93775000Y-119725000D03*
X100675000Y-119875000D03*
X97800000Y-119575000D03*
X92400000Y-81475000D03*
X93450000Y-80675000D03*
X92900000Y-122025000D03*
X96900000Y-91300000D03*
X97375000Y-89900000D03*
X96825000Y-93700000D03*
X97975000Y-94025000D03*
X94125000Y-94400000D03*
X94250000Y-96725000D03*
X92625000Y-94275000D03*
X91675000Y-93225000D03*
X91700000Y-89875000D03*
X152828193Y-97953193D03*
X153490693Y-97290693D03*
X159160000Y-120470000D03*
X160250000Y-125700000D03*
X159210000Y-125110000D03*
X159150000Y-124170000D03*
X159200000Y-123230000D03*
X161650000Y-119050000D03*
X161620000Y-124220000D03*
X104590000Y-96850000D03*
X102980000Y-96310000D03*
X104630000Y-95460000D03*
X156275000Y-94425000D03*
X150450000Y-84900000D03*
X156475000Y-88975000D03*
X152950000Y-95025000D03*
X102575000Y-101650000D03*
X92700000Y-120700000D03*
X104250000Y-111260000D03*
X97091970Y-108732903D03*
X94625000Y-109700000D03*
X96875000Y-107525000D03*
X96650032Y-110547613D03*
X147425000Y-84800000D03*
X148027387Y-82250010D03*
X143900000Y-97950000D03*
X148050000Y-97150000D03*
X100350000Y-109500000D03*
X94000000Y-111075000D03*
X90250000Y-114175000D03*
X103150000Y-110300000D03*
X94150000Y-112800000D03*
X106425000Y-103975000D03*
X143875000Y-96425000D03*
X149350000Y-95775000D03*
X105832838Y-107361843D03*
X146575000Y-82200000D03*
X145899990Y-85800000D03*
X105000000Y-104875000D03*
X104980875Y-106838219D03*
D17*
X153425000Y-84755000D02*
X153425000Y-86800000D01*
X153425000Y-86800000D02*
X156290000Y-86800000D01*
D18*
X152729998Y-88975000D02*
X156475000Y-88975000D01*
X150450000Y-84900000D02*
X150450000Y-86695002D01*
X150450000Y-86695002D02*
X152729998Y-88975000D01*
X153550000Y-94425000D02*
X152950000Y-95025000D01*
X156275000Y-94425000D02*
X153550000Y-94425000D01*
D19*
X99105000Y-117196998D02*
X99105000Y-117115000D01*
X95601998Y-120700000D02*
X99105000Y-117196998D01*
X92700000Y-120700000D02*
X95601998Y-120700000D01*
D20*
X102575000Y-108239315D02*
X104250000Y-109914315D01*
X102575000Y-101650000D02*
X102575000Y-108239315D01*
X104250000Y-109914315D02*
X104250000Y-111260000D01*
D19*
X97091970Y-108732903D02*
X95592097Y-108732903D01*
X95592097Y-108732903D02*
X94625000Y-109700000D01*
X97825000Y-109372645D02*
X96650032Y-110547613D01*
X96875000Y-107525000D02*
X97440685Y-107525000D01*
X97440685Y-107525000D02*
X97825000Y-107909315D01*
X97825000Y-107909315D02*
X97825000Y-109372645D01*
D18*
X147425000Y-82852397D02*
X148027387Y-82250010D01*
X147425000Y-84800000D02*
X147425000Y-82852397D01*
D19*
X147250000Y-97950000D02*
X148050000Y-97150000D01*
X143900000Y-97950000D02*
X147250000Y-97950000D01*
X100350000Y-113330000D02*
X100350000Y-109500000D01*
X99105000Y-114575000D02*
X100350000Y-113330000D01*
X97500000Y-114575000D02*
X99105000Y-114575000D01*
X94000000Y-111075000D02*
X97500000Y-114575000D01*
X90900000Y-114175000D02*
X94000000Y-111075000D01*
X90250000Y-114175000D02*
X90900000Y-114175000D01*
X103150000Y-113070000D02*
X101645000Y-114575000D01*
X103150000Y-110300000D02*
X103150000Y-113070000D01*
X100565999Y-115654001D02*
X101645000Y-114575000D01*
X97004001Y-115654001D02*
X100565999Y-115654001D01*
X94150000Y-112800000D02*
X97004001Y-115654001D01*
X148700000Y-96425000D02*
X143875000Y-96425000D01*
X149350000Y-95775000D02*
X148700000Y-96425000D01*
X106425000Y-103975000D02*
X106425000Y-106769681D01*
X106425000Y-106769681D02*
X105832838Y-107361843D01*
D18*
X146575000Y-82200000D02*
X146575000Y-85124990D01*
X146575000Y-85124990D02*
X145899990Y-85800000D01*
D19*
X105000000Y-104875000D02*
X105000000Y-106819094D01*
X105000000Y-106819094D02*
X104980875Y-106838219D01*
D21*
G36*
X166340000Y-80598381D02*
G01*
X166340001Y-133051618D01*
X152726620Y-146665000D01*
X101273381Y-146665000D01*
X91698479Y-137090098D01*
X94615000Y-137090098D01*
X94615000Y-137559902D01*
X94706654Y-138020679D01*
X94886440Y-138454721D01*
X95147450Y-138845349D01*
X95479651Y-139177550D01*
X95870279Y-139438560D01*
X96304321Y-139618346D01*
X96765098Y-139710000D01*
X97234902Y-139710000D01*
X97695679Y-139618346D01*
X98129721Y-139438560D01*
X98520349Y-139177550D01*
X98558254Y-139139645D01*
X111937305Y-139139645D01*
X111984886Y-139324025D01*
X112137122Y-139661653D01*
X112352301Y-139963094D01*
X112622153Y-140216763D01*
X112936309Y-140412912D01*
X113282695Y-140544004D01*
X113648000Y-140605000D01*
X114398000Y-140605000D01*
X114398000Y-138847000D01*
X114652000Y-138847000D01*
X114652000Y-140605000D01*
X115402000Y-140605000D01*
X115767305Y-140544004D01*
X116113691Y-140412912D01*
X116427847Y-140216763D01*
X116697699Y-139963094D01*
X116912878Y-139661653D01*
X117065114Y-139324025D01*
X117112695Y-139139645D01*
X133187305Y-139139645D01*
X133234886Y-139324025D01*
X133387122Y-139661653D01*
X133602301Y-139963094D01*
X133872153Y-140216763D01*
X134186309Y-140412912D01*
X134532695Y-140544004D01*
X134898000Y-140605000D01*
X135648000Y-140605000D01*
X135648000Y-138847000D01*
X135902000Y-138847000D01*
X135902000Y-140605000D01*
X136652000Y-140605000D01*
X137017305Y-140544004D01*
X137363691Y-140412912D01*
X137677847Y-140216763D01*
X137947699Y-139963094D01*
X138162878Y-139661653D01*
X138315114Y-139324025D01*
X138362695Y-139139645D01*
X138246572Y-138847000D01*
X135902000Y-138847000D01*
X135648000Y-138847000D01*
X133303428Y-138847000D01*
X133187305Y-139139645D01*
X117112695Y-139139645D01*
X116996572Y-138847000D01*
X114652000Y-138847000D01*
X114398000Y-138847000D01*
X112053428Y-138847000D01*
X111937305Y-139139645D01*
X98558254Y-139139645D01*
X98852550Y-138845349D01*
X99113560Y-138454721D01*
X99177500Y-138300355D01*
X111937305Y-138300355D01*
X112053428Y-138593000D01*
X114398000Y-138593000D01*
X114398000Y-136835000D01*
X114652000Y-136835000D01*
X114652000Y-138593000D01*
X116996572Y-138593000D01*
X117112695Y-138300355D01*
X133187305Y-138300355D01*
X133303428Y-138593000D01*
X135648000Y-138593000D01*
X135648000Y-136835000D01*
X135902000Y-136835000D01*
X135902000Y-138593000D01*
X138246572Y-138593000D01*
X138362695Y-138300355D01*
X138315114Y-138115975D01*
X138162878Y-137778347D01*
X137947699Y-137476906D01*
X137677847Y-137223237D01*
X137464610Y-137090098D01*
X154615000Y-137090098D01*
X154615000Y-137559902D01*
X154706654Y-138020679D01*
X154886440Y-138454721D01*
X155147450Y-138845349D01*
X155479651Y-139177550D01*
X155870279Y-139438560D01*
X156304321Y-139618346D01*
X156765098Y-139710000D01*
X157234902Y-139710000D01*
X157695679Y-139618346D01*
X158129721Y-139438560D01*
X158520349Y-139177550D01*
X158852550Y-138845349D01*
X159113560Y-138454721D01*
X159293346Y-138020679D01*
X159385000Y-137559902D01*
X159385000Y-137090098D01*
X159293346Y-136629321D01*
X159113560Y-136195279D01*
X158852550Y-135804651D01*
X158520349Y-135472450D01*
X158129721Y-135211440D01*
X157695679Y-135031654D01*
X157234902Y-134940000D01*
X156765098Y-134940000D01*
X156304321Y-135031654D01*
X155870279Y-135211440D01*
X155479651Y-135472450D01*
X155147450Y-135804651D01*
X154886440Y-136195279D01*
X154706654Y-136629321D01*
X154615000Y-137090098D01*
X137464610Y-137090098D01*
X137363691Y-137027088D01*
X137017305Y-136895996D01*
X136652000Y-136835000D01*
X135902000Y-136835000D01*
X135648000Y-136835000D01*
X134898000Y-136835000D01*
X134532695Y-136895996D01*
X134186309Y-137027088D01*
X133872153Y-137223237D01*
X133602301Y-137476906D01*
X133387122Y-137778347D01*
X133234886Y-138115975D01*
X133187305Y-138300355D01*
X117112695Y-138300355D01*
X117065114Y-138115975D01*
X116912878Y-137778347D01*
X116697699Y-137476906D01*
X116427847Y-137223237D01*
X116113691Y-137027088D01*
X115767305Y-136895996D01*
X115402000Y-136835000D01*
X114652000Y-136835000D01*
X114398000Y-136835000D01*
X113648000Y-136835000D01*
X113282695Y-136895996D01*
X112936309Y-137027088D01*
X112622153Y-137223237D01*
X112352301Y-137476906D01*
X112137122Y-137778347D01*
X111984886Y-138115975D01*
X111937305Y-138300355D01*
X99177500Y-138300355D01*
X99293346Y-138020679D01*
X99385000Y-137559902D01*
X99385000Y-137090098D01*
X99293346Y-136629321D01*
X99113560Y-136195279D01*
X98852550Y-135804651D01*
X98520349Y-135472450D01*
X98129721Y-135211440D01*
X97695679Y-135031654D01*
X97234902Y-134940000D01*
X96765098Y-134940000D01*
X96304321Y-135031654D01*
X95870279Y-135211440D01*
X95479651Y-135472450D01*
X95147450Y-135804651D01*
X94886440Y-136195279D01*
X94706654Y-136629321D01*
X94615000Y-137090098D01*
X91698479Y-137090098D01*
X87660000Y-133051620D01*
X87660000Y-131519645D01*
X109397305Y-131519645D01*
X109444886Y-131704025D01*
X109597122Y-132041653D01*
X109812301Y-132343094D01*
X110082153Y-132596763D01*
X110396309Y-132792912D01*
X110742695Y-132924004D01*
X111108000Y-132985000D01*
X111858000Y-132985000D01*
X111858000Y-131227000D01*
X112112000Y-131227000D01*
X112112000Y-132985000D01*
X112862000Y-132985000D01*
X113227305Y-132924004D01*
X113573691Y-132792912D01*
X113887847Y-132596763D01*
X114157699Y-132343094D01*
X114372878Y-132041653D01*
X114525000Y-131704278D01*
X114677122Y-132041653D01*
X114892301Y-132343094D01*
X115162153Y-132596763D01*
X115476309Y-132792912D01*
X115822695Y-132924004D01*
X116188000Y-132985000D01*
X116938000Y-132985000D01*
X116938000Y-131227000D01*
X117192000Y-131227000D01*
X117192000Y-132985000D01*
X117942000Y-132985000D01*
X118307305Y-132924004D01*
X118653691Y-132792912D01*
X118967847Y-132596763D01*
X119237699Y-132343094D01*
X119452878Y-132041653D01*
X119605114Y-131704025D01*
X119652695Y-131519645D01*
X130647305Y-131519645D01*
X130694886Y-131704025D01*
X130847122Y-132041653D01*
X131062301Y-132343094D01*
X131332153Y-132596763D01*
X131646309Y-132792912D01*
X131992695Y-132924004D01*
X132358000Y-132985000D01*
X133108000Y-132985000D01*
X133108000Y-131227000D01*
X133362000Y-131227000D01*
X133362000Y-132985000D01*
X134112000Y-132985000D01*
X134477305Y-132924004D01*
X134823691Y-132792912D01*
X135137847Y-132596763D01*
X135407699Y-132343094D01*
X135622878Y-132041653D01*
X135775000Y-131704278D01*
X135927122Y-132041653D01*
X136142301Y-132343094D01*
X136412153Y-132596763D01*
X136726309Y-132792912D01*
X137072695Y-132924004D01*
X137438000Y-132985000D01*
X138188000Y-132985000D01*
X138188000Y-131227000D01*
X138442000Y-131227000D01*
X138442000Y-132985000D01*
X139192000Y-132985000D01*
X139557305Y-132924004D01*
X139903691Y-132792912D01*
X140217847Y-132596763D01*
X140487699Y-132343094D01*
X140702878Y-132041653D01*
X140855114Y-131704025D01*
X140902695Y-131519645D01*
X140786572Y-131227000D01*
X138442000Y-131227000D01*
X138188000Y-131227000D01*
X135843428Y-131227000D01*
X135775000Y-131399447D01*
X135706572Y-131227000D01*
X133362000Y-131227000D01*
X133108000Y-131227000D01*
X130763428Y-131227000D01*
X130647305Y-131519645D01*
X119652695Y-131519645D01*
X119536572Y-131227000D01*
X117192000Y-131227000D01*
X116938000Y-131227000D01*
X114593428Y-131227000D01*
X114525000Y-131399447D01*
X114456572Y-131227000D01*
X112112000Y-131227000D01*
X111858000Y-131227000D01*
X109513428Y-131227000D01*
X109397305Y-131519645D01*
X87660000Y-131519645D01*
X87660000Y-130680355D01*
X109397305Y-130680355D01*
X109513428Y-130973000D01*
X111858000Y-130973000D01*
X111858000Y-129215000D01*
X112112000Y-129215000D01*
X112112000Y-130973000D01*
X114456572Y-130973000D01*
X114525000Y-130800553D01*
X114593428Y-130973000D01*
X116938000Y-130973000D01*
X116938000Y-129215000D01*
X117192000Y-129215000D01*
X117192000Y-130973000D01*
X119536572Y-130973000D01*
X119652695Y-130680355D01*
X130647305Y-130680355D01*
X130763428Y-130973000D01*
X133108000Y-130973000D01*
X133108000Y-129215000D01*
X133362000Y-129215000D01*
X133362000Y-130973000D01*
X135706572Y-130973000D01*
X135775000Y-130800553D01*
X135843428Y-130973000D01*
X138188000Y-130973000D01*
X138188000Y-129215000D01*
X138442000Y-129215000D01*
X138442000Y-130973000D01*
X140786572Y-130973000D01*
X140902695Y-130680355D01*
X140855114Y-130495975D01*
X140702878Y-130158347D01*
X140487699Y-129856906D01*
X140217847Y-129603237D01*
X139903691Y-129407088D01*
X139557305Y-129275996D01*
X139192000Y-129215000D01*
X138442000Y-129215000D01*
X138188000Y-129215000D01*
X137438000Y-129215000D01*
X137072695Y-129275996D01*
X136726309Y-129407088D01*
X136412153Y-129603237D01*
X136142301Y-129856906D01*
X135927122Y-130158347D01*
X135775000Y-130495722D01*
X135622878Y-130158347D01*
X135407699Y-129856906D01*
X135137847Y-129603237D01*
X134823691Y-129407088D01*
X134477305Y-129275996D01*
X134112000Y-129215000D01*
X133362000Y-129215000D01*
X133108000Y-129215000D01*
X132358000Y-129215000D01*
X131992695Y-129275996D01*
X131646309Y-129407088D01*
X131332153Y-129603237D01*
X131062301Y-129856906D01*
X130847122Y-130158347D01*
X130694886Y-130495975D01*
X130647305Y-130680355D01*
X119652695Y-130680355D01*
X119605114Y-130495975D01*
X119452878Y-130158347D01*
X119237699Y-129856906D01*
X118967847Y-129603237D01*
X118653691Y-129407088D01*
X118307305Y-129275996D01*
X117942000Y-129215000D01*
X117192000Y-129215000D01*
X116938000Y-129215000D01*
X116188000Y-129215000D01*
X115822695Y-129275996D01*
X115476309Y-129407088D01*
X115162153Y-129603237D01*
X114892301Y-129856906D01*
X114677122Y-130158347D01*
X114525000Y-130495722D01*
X114372878Y-130158347D01*
X114157699Y-129856906D01*
X113887847Y-129603237D01*
X113573691Y-129407088D01*
X113227305Y-129275996D01*
X112862000Y-129215000D01*
X112112000Y-129215000D01*
X111858000Y-129215000D01*
X111108000Y-129215000D01*
X110742695Y-129275996D01*
X110396309Y-129407088D01*
X110082153Y-129603237D01*
X109812301Y-129856906D01*
X109597122Y-130158347D01*
X109444886Y-130495975D01*
X109397305Y-130680355D01*
X87660000Y-130680355D01*
X87660000Y-114073061D01*
X89215000Y-114073061D01*
X89215000Y-114276939D01*
X89254774Y-114476898D01*
X89332795Y-114665256D01*
X89446063Y-114834774D01*
X89590226Y-114978937D01*
X89759744Y-115092205D01*
X89948102Y-115170226D01*
X90148061Y-115210000D01*
X90351939Y-115210000D01*
X90551898Y-115170226D01*
X90740256Y-115092205D01*
X90909774Y-114978937D01*
X90955500Y-114933211D01*
X91048986Y-114924003D01*
X91192247Y-114880546D01*
X91324276Y-114809974D01*
X91440001Y-114715001D01*
X91463804Y-114685997D01*
X93137043Y-113012758D01*
X93154774Y-113101898D01*
X93232795Y-113290256D01*
X93346063Y-113459774D01*
X93490226Y-113603937D01*
X93659744Y-113717205D01*
X93848102Y-113795226D01*
X94048061Y-113835000D01*
X94110199Y-113835000D01*
X96440202Y-116165004D01*
X96464000Y-116194002D01*
X96492998Y-116217800D01*
X96579724Y-116288975D01*
X96696368Y-116351323D01*
X96711754Y-116359547D01*
X96855015Y-116403004D01*
X96966668Y-116414001D01*
X96966678Y-116414001D01*
X97004001Y-116417677D01*
X97041324Y-116414001D01*
X97902856Y-116414001D01*
X97874084Y-116457062D01*
X97769378Y-116709844D01*
X97716000Y-116978195D01*
X97716000Y-117251805D01*
X97759036Y-117468161D01*
X95287197Y-119940000D01*
X93403711Y-119940000D01*
X93359774Y-119896063D01*
X93190256Y-119782795D01*
X93001898Y-119704774D01*
X92801939Y-119665000D01*
X92598061Y-119665000D01*
X92398102Y-119704774D01*
X92209744Y-119782795D01*
X92040226Y-119896063D01*
X91896063Y-120040226D01*
X91782795Y-120209744D01*
X91704774Y-120398102D01*
X91665000Y-120598061D01*
X91665000Y-120801939D01*
X91704774Y-121001898D01*
X91782795Y-121190256D01*
X91896063Y-121359774D01*
X92040226Y-121503937D01*
X92209744Y-121617205D01*
X92398102Y-121695226D01*
X92598061Y-121735000D01*
X92801939Y-121735000D01*
X93001898Y-121695226D01*
X93190256Y-121617205D01*
X93359774Y-121503937D01*
X93403711Y-121460000D01*
X95564676Y-121460000D01*
X95601998Y-121463676D01*
X95639320Y-121460000D01*
X95639331Y-121460000D01*
X95750984Y-121449003D01*
X95894245Y-121405546D01*
X96026274Y-121334974D01*
X96141999Y-121240001D01*
X96165802Y-121210997D01*
X96781799Y-120595000D01*
X147746928Y-120595000D01*
X147746928Y-124555000D01*
X147759188Y-124679482D01*
X147795498Y-124799180D01*
X147854463Y-124909494D01*
X147933815Y-125006185D01*
X148030506Y-125085537D01*
X148140820Y-125144502D01*
X148260518Y-125180812D01*
X148385000Y-125193072D01*
X150365000Y-125193072D01*
X150489482Y-125180812D01*
X150609180Y-125144502D01*
X150719494Y-125085537D01*
X150816185Y-125006185D01*
X150895537Y-124909494D01*
X150954502Y-124799180D01*
X150990812Y-124679482D01*
X151003072Y-124555000D01*
X151003072Y-121505177D01*
X152750000Y-121505177D01*
X152750001Y-123644824D01*
X152773514Y-123883556D01*
X152866433Y-124189869D01*
X153017326Y-124472170D01*
X153220393Y-124719608D01*
X153467831Y-124922675D01*
X153750132Y-125073568D01*
X154056445Y-125166487D01*
X154375000Y-125197862D01*
X154693556Y-125166487D01*
X154999869Y-125073568D01*
X155282170Y-124922675D01*
X155529608Y-124719608D01*
X155732675Y-124472170D01*
X155883568Y-124189869D01*
X155976487Y-123883556D01*
X156000000Y-123644824D01*
X156000000Y-121505176D01*
X155976487Y-121266444D01*
X155883568Y-120960131D01*
X155732675Y-120677830D01*
X155529608Y-120430392D01*
X155282169Y-120227325D01*
X154999868Y-120076432D01*
X154693555Y-119983513D01*
X154375000Y-119952138D01*
X154056444Y-119983513D01*
X153750131Y-120076432D01*
X153467830Y-120227325D01*
X153220392Y-120430392D01*
X153017325Y-120677831D01*
X152866432Y-120960132D01*
X152773513Y-121266445D01*
X152750000Y-121505177D01*
X151003072Y-121505177D01*
X151003072Y-120595000D01*
X150990812Y-120470518D01*
X150954502Y-120350820D01*
X150895537Y-120240506D01*
X150816185Y-120143815D01*
X150719494Y-120064463D01*
X150609180Y-120005498D01*
X150489482Y-119969188D01*
X150365000Y-119956928D01*
X148385000Y-119956928D01*
X148260518Y-119969188D01*
X148140820Y-120005498D01*
X148030506Y-120064463D01*
X147933815Y-120143815D01*
X147854463Y-120240506D01*
X147795498Y-120350820D01*
X147759188Y-120470518D01*
X147746928Y-120595000D01*
X96781799Y-120595000D01*
X98888627Y-118488173D01*
X98968195Y-118504000D01*
X99241805Y-118504000D01*
X99510156Y-118450622D01*
X99762938Y-118345916D01*
X99990436Y-118193907D01*
X100183907Y-118000436D01*
X100335916Y-117772938D01*
X100375000Y-117678581D01*
X100414084Y-117772938D01*
X100566093Y-118000436D01*
X100759564Y-118193907D01*
X100987062Y-118345916D01*
X101239844Y-118450622D01*
X101508195Y-118504000D01*
X101781805Y-118504000D01*
X102050156Y-118450622D01*
X102302938Y-118345916D01*
X102530436Y-118193907D01*
X102723907Y-118000436D01*
X102875916Y-117772938D01*
X102980622Y-117520156D01*
X103034000Y-117251805D01*
X103034000Y-116978195D01*
X102980622Y-116709844D01*
X102875916Y-116457062D01*
X102723907Y-116229564D01*
X102530436Y-116036093D01*
X102302938Y-115884084D01*
X102208581Y-115845000D01*
X102302938Y-115805916D01*
X102530436Y-115653907D01*
X102723907Y-115460436D01*
X102875916Y-115232938D01*
X102980622Y-114980156D01*
X103034000Y-114711805D01*
X103034000Y-114438195D01*
X103004569Y-114290233D01*
X103661008Y-113633795D01*
X103690001Y-113610001D01*
X103713795Y-113581008D01*
X103713799Y-113581004D01*
X103784973Y-113494277D01*
X103784974Y-113494276D01*
X103855546Y-113362247D01*
X103899003Y-113218986D01*
X103910000Y-113107333D01*
X103910000Y-113107324D01*
X103913676Y-113070001D01*
X103910000Y-113032678D01*
X103910000Y-112239444D01*
X103948102Y-112255226D01*
X103998226Y-112265196D01*
X104047106Y-112280024D01*
X104097942Y-112285031D01*
X104148061Y-112295000D01*
X104199162Y-112295000D01*
X104250000Y-112300007D01*
X104300838Y-112295000D01*
X104351939Y-112295000D01*
X104402057Y-112285031D01*
X104452895Y-112280024D01*
X104501777Y-112265196D01*
X104551898Y-112255226D01*
X104599113Y-112235669D01*
X104647993Y-112220841D01*
X104693042Y-112196762D01*
X104740256Y-112177205D01*
X104782746Y-112148814D01*
X104827797Y-112124734D01*
X104867284Y-112092328D01*
X104909774Y-112063937D01*
X104945908Y-112027803D01*
X104985396Y-111995396D01*
X105017803Y-111955908D01*
X105053937Y-111919774D01*
X105082328Y-111877284D01*
X105114734Y-111837797D01*
X105138814Y-111792746D01*
X105167205Y-111750256D01*
X105186762Y-111703042D01*
X105210841Y-111657993D01*
X105225669Y-111609113D01*
X105245226Y-111561898D01*
X105255196Y-111511777D01*
X105270024Y-111462895D01*
X105275031Y-111412057D01*
X105285000Y-111361939D01*
X105285000Y-109965150D01*
X105290007Y-109914315D01*
X105285000Y-109863477D01*
X105270024Y-109711420D01*
X105210841Y-109516322D01*
X105147651Y-109398102D01*
X105114734Y-109336517D01*
X105017803Y-109218407D01*
X104985396Y-109178919D01*
X104945908Y-109146512D01*
X103610000Y-107810605D01*
X103610000Y-106736280D01*
X103945875Y-106736280D01*
X103945875Y-106940158D01*
X103985649Y-107140117D01*
X104063670Y-107328475D01*
X104176938Y-107497993D01*
X104321101Y-107642156D01*
X104490619Y-107755424D01*
X104678977Y-107833445D01*
X104878936Y-107873219D01*
X104929745Y-107873219D01*
X105028901Y-108021617D01*
X105173064Y-108165780D01*
X105342582Y-108279048D01*
X105530940Y-108357069D01*
X105730899Y-108396843D01*
X105934777Y-108396843D01*
X106134736Y-108357069D01*
X106323094Y-108279048D01*
X106492612Y-108165780D01*
X106636775Y-108021617D01*
X106750043Y-107852099D01*
X106828064Y-107663741D01*
X106867838Y-107463782D01*
X106867838Y-107401645D01*
X106936002Y-107333481D01*
X106965001Y-107309682D01*
X107059974Y-107193957D01*
X107130546Y-107061928D01*
X107174003Y-106918667D01*
X107185000Y-106807014D01*
X107188677Y-106769681D01*
X107185000Y-106732348D01*
X107185000Y-104678711D01*
X107228937Y-104634774D01*
X107342205Y-104465256D01*
X107420226Y-104276898D01*
X107460000Y-104076939D01*
X107460000Y-103873061D01*
X107420226Y-103673102D01*
X107342205Y-103484744D01*
X107228937Y-103315226D01*
X107084774Y-103171063D01*
X106915256Y-103057795D01*
X106726898Y-102979774D01*
X106526939Y-102940000D01*
X106323061Y-102940000D01*
X106123102Y-102979774D01*
X105934744Y-103057795D01*
X105765226Y-103171063D01*
X105621063Y-103315226D01*
X105507795Y-103484744D01*
X105429774Y-103673102D01*
X105390000Y-103873061D01*
X105390000Y-103916267D01*
X105301898Y-103879774D01*
X105101939Y-103840000D01*
X104898061Y-103840000D01*
X104698102Y-103879774D01*
X104509744Y-103957795D01*
X104340226Y-104071063D01*
X104196063Y-104215226D01*
X104082795Y-104384744D01*
X104004774Y-104573102D01*
X103965000Y-104773061D01*
X103965000Y-104976939D01*
X104004774Y-105176898D01*
X104082795Y-105365256D01*
X104196063Y-105534774D01*
X104240000Y-105578711D01*
X104240001Y-106115382D01*
X104176938Y-106178445D01*
X104063670Y-106347963D01*
X103985649Y-106536321D01*
X103945875Y-106736280D01*
X103610000Y-106736280D01*
X103610000Y-101548061D01*
X103600031Y-101497943D01*
X103595024Y-101447105D01*
X103580196Y-101398223D01*
X103570226Y-101348102D01*
X103550669Y-101300887D01*
X103535841Y-101252007D01*
X103511762Y-101206958D01*
X103492205Y-101159744D01*
X103463814Y-101117254D01*
X103439734Y-101072203D01*
X103407328Y-101032716D01*
X103378937Y-100990226D01*
X103342803Y-100954092D01*
X103310396Y-100914604D01*
X103270908Y-100882197D01*
X103234774Y-100846063D01*
X103192284Y-100817672D01*
X103152797Y-100785266D01*
X103107747Y-100761186D01*
X103065256Y-100732795D01*
X103018039Y-100713237D01*
X102972992Y-100689159D01*
X102924116Y-100674332D01*
X102876898Y-100654774D01*
X102826774Y-100644804D01*
X102777894Y-100629976D01*
X102727058Y-100624969D01*
X102676939Y-100615000D01*
X102625838Y-100615000D01*
X102575000Y-100609993D01*
X102524162Y-100615000D01*
X102473061Y-100615000D01*
X102422943Y-100624969D01*
X102372105Y-100629976D01*
X102323223Y-100644804D01*
X102273102Y-100654774D01*
X102225887Y-100674331D01*
X102177007Y-100689159D01*
X102131958Y-100713238D01*
X102084744Y-100732795D01*
X102042254Y-100761186D01*
X101997203Y-100785266D01*
X101957716Y-100817672D01*
X101915226Y-100846063D01*
X101879092Y-100882197D01*
X101839604Y-100914604D01*
X101807197Y-100954092D01*
X101771063Y-100990226D01*
X101742672Y-101032716D01*
X101710266Y-101072203D01*
X101686186Y-101117253D01*
X101657795Y-101159744D01*
X101638237Y-101206961D01*
X101614159Y-101252008D01*
X101599332Y-101300884D01*
X101579774Y-101348102D01*
X101569804Y-101398226D01*
X101554976Y-101447106D01*
X101549969Y-101497942D01*
X101540000Y-101548061D01*
X101540000Y-101599163D01*
X101540001Y-108188477D01*
X101534994Y-108239315D01*
X101554977Y-108442210D01*
X101614160Y-108637308D01*
X101710266Y-108817112D01*
X101773606Y-108894291D01*
X101839605Y-108974711D01*
X101879092Y-109007117D01*
X102429132Y-109557157D01*
X102346063Y-109640226D01*
X102232795Y-109809744D01*
X102154774Y-109998102D01*
X102115000Y-110198061D01*
X102115000Y-110401939D01*
X102154774Y-110601898D01*
X102225182Y-110771876D01*
X102050156Y-110699378D01*
X101781805Y-110646000D01*
X101508195Y-110646000D01*
X101239844Y-110699378D01*
X101110000Y-110753161D01*
X101110000Y-110203711D01*
X101153937Y-110159774D01*
X101267205Y-109990256D01*
X101345226Y-109801898D01*
X101385000Y-109601939D01*
X101385000Y-109398061D01*
X101345226Y-109198102D01*
X101267205Y-109009744D01*
X101153937Y-108840226D01*
X101009774Y-108696063D01*
X100840256Y-108582795D01*
X100651898Y-108504774D01*
X100451939Y-108465000D01*
X100248061Y-108465000D01*
X100048102Y-108504774D01*
X99859744Y-108582795D01*
X99690226Y-108696063D01*
X99546063Y-108840226D01*
X99432795Y-109009744D01*
X99354774Y-109198102D01*
X99315000Y-109398061D01*
X99315000Y-109601939D01*
X99354774Y-109801898D01*
X99432795Y-109990256D01*
X99546063Y-110159774D01*
X99590001Y-110203712D01*
X99590001Y-110728227D01*
X99571574Y-110719574D01*
X99305982Y-110653826D01*
X99032666Y-110641155D01*
X98762130Y-110682049D01*
X98504771Y-110774937D01*
X98390765Y-110835873D01*
X98324754Y-111075149D01*
X99105000Y-111855395D01*
X99119143Y-111841253D01*
X99298748Y-112020858D01*
X99284605Y-112035000D01*
X99298748Y-112049143D01*
X99119143Y-112228748D01*
X99105000Y-112214605D01*
X98324754Y-112994851D01*
X98390765Y-113234127D01*
X98541563Y-113304940D01*
X98447062Y-113344084D01*
X98219564Y-113496093D01*
X98026093Y-113689564D01*
X97942280Y-113815000D01*
X97814803Y-113815000D01*
X96107136Y-112107334D01*
X97711155Y-112107334D01*
X97752049Y-112377870D01*
X97844937Y-112635229D01*
X97905873Y-112749235D01*
X98145149Y-112815246D01*
X98925395Y-112035000D01*
X98145149Y-111254754D01*
X97905873Y-111320765D01*
X97789574Y-111568426D01*
X97723826Y-111834018D01*
X97711155Y-112107334D01*
X96107136Y-112107334D01*
X95035000Y-111035199D01*
X95035000Y-110973061D01*
X94995226Y-110773102D01*
X94957686Y-110682473D01*
X95115256Y-110617205D01*
X95284774Y-110503937D01*
X95428937Y-110359774D01*
X95542205Y-110190256D01*
X95620226Y-110001898D01*
X95660000Y-109801939D01*
X95660000Y-109739802D01*
X95906899Y-109492903D01*
X96388259Y-109492903D01*
X96431217Y-109535861D01*
X96348134Y-109552387D01*
X96159776Y-109630408D01*
X95990258Y-109743676D01*
X95846095Y-109887839D01*
X95732827Y-110057357D01*
X95654806Y-110245715D01*
X95615032Y-110445674D01*
X95615032Y-110649552D01*
X95654806Y-110849511D01*
X95732827Y-111037869D01*
X95846095Y-111207387D01*
X95990258Y-111351550D01*
X96159776Y-111464818D01*
X96348134Y-111542839D01*
X96548093Y-111582613D01*
X96751971Y-111582613D01*
X96951930Y-111542839D01*
X97140288Y-111464818D01*
X97309806Y-111351550D01*
X97453969Y-111207387D01*
X97567237Y-111037869D01*
X97645258Y-110849511D01*
X97685032Y-110649552D01*
X97685032Y-110587414D01*
X98336003Y-109936444D01*
X98365001Y-109912646D01*
X98459974Y-109796921D01*
X98530546Y-109664892D01*
X98574003Y-109521631D01*
X98585000Y-109409978D01*
X98585000Y-109409970D01*
X98588676Y-109372645D01*
X98585000Y-109335320D01*
X98585000Y-107946637D01*
X98588676Y-107909314D01*
X98585000Y-107871991D01*
X98585000Y-107871982D01*
X98574003Y-107760329D01*
X98530546Y-107617068D01*
X98459974Y-107485039D01*
X98365001Y-107369314D01*
X98336003Y-107345516D01*
X98004488Y-107014002D01*
X97980686Y-106984999D01*
X97864961Y-106890026D01*
X97732932Y-106819454D01*
X97589724Y-106776013D01*
X97534774Y-106721063D01*
X97365256Y-106607795D01*
X97176898Y-106529774D01*
X96976939Y-106490000D01*
X96773061Y-106490000D01*
X96573102Y-106529774D01*
X96384744Y-106607795D01*
X96215226Y-106721063D01*
X96071063Y-106865226D01*
X95957795Y-107034744D01*
X95879774Y-107223102D01*
X95840000Y-107423061D01*
X95840000Y-107626939D01*
X95879774Y-107826898D01*
X95940252Y-107972903D01*
X95629422Y-107972903D01*
X95592097Y-107969227D01*
X95554772Y-107972903D01*
X95554764Y-107972903D01*
X95443111Y-107983900D01*
X95299850Y-108027357D01*
X95167821Y-108097929D01*
X95052096Y-108192902D01*
X95028298Y-108221900D01*
X94585198Y-108665000D01*
X94523061Y-108665000D01*
X94323102Y-108704774D01*
X94134744Y-108782795D01*
X93965226Y-108896063D01*
X93821063Y-109040226D01*
X93707795Y-109209744D01*
X93629774Y-109398102D01*
X93590000Y-109598061D01*
X93590000Y-109801939D01*
X93629774Y-110001898D01*
X93667314Y-110092527D01*
X93509744Y-110157795D01*
X93340226Y-110271063D01*
X93196063Y-110415226D01*
X93082795Y-110584744D01*
X93004774Y-110773102D01*
X92965000Y-110973061D01*
X92965000Y-111035198D01*
X90741544Y-113258655D01*
X90740256Y-113257795D01*
X90551898Y-113179774D01*
X90351939Y-113140000D01*
X90148061Y-113140000D01*
X89948102Y-113179774D01*
X89759744Y-113257795D01*
X89590226Y-113371063D01*
X89446063Y-113515226D01*
X89332795Y-113684744D01*
X89254774Y-113873102D01*
X89215000Y-114073061D01*
X87660000Y-114073061D01*
X87660000Y-96323061D01*
X142840000Y-96323061D01*
X142840000Y-96526939D01*
X142879774Y-96726898D01*
X142957795Y-96915256D01*
X143071063Y-97084774D01*
X143186289Y-97200000D01*
X143096063Y-97290226D01*
X142982795Y-97459744D01*
X142904774Y-97648102D01*
X142865000Y-97848061D01*
X142865000Y-98051939D01*
X142904774Y-98251898D01*
X142982795Y-98440256D01*
X143096063Y-98609774D01*
X143240226Y-98753937D01*
X143409744Y-98867205D01*
X143598102Y-98945226D01*
X143798061Y-98985000D01*
X144001939Y-98985000D01*
X144201898Y-98945226D01*
X144390256Y-98867205D01*
X144559774Y-98753937D01*
X144603711Y-98710000D01*
X147212678Y-98710000D01*
X147250000Y-98713676D01*
X147287322Y-98710000D01*
X147287333Y-98710000D01*
X147398986Y-98699003D01*
X147542247Y-98655546D01*
X147674276Y-98584974D01*
X147790001Y-98490001D01*
X147813803Y-98460998D01*
X148089801Y-98185000D01*
X148151939Y-98185000D01*
X148351898Y-98145226D01*
X148540256Y-98067205D01*
X148709774Y-97953937D01*
X148853937Y-97809774D01*
X148967205Y-97640256D01*
X149045226Y-97451898D01*
X149085000Y-97251939D01*
X149085000Y-97080968D01*
X149124276Y-97059974D01*
X149240001Y-96965001D01*
X149263803Y-96935998D01*
X149389801Y-96810000D01*
X149451939Y-96810000D01*
X149651898Y-96770226D01*
X149840256Y-96692205D01*
X150009774Y-96578937D01*
X150153937Y-96434774D01*
X150267205Y-96265256D01*
X150345226Y-96076898D01*
X150385000Y-95876939D01*
X150385000Y-95673061D01*
X150345226Y-95473102D01*
X150267205Y-95284744D01*
X150153937Y-95115226D01*
X150009774Y-94971063D01*
X149937934Y-94923061D01*
X151915000Y-94923061D01*
X151915000Y-95126939D01*
X151954774Y-95326898D01*
X152032795Y-95515256D01*
X152146063Y-95684774D01*
X152290226Y-95828937D01*
X152459744Y-95942205D01*
X152648102Y-96020226D01*
X152848061Y-96060000D01*
X153051939Y-96060000D01*
X153251898Y-96020226D01*
X153440256Y-95942205D01*
X153609774Y-95828937D01*
X153753937Y-95684774D01*
X153867205Y-95515256D01*
X153945226Y-95326898D01*
X153958533Y-95260000D01*
X155661715Y-95260000D01*
X155784744Y-95342205D01*
X155973102Y-95420226D01*
X156173061Y-95460000D01*
X156376939Y-95460000D01*
X156576898Y-95420226D01*
X156765256Y-95342205D01*
X156934774Y-95228937D01*
X157078937Y-95084774D01*
X157192205Y-94915256D01*
X157270226Y-94726898D01*
X157310000Y-94526939D01*
X157310000Y-94323061D01*
X157270226Y-94123102D01*
X157192205Y-93934744D01*
X157078937Y-93765226D01*
X156934774Y-93621063D01*
X156765256Y-93507795D01*
X156576898Y-93429774D01*
X156376939Y-93390000D01*
X156173061Y-93390000D01*
X155973102Y-93429774D01*
X155784744Y-93507795D01*
X155661715Y-93590000D01*
X153591018Y-93590000D01*
X153549999Y-93585960D01*
X153508981Y-93590000D01*
X153386311Y-93602082D01*
X153228913Y-93649828D01*
X153083854Y-93727364D01*
X152956709Y-93831709D01*
X152930558Y-93863574D01*
X152793225Y-94000908D01*
X152648102Y-94029774D01*
X152459744Y-94107795D01*
X152290226Y-94221063D01*
X152146063Y-94365226D01*
X152032795Y-94534744D01*
X151954774Y-94723102D01*
X151915000Y-94923061D01*
X149937934Y-94923061D01*
X149840256Y-94857795D01*
X149651898Y-94779774D01*
X149451939Y-94740000D01*
X149248061Y-94740000D01*
X149048102Y-94779774D01*
X148859744Y-94857795D01*
X148690226Y-94971063D01*
X148546063Y-95115226D01*
X148432795Y-95284744D01*
X148354774Y-95473102D01*
X148316603Y-95665000D01*
X144578711Y-95665000D01*
X144534774Y-95621063D01*
X144365256Y-95507795D01*
X144176898Y-95429774D01*
X143976939Y-95390000D01*
X143773061Y-95390000D01*
X143573102Y-95429774D01*
X143384744Y-95507795D01*
X143215226Y-95621063D01*
X143071063Y-95765226D01*
X142957795Y-95934744D01*
X142879774Y-96123102D01*
X142840000Y-96323061D01*
X87660000Y-96323061D01*
X87660000Y-85698061D01*
X144864990Y-85698061D01*
X144864990Y-85901939D01*
X144904764Y-86101898D01*
X144982785Y-86290256D01*
X145096053Y-86459774D01*
X145240216Y-86603937D01*
X145409734Y-86717205D01*
X145598092Y-86795226D01*
X145798051Y-86835000D01*
X146001929Y-86835000D01*
X146201888Y-86795226D01*
X146390246Y-86717205D01*
X146559764Y-86603937D01*
X146703927Y-86459774D01*
X146817195Y-86290256D01*
X146895216Y-86101898D01*
X146924083Y-85956775D01*
X147096607Y-85784251D01*
X147123102Y-85795226D01*
X147323061Y-85835000D01*
X147526939Y-85835000D01*
X147726898Y-85795226D01*
X147915256Y-85717205D01*
X148084774Y-85603937D01*
X148228937Y-85459774D01*
X148342205Y-85290256D01*
X148420226Y-85101898D01*
X148460000Y-84901939D01*
X148460000Y-84798061D01*
X149415000Y-84798061D01*
X149415000Y-85001939D01*
X149454774Y-85201898D01*
X149532795Y-85390256D01*
X149615000Y-85513285D01*
X149615001Y-86653974D01*
X149610960Y-86695002D01*
X149627082Y-86858690D01*
X149674828Y-87016088D01*
X149752364Y-87161147D01*
X149752365Y-87161148D01*
X149856710Y-87288293D01*
X149888574Y-87314443D01*
X152110557Y-89536427D01*
X152136707Y-89568291D01*
X152217717Y-89634774D01*
X152263852Y-89672636D01*
X152408911Y-89750172D01*
X152566309Y-89797918D01*
X152729997Y-89814040D01*
X152771016Y-89810000D01*
X155861715Y-89810000D01*
X155984744Y-89892205D01*
X156173102Y-89970226D01*
X156373061Y-90010000D01*
X156576939Y-90010000D01*
X156776898Y-89970226D01*
X156965256Y-89892205D01*
X157134774Y-89778937D01*
X157278937Y-89634774D01*
X157392205Y-89465256D01*
X157470226Y-89276898D01*
X157510000Y-89076939D01*
X157510000Y-88873061D01*
X157470226Y-88673102D01*
X157392205Y-88484744D01*
X157278937Y-88315226D01*
X157134774Y-88171063D01*
X156965256Y-88057795D01*
X156776898Y-87979774D01*
X156576939Y-87940000D01*
X156373061Y-87940000D01*
X156173102Y-87979774D01*
X155984744Y-88057795D01*
X155861715Y-88140000D01*
X154845206Y-88140000D01*
X154847216Y-88046164D01*
X154425000Y-87623948D01*
X154408029Y-87640919D01*
X154308958Y-87541848D01*
X154310113Y-87536002D01*
X154310001Y-87450000D01*
X154598948Y-87450000D01*
X155021164Y-87872216D01*
X155209827Y-87868174D01*
X155276328Y-87707026D01*
X155310113Y-87536002D01*
X155309884Y-87361672D01*
X155275649Y-87190736D01*
X155209827Y-87031826D01*
X155021164Y-87027784D01*
X154598948Y-87450000D01*
X154310001Y-87450000D01*
X154309884Y-87361672D01*
X154309142Y-87357968D01*
X154408029Y-87259081D01*
X154425000Y-87276052D01*
X154711815Y-86989237D01*
X154843174Y-86934827D01*
X154844859Y-86856193D01*
X154847216Y-86853836D01*
X154846063Y-86800000D01*
X154847216Y-86746164D01*
X154844859Y-86743807D01*
X154843174Y-86665173D01*
X154712159Y-86611107D01*
X154425000Y-86323948D01*
X154408029Y-86340919D01*
X154308958Y-86241848D01*
X154310113Y-86236002D01*
X154310001Y-86150000D01*
X154598948Y-86150000D01*
X155021164Y-86572216D01*
X155209827Y-86568174D01*
X155276328Y-86407026D01*
X155310113Y-86236002D01*
X155309884Y-86061672D01*
X155275649Y-85890736D01*
X155209827Y-85731826D01*
X155021164Y-85727784D01*
X154598948Y-86150000D01*
X154310001Y-86150000D01*
X154309884Y-86061672D01*
X154309142Y-86057968D01*
X154408029Y-85959081D01*
X154425000Y-85976052D01*
X154847216Y-85553836D01*
X154843174Y-85365173D01*
X154682026Y-85298672D01*
X154511002Y-85264887D01*
X154336672Y-85265116D01*
X154165736Y-85299351D01*
X154006826Y-85365173D01*
X154004521Y-85472755D01*
X153963579Y-85431813D01*
X153925000Y-85470392D01*
X153886421Y-85431813D01*
X153845479Y-85472755D01*
X153843174Y-85365173D01*
X153682026Y-85298672D01*
X153511002Y-85264887D01*
X153336672Y-85265116D01*
X153165736Y-85299351D01*
X153006826Y-85365173D01*
X153004521Y-85472755D01*
X152963579Y-85431813D01*
X152925000Y-85470392D01*
X152886421Y-85431813D01*
X152845479Y-85472755D01*
X152843174Y-85365173D01*
X152682026Y-85298672D01*
X152511002Y-85264887D01*
X152336672Y-85265116D01*
X152165736Y-85299351D01*
X152006826Y-85365173D01*
X152002784Y-85553836D01*
X152425000Y-85976052D01*
X152441971Y-85959081D01*
X152541042Y-86058152D01*
X152539887Y-86063998D01*
X152540116Y-86238328D01*
X152540858Y-86242032D01*
X152441971Y-86340919D01*
X152425000Y-86323948D01*
X152138185Y-86610763D01*
X152006826Y-86665173D01*
X152005141Y-86743807D01*
X152002784Y-86746164D01*
X152003937Y-86800000D01*
X152002784Y-86853836D01*
X152005141Y-86856193D01*
X152006826Y-86934827D01*
X152137841Y-86988893D01*
X152425000Y-87276052D01*
X152441971Y-87259081D01*
X152541042Y-87358152D01*
X152539887Y-87363998D01*
X152540116Y-87538328D01*
X152540858Y-87542032D01*
X152509378Y-87573513D01*
X151285000Y-86349135D01*
X151285000Y-86063998D01*
X151539887Y-86063998D01*
X151540116Y-86238328D01*
X151574351Y-86409264D01*
X151640173Y-86568174D01*
X151828836Y-86572216D01*
X152251052Y-86150000D01*
X151828836Y-85727784D01*
X151640173Y-85731826D01*
X151573672Y-85892974D01*
X151539887Y-86063998D01*
X151285000Y-86063998D01*
X151285000Y-85513285D01*
X151367205Y-85390256D01*
X151445226Y-85201898D01*
X151485000Y-85001939D01*
X151485000Y-84798061D01*
X151445226Y-84598102D01*
X151367205Y-84409744D01*
X151253937Y-84240226D01*
X151109774Y-84096063D01*
X150940256Y-83982795D01*
X150751898Y-83904774D01*
X150551939Y-83865000D01*
X150348061Y-83865000D01*
X150148102Y-83904774D01*
X149959744Y-83982795D01*
X149790226Y-84096063D01*
X149646063Y-84240226D01*
X149532795Y-84409744D01*
X149454774Y-84598102D01*
X149415000Y-84798061D01*
X148460000Y-84798061D01*
X148460000Y-84698061D01*
X148420226Y-84498102D01*
X148342205Y-84309744D01*
X148260000Y-84186715D01*
X148260000Y-83259018D01*
X148329285Y-83245236D01*
X148517643Y-83167215D01*
X148687161Y-83053947D01*
X148831324Y-82909784D01*
X148944592Y-82740266D01*
X149022613Y-82551908D01*
X149062387Y-82351949D01*
X149062387Y-82148071D01*
X149022613Y-81948112D01*
X148944592Y-81759754D01*
X148831324Y-81590236D01*
X148687161Y-81446073D01*
X148517643Y-81332805D01*
X148329285Y-81254784D01*
X148129326Y-81215010D01*
X147925448Y-81215010D01*
X147725489Y-81254784D01*
X147537131Y-81332805D01*
X147367613Y-81446073D01*
X147326199Y-81487488D01*
X147234774Y-81396063D01*
X147065256Y-81282795D01*
X146876898Y-81204774D01*
X146676939Y-81165000D01*
X146473061Y-81165000D01*
X146273102Y-81204774D01*
X146084744Y-81282795D01*
X145915226Y-81396063D01*
X145771063Y-81540226D01*
X145657795Y-81709744D01*
X145579774Y-81898102D01*
X145540000Y-82098061D01*
X145540000Y-82301939D01*
X145579774Y-82501898D01*
X145657795Y-82690256D01*
X145740000Y-82813285D01*
X145740001Y-84776547D01*
X145598092Y-84804774D01*
X145409734Y-84882795D01*
X145240216Y-84996063D01*
X145096053Y-85140226D01*
X144982785Y-85309744D01*
X144904764Y-85498102D01*
X144864990Y-85698061D01*
X87660000Y-85698061D01*
X87660000Y-83100000D01*
X109340880Y-83100000D01*
X109377275Y-83469524D01*
X109485061Y-83824848D01*
X109660097Y-84152317D01*
X109895655Y-84439345D01*
X110182683Y-84674903D01*
X110510152Y-84849939D01*
X110865476Y-84957725D01*
X111142403Y-84985000D01*
X112827597Y-84985000D01*
X113104524Y-84957725D01*
X113459848Y-84849939D01*
X113787317Y-84674903D01*
X114074345Y-84439345D01*
X114309903Y-84152317D01*
X114484939Y-83824848D01*
X114525000Y-83692784D01*
X114565061Y-83824848D01*
X114740097Y-84152317D01*
X114975655Y-84439345D01*
X115262683Y-84674903D01*
X115590152Y-84849939D01*
X115945476Y-84957725D01*
X116222403Y-84985000D01*
X117907597Y-84985000D01*
X118184524Y-84957725D01*
X118539848Y-84849939D01*
X118867317Y-84674903D01*
X119154345Y-84439345D01*
X119389903Y-84152317D01*
X119564939Y-83824848D01*
X119672725Y-83469524D01*
X119709120Y-83100000D01*
X130590880Y-83100000D01*
X130627275Y-83469524D01*
X130735061Y-83824848D01*
X130910097Y-84152317D01*
X131145655Y-84439345D01*
X131432683Y-84674903D01*
X131760152Y-84849939D01*
X132115476Y-84957725D01*
X132392403Y-84985000D01*
X134077597Y-84985000D01*
X134354524Y-84957725D01*
X134709848Y-84849939D01*
X135037317Y-84674903D01*
X135324345Y-84439345D01*
X135559903Y-84152317D01*
X135734939Y-83824848D01*
X135775000Y-83692784D01*
X135815061Y-83824848D01*
X135990097Y-84152317D01*
X136225655Y-84439345D01*
X136512683Y-84674903D01*
X136840152Y-84849939D01*
X137195476Y-84957725D01*
X137472403Y-84985000D01*
X139157597Y-84985000D01*
X139434524Y-84957725D01*
X139789848Y-84849939D01*
X140117317Y-84674903D01*
X140404345Y-84439345D01*
X140639903Y-84152317D01*
X140814939Y-83824848D01*
X140922725Y-83469524D01*
X140959120Y-83100000D01*
X140922725Y-82730476D01*
X140814939Y-82375152D01*
X140639903Y-82047683D01*
X140404345Y-81760655D01*
X140117317Y-81525097D01*
X139789848Y-81350061D01*
X139434524Y-81242275D01*
X139157597Y-81215000D01*
X137472403Y-81215000D01*
X137195476Y-81242275D01*
X136840152Y-81350061D01*
X136512683Y-81525097D01*
X136225655Y-81760655D01*
X135990097Y-82047683D01*
X135815061Y-82375152D01*
X135775000Y-82507216D01*
X135734939Y-82375152D01*
X135559903Y-82047683D01*
X135324345Y-81760655D01*
X135037317Y-81525097D01*
X134709848Y-81350061D01*
X134354524Y-81242275D01*
X134077597Y-81215000D01*
X132392403Y-81215000D01*
X132115476Y-81242275D01*
X131760152Y-81350061D01*
X131432683Y-81525097D01*
X131145655Y-81760655D01*
X130910097Y-82047683D01*
X130735061Y-82375152D01*
X130627275Y-82730476D01*
X130590880Y-83100000D01*
X119709120Y-83100000D01*
X119672725Y-82730476D01*
X119564939Y-82375152D01*
X119389903Y-82047683D01*
X119154345Y-81760655D01*
X118867317Y-81525097D01*
X118539848Y-81350061D01*
X118184524Y-81242275D01*
X117907597Y-81215000D01*
X116222403Y-81215000D01*
X115945476Y-81242275D01*
X115590152Y-81350061D01*
X115262683Y-81525097D01*
X114975655Y-81760655D01*
X114740097Y-82047683D01*
X114565061Y-82375152D01*
X114525000Y-82507216D01*
X114484939Y-82375152D01*
X114309903Y-82047683D01*
X114074345Y-81760655D01*
X113787317Y-81525097D01*
X113459848Y-81350061D01*
X113104524Y-81242275D01*
X112827597Y-81215000D01*
X111142403Y-81215000D01*
X110865476Y-81242275D01*
X110510152Y-81350061D01*
X110182683Y-81525097D01*
X109895655Y-81760655D01*
X109660097Y-82047683D01*
X109485061Y-82375152D01*
X109377275Y-82730476D01*
X109340880Y-83100000D01*
X87660000Y-83100000D01*
X87660000Y-80598380D01*
X91168282Y-77090098D01*
X94615000Y-77090098D01*
X94615000Y-77559902D01*
X94706654Y-78020679D01*
X94886440Y-78454721D01*
X95147450Y-78845349D01*
X95479651Y-79177550D01*
X95870279Y-79438560D01*
X96304321Y-79618346D01*
X96765098Y-79710000D01*
X97234902Y-79710000D01*
X97695679Y-79618346D01*
X98129721Y-79438560D01*
X98520349Y-79177550D01*
X98852550Y-78845349D01*
X99113560Y-78454721D01*
X99293346Y-78020679D01*
X99385000Y-77559902D01*
X99385000Y-77090098D01*
X99293346Y-76629321D01*
X99113560Y-76195279D01*
X98852550Y-75804651D01*
X98527899Y-75480000D01*
X111880880Y-75480000D01*
X111917275Y-75849524D01*
X112025061Y-76204848D01*
X112200097Y-76532317D01*
X112435655Y-76819345D01*
X112722683Y-77054903D01*
X113050152Y-77229939D01*
X113405476Y-77337725D01*
X113682403Y-77365000D01*
X115367597Y-77365000D01*
X115644524Y-77337725D01*
X115999848Y-77229939D01*
X116327317Y-77054903D01*
X116614345Y-76819345D01*
X116849903Y-76532317D01*
X117024939Y-76204848D01*
X117132725Y-75849524D01*
X117169120Y-75480000D01*
X133130880Y-75480000D01*
X133167275Y-75849524D01*
X133275061Y-76204848D01*
X133450097Y-76532317D01*
X133685655Y-76819345D01*
X133972683Y-77054903D01*
X134300152Y-77229939D01*
X134655476Y-77337725D01*
X134932403Y-77365000D01*
X136617597Y-77365000D01*
X136894524Y-77337725D01*
X137249848Y-77229939D01*
X137511471Y-77090098D01*
X154615000Y-77090098D01*
X154615000Y-77559902D01*
X154706654Y-78020679D01*
X154886440Y-78454721D01*
X155147450Y-78845349D01*
X155479651Y-79177550D01*
X155870279Y-79438560D01*
X156304321Y-79618346D01*
X156765098Y-79710000D01*
X157234902Y-79710000D01*
X157695679Y-79618346D01*
X158129721Y-79438560D01*
X158520349Y-79177550D01*
X158852550Y-78845349D01*
X159113560Y-78454721D01*
X159293346Y-78020679D01*
X159385000Y-77559902D01*
X159385000Y-77090098D01*
X159293346Y-76629321D01*
X159113560Y-76195279D01*
X158852550Y-75804651D01*
X158520349Y-75472450D01*
X158129721Y-75211440D01*
X157695679Y-75031654D01*
X157234902Y-74940000D01*
X156765098Y-74940000D01*
X156304321Y-75031654D01*
X155870279Y-75211440D01*
X155479651Y-75472450D01*
X155147450Y-75804651D01*
X154886440Y-76195279D01*
X154706654Y-76629321D01*
X154615000Y-77090098D01*
X137511471Y-77090098D01*
X137577317Y-77054903D01*
X137864345Y-76819345D01*
X138099903Y-76532317D01*
X138274939Y-76204848D01*
X138382725Y-75849524D01*
X138419120Y-75480000D01*
X138382725Y-75110476D01*
X138274939Y-74755152D01*
X138099903Y-74427683D01*
X137864345Y-74140655D01*
X137577317Y-73905097D01*
X137249848Y-73730061D01*
X136894524Y-73622275D01*
X136617597Y-73595000D01*
X134932403Y-73595000D01*
X134655476Y-73622275D01*
X134300152Y-73730061D01*
X133972683Y-73905097D01*
X133685655Y-74140655D01*
X133450097Y-74427683D01*
X133275061Y-74755152D01*
X133167275Y-75110476D01*
X133130880Y-75480000D01*
X117169120Y-75480000D01*
X117132725Y-75110476D01*
X117024939Y-74755152D01*
X116849903Y-74427683D01*
X116614345Y-74140655D01*
X116327317Y-73905097D01*
X115999848Y-73730061D01*
X115644524Y-73622275D01*
X115367597Y-73595000D01*
X113682403Y-73595000D01*
X113405476Y-73622275D01*
X113050152Y-73730061D01*
X112722683Y-73905097D01*
X112435655Y-74140655D01*
X112200097Y-74427683D01*
X112025061Y-74755152D01*
X111917275Y-75110476D01*
X111880880Y-75480000D01*
X98527899Y-75480000D01*
X98520349Y-75472450D01*
X98129721Y-75211440D01*
X97695679Y-75031654D01*
X97234902Y-74940000D01*
X96765098Y-74940000D01*
X96304321Y-75031654D01*
X95870279Y-75211440D01*
X95479651Y-75472450D01*
X95147450Y-75804651D01*
X94886440Y-76195279D01*
X94706654Y-76629321D01*
X94615000Y-77090098D01*
X91168282Y-77090098D01*
X100273381Y-67985000D01*
X153726620Y-67985000D01*
X166340000Y-80598381D01*
G37*
X166340000Y-80598381D02*
X166340001Y-133051618D01*
X152726620Y-146665000D01*
X101273381Y-146665000D01*
X91698479Y-137090098D01*
X94615000Y-137090098D01*
X94615000Y-137559902D01*
X94706654Y-138020679D01*
X94886440Y-138454721D01*
X95147450Y-138845349D01*
X95479651Y-139177550D01*
X95870279Y-139438560D01*
X96304321Y-139618346D01*
X96765098Y-139710000D01*
X97234902Y-139710000D01*
X97695679Y-139618346D01*
X98129721Y-139438560D01*
X98520349Y-139177550D01*
X98558254Y-139139645D01*
X111937305Y-139139645D01*
X111984886Y-139324025D01*
X112137122Y-139661653D01*
X112352301Y-139963094D01*
X112622153Y-140216763D01*
X112936309Y-140412912D01*
X113282695Y-140544004D01*
X113648000Y-140605000D01*
X114398000Y-140605000D01*
X114398000Y-138847000D01*
X114652000Y-138847000D01*
X114652000Y-140605000D01*
X115402000Y-140605000D01*
X115767305Y-140544004D01*
X116113691Y-140412912D01*
X116427847Y-140216763D01*
X116697699Y-139963094D01*
X116912878Y-139661653D01*
X117065114Y-139324025D01*
X117112695Y-139139645D01*
X133187305Y-139139645D01*
X133234886Y-139324025D01*
X133387122Y-139661653D01*
X133602301Y-139963094D01*
X133872153Y-140216763D01*
X134186309Y-140412912D01*
X134532695Y-140544004D01*
X134898000Y-140605000D01*
X135648000Y-140605000D01*
X135648000Y-138847000D01*
X135902000Y-138847000D01*
X135902000Y-140605000D01*
X136652000Y-140605000D01*
X137017305Y-140544004D01*
X137363691Y-140412912D01*
X137677847Y-140216763D01*
X137947699Y-139963094D01*
X138162878Y-139661653D01*
X138315114Y-139324025D01*
X138362695Y-139139645D01*
X138246572Y-138847000D01*
X135902000Y-138847000D01*
X135648000Y-138847000D01*
X133303428Y-138847000D01*
X133187305Y-139139645D01*
X117112695Y-139139645D01*
X116996572Y-138847000D01*
X114652000Y-138847000D01*
X114398000Y-138847000D01*
X112053428Y-138847000D01*
X111937305Y-139139645D01*
X98558254Y-139139645D01*
X98852550Y-138845349D01*
X99113560Y-138454721D01*
X99177500Y-138300355D01*
X111937305Y-138300355D01*
X112053428Y-138593000D01*
X114398000Y-138593000D01*
X114398000Y-136835000D01*
X114652000Y-136835000D01*
X114652000Y-138593000D01*
X116996572Y-138593000D01*
X117112695Y-138300355D01*
X133187305Y-138300355D01*
X133303428Y-138593000D01*
X135648000Y-138593000D01*
X135648000Y-136835000D01*
X135902000Y-136835000D01*
X135902000Y-138593000D01*
X138246572Y-138593000D01*
X138362695Y-138300355D01*
X138315114Y-138115975D01*
X138162878Y-137778347D01*
X137947699Y-137476906D01*
X137677847Y-137223237D01*
X137464610Y-137090098D01*
X154615000Y-137090098D01*
X154615000Y-137559902D01*
X154706654Y-138020679D01*
X154886440Y-138454721D01*
X155147450Y-138845349D01*
X155479651Y-139177550D01*
X155870279Y-139438560D01*
X156304321Y-139618346D01*
X156765098Y-139710000D01*
X157234902Y-139710000D01*
X157695679Y-139618346D01*
X158129721Y-139438560D01*
X158520349Y-139177550D01*
X158852550Y-138845349D01*
X159113560Y-138454721D01*
X159293346Y-138020679D01*
X159385000Y-137559902D01*
X159385000Y-137090098D01*
X159293346Y-136629321D01*
X159113560Y-136195279D01*
X158852550Y-135804651D01*
X158520349Y-135472450D01*
X158129721Y-135211440D01*
X157695679Y-135031654D01*
X157234902Y-134940000D01*
X156765098Y-134940000D01*
X156304321Y-135031654D01*
X155870279Y-135211440D01*
X155479651Y-135472450D01*
X155147450Y-135804651D01*
X154886440Y-136195279D01*
X154706654Y-136629321D01*
X154615000Y-137090098D01*
X137464610Y-137090098D01*
X137363691Y-137027088D01*
X137017305Y-136895996D01*
X136652000Y-136835000D01*
X135902000Y-136835000D01*
X135648000Y-136835000D01*
X134898000Y-136835000D01*
X134532695Y-136895996D01*
X134186309Y-137027088D01*
X133872153Y-137223237D01*
X133602301Y-137476906D01*
X133387122Y-137778347D01*
X133234886Y-138115975D01*
X133187305Y-138300355D01*
X117112695Y-138300355D01*
X117065114Y-138115975D01*
X116912878Y-137778347D01*
X116697699Y-137476906D01*
X116427847Y-137223237D01*
X116113691Y-137027088D01*
X115767305Y-136895996D01*
X115402000Y-136835000D01*
X114652000Y-136835000D01*
X114398000Y-136835000D01*
X113648000Y-136835000D01*
X113282695Y-136895996D01*
X112936309Y-137027088D01*
X112622153Y-137223237D01*
X112352301Y-137476906D01*
X112137122Y-137778347D01*
X111984886Y-138115975D01*
X111937305Y-138300355D01*
X99177500Y-138300355D01*
X99293346Y-138020679D01*
X99385000Y-137559902D01*
X99385000Y-137090098D01*
X99293346Y-136629321D01*
X99113560Y-136195279D01*
X98852550Y-135804651D01*
X98520349Y-135472450D01*
X98129721Y-135211440D01*
X97695679Y-135031654D01*
X97234902Y-134940000D01*
X96765098Y-134940000D01*
X96304321Y-135031654D01*
X95870279Y-135211440D01*
X95479651Y-135472450D01*
X95147450Y-135804651D01*
X94886440Y-136195279D01*
X94706654Y-136629321D01*
X94615000Y-137090098D01*
X91698479Y-137090098D01*
X87660000Y-133051620D01*
X87660000Y-131519645D01*
X109397305Y-131519645D01*
X109444886Y-131704025D01*
X109597122Y-132041653D01*
X109812301Y-132343094D01*
X110082153Y-132596763D01*
X110396309Y-132792912D01*
X110742695Y-132924004D01*
X111108000Y-132985000D01*
X111858000Y-132985000D01*
X111858000Y-131227000D01*
X112112000Y-131227000D01*
X112112000Y-132985000D01*
X112862000Y-132985000D01*
X113227305Y-132924004D01*
X113573691Y-132792912D01*
X113887847Y-132596763D01*
X114157699Y-132343094D01*
X114372878Y-132041653D01*
X114525000Y-131704278D01*
X114677122Y-132041653D01*
X114892301Y-132343094D01*
X115162153Y-132596763D01*
X115476309Y-132792912D01*
X115822695Y-132924004D01*
X116188000Y-132985000D01*
X116938000Y-132985000D01*
X116938000Y-131227000D01*
X117192000Y-131227000D01*
X117192000Y-132985000D01*
X117942000Y-132985000D01*
X118307305Y-132924004D01*
X118653691Y-132792912D01*
X118967847Y-132596763D01*
X119237699Y-132343094D01*
X119452878Y-132041653D01*
X119605114Y-131704025D01*
X119652695Y-131519645D01*
X130647305Y-131519645D01*
X130694886Y-131704025D01*
X130847122Y-132041653D01*
X131062301Y-132343094D01*
X131332153Y-132596763D01*
X131646309Y-132792912D01*
X131992695Y-132924004D01*
X132358000Y-132985000D01*
X133108000Y-132985000D01*
X133108000Y-131227000D01*
X133362000Y-131227000D01*
X133362000Y-132985000D01*
X134112000Y-132985000D01*
X134477305Y-132924004D01*
X134823691Y-132792912D01*
X135137847Y-132596763D01*
X135407699Y-132343094D01*
X135622878Y-132041653D01*
X135775000Y-131704278D01*
X135927122Y-132041653D01*
X136142301Y-132343094D01*
X136412153Y-132596763D01*
X136726309Y-132792912D01*
X137072695Y-132924004D01*
X137438000Y-132985000D01*
X138188000Y-132985000D01*
X138188000Y-131227000D01*
X138442000Y-131227000D01*
X138442000Y-132985000D01*
X139192000Y-132985000D01*
X139557305Y-132924004D01*
X139903691Y-132792912D01*
X140217847Y-132596763D01*
X140487699Y-132343094D01*
X140702878Y-132041653D01*
X140855114Y-131704025D01*
X140902695Y-131519645D01*
X140786572Y-131227000D01*
X138442000Y-131227000D01*
X138188000Y-131227000D01*
X135843428Y-131227000D01*
X135775000Y-131399447D01*
X135706572Y-131227000D01*
X133362000Y-131227000D01*
X133108000Y-131227000D01*
X130763428Y-131227000D01*
X130647305Y-131519645D01*
X119652695Y-131519645D01*
X119536572Y-131227000D01*
X117192000Y-131227000D01*
X116938000Y-131227000D01*
X114593428Y-131227000D01*
X114525000Y-131399447D01*
X114456572Y-131227000D01*
X112112000Y-131227000D01*
X111858000Y-131227000D01*
X109513428Y-131227000D01*
X109397305Y-131519645D01*
X87660000Y-131519645D01*
X87660000Y-130680355D01*
X109397305Y-130680355D01*
X109513428Y-130973000D01*
X111858000Y-130973000D01*
X111858000Y-129215000D01*
X112112000Y-129215000D01*
X112112000Y-130973000D01*
X114456572Y-130973000D01*
X114525000Y-130800553D01*
X114593428Y-130973000D01*
X116938000Y-130973000D01*
X116938000Y-129215000D01*
X117192000Y-129215000D01*
X117192000Y-130973000D01*
X119536572Y-130973000D01*
X119652695Y-130680355D01*
X130647305Y-130680355D01*
X130763428Y-130973000D01*
X133108000Y-130973000D01*
X133108000Y-129215000D01*
X133362000Y-129215000D01*
X133362000Y-130973000D01*
X135706572Y-130973000D01*
X135775000Y-130800553D01*
X135843428Y-130973000D01*
X138188000Y-130973000D01*
X138188000Y-129215000D01*
X138442000Y-129215000D01*
X138442000Y-130973000D01*
X140786572Y-130973000D01*
X140902695Y-130680355D01*
X140855114Y-130495975D01*
X140702878Y-130158347D01*
X140487699Y-129856906D01*
X140217847Y-129603237D01*
X139903691Y-129407088D01*
X139557305Y-129275996D01*
X139192000Y-129215000D01*
X138442000Y-129215000D01*
X138188000Y-129215000D01*
X137438000Y-129215000D01*
X137072695Y-129275996D01*
X136726309Y-129407088D01*
X136412153Y-129603237D01*
X136142301Y-129856906D01*
X135927122Y-130158347D01*
X135775000Y-130495722D01*
X135622878Y-130158347D01*
X135407699Y-129856906D01*
X135137847Y-129603237D01*
X134823691Y-129407088D01*
X134477305Y-129275996D01*
X134112000Y-129215000D01*
X133362000Y-129215000D01*
X133108000Y-129215000D01*
X132358000Y-129215000D01*
X131992695Y-129275996D01*
X131646309Y-129407088D01*
X131332153Y-129603237D01*
X131062301Y-129856906D01*
X130847122Y-130158347D01*
X130694886Y-130495975D01*
X130647305Y-130680355D01*
X119652695Y-130680355D01*
X119605114Y-130495975D01*
X119452878Y-130158347D01*
X119237699Y-129856906D01*
X118967847Y-129603237D01*
X118653691Y-129407088D01*
X118307305Y-129275996D01*
X117942000Y-129215000D01*
X117192000Y-129215000D01*
X116938000Y-129215000D01*
X116188000Y-129215000D01*
X115822695Y-129275996D01*
X115476309Y-129407088D01*
X115162153Y-129603237D01*
X114892301Y-129856906D01*
X114677122Y-130158347D01*
X114525000Y-130495722D01*
X114372878Y-130158347D01*
X114157699Y-129856906D01*
X113887847Y-129603237D01*
X113573691Y-129407088D01*
X113227305Y-129275996D01*
X112862000Y-129215000D01*
X112112000Y-129215000D01*
X111858000Y-129215000D01*
X111108000Y-129215000D01*
X110742695Y-129275996D01*
X110396309Y-129407088D01*
X110082153Y-129603237D01*
X109812301Y-129856906D01*
X109597122Y-130158347D01*
X109444886Y-130495975D01*
X109397305Y-130680355D01*
X87660000Y-130680355D01*
X87660000Y-114073061D01*
X89215000Y-114073061D01*
X89215000Y-114276939D01*
X89254774Y-114476898D01*
X89332795Y-114665256D01*
X89446063Y-114834774D01*
X89590226Y-114978937D01*
X89759744Y-115092205D01*
X89948102Y-115170226D01*
X90148061Y-115210000D01*
X90351939Y-115210000D01*
X90551898Y-115170226D01*
X90740256Y-115092205D01*
X90909774Y-114978937D01*
X90955500Y-114933211D01*
X91048986Y-114924003D01*
X91192247Y-114880546D01*
X91324276Y-114809974D01*
X91440001Y-114715001D01*
X91463804Y-114685997D01*
X93137043Y-113012758D01*
X93154774Y-113101898D01*
X93232795Y-113290256D01*
X93346063Y-113459774D01*
X93490226Y-113603937D01*
X93659744Y-113717205D01*
X93848102Y-113795226D01*
X94048061Y-113835000D01*
X94110199Y-113835000D01*
X96440202Y-116165004D01*
X96464000Y-116194002D01*
X96492998Y-116217800D01*
X96579724Y-116288975D01*
X96696368Y-116351323D01*
X96711754Y-116359547D01*
X96855015Y-116403004D01*
X96966668Y-116414001D01*
X96966678Y-116414001D01*
X97004001Y-116417677D01*
X97041324Y-116414001D01*
X97902856Y-116414001D01*
X97874084Y-116457062D01*
X97769378Y-116709844D01*
X97716000Y-116978195D01*
X97716000Y-117251805D01*
X97759036Y-117468161D01*
X95287197Y-119940000D01*
X93403711Y-119940000D01*
X93359774Y-119896063D01*
X93190256Y-119782795D01*
X93001898Y-119704774D01*
X92801939Y-119665000D01*
X92598061Y-119665000D01*
X92398102Y-119704774D01*
X92209744Y-119782795D01*
X92040226Y-119896063D01*
X91896063Y-120040226D01*
X91782795Y-120209744D01*
X91704774Y-120398102D01*
X91665000Y-120598061D01*
X91665000Y-120801939D01*
X91704774Y-121001898D01*
X91782795Y-121190256D01*
X91896063Y-121359774D01*
X92040226Y-121503937D01*
X92209744Y-121617205D01*
X92398102Y-121695226D01*
X92598061Y-121735000D01*
X92801939Y-121735000D01*
X93001898Y-121695226D01*
X93190256Y-121617205D01*
X93359774Y-121503937D01*
X93403711Y-121460000D01*
X95564676Y-121460000D01*
X95601998Y-121463676D01*
X95639320Y-121460000D01*
X95639331Y-121460000D01*
X95750984Y-121449003D01*
X95894245Y-121405546D01*
X96026274Y-121334974D01*
X96141999Y-121240001D01*
X96165802Y-121210997D01*
X96781799Y-120595000D01*
X147746928Y-120595000D01*
X147746928Y-124555000D01*
X147759188Y-124679482D01*
X147795498Y-124799180D01*
X147854463Y-124909494D01*
X147933815Y-125006185D01*
X148030506Y-125085537D01*
X148140820Y-125144502D01*
X148260518Y-125180812D01*
X148385000Y-125193072D01*
X150365000Y-125193072D01*
X150489482Y-125180812D01*
X150609180Y-125144502D01*
X150719494Y-125085537D01*
X150816185Y-125006185D01*
X150895537Y-124909494D01*
X150954502Y-124799180D01*
X150990812Y-124679482D01*
X151003072Y-124555000D01*
X151003072Y-121505177D01*
X152750000Y-121505177D01*
X152750001Y-123644824D01*
X152773514Y-123883556D01*
X152866433Y-124189869D01*
X153017326Y-124472170D01*
X153220393Y-124719608D01*
X153467831Y-124922675D01*
X153750132Y-125073568D01*
X154056445Y-125166487D01*
X154375000Y-125197862D01*
X154693556Y-125166487D01*
X154999869Y-125073568D01*
X155282170Y-124922675D01*
X155529608Y-124719608D01*
X155732675Y-124472170D01*
X155883568Y-124189869D01*
X155976487Y-123883556D01*
X156000000Y-123644824D01*
X156000000Y-121505176D01*
X155976487Y-121266444D01*
X155883568Y-120960131D01*
X155732675Y-120677830D01*
X155529608Y-120430392D01*
X155282169Y-120227325D01*
X154999868Y-120076432D01*
X154693555Y-119983513D01*
X154375000Y-119952138D01*
X154056444Y-119983513D01*
X153750131Y-120076432D01*
X153467830Y-120227325D01*
X153220392Y-120430392D01*
X153017325Y-120677831D01*
X152866432Y-120960132D01*
X152773513Y-121266445D01*
X152750000Y-121505177D01*
X151003072Y-121505177D01*
X151003072Y-120595000D01*
X150990812Y-120470518D01*
X150954502Y-120350820D01*
X150895537Y-120240506D01*
X150816185Y-120143815D01*
X150719494Y-120064463D01*
X150609180Y-120005498D01*
X150489482Y-119969188D01*
X150365000Y-119956928D01*
X148385000Y-119956928D01*
X148260518Y-119969188D01*
X148140820Y-120005498D01*
X148030506Y-120064463D01*
X147933815Y-120143815D01*
X147854463Y-120240506D01*
X147795498Y-120350820D01*
X147759188Y-120470518D01*
X147746928Y-120595000D01*
X96781799Y-120595000D01*
X98888627Y-118488173D01*
X98968195Y-118504000D01*
X99241805Y-118504000D01*
X99510156Y-118450622D01*
X99762938Y-118345916D01*
X99990436Y-118193907D01*
X100183907Y-118000436D01*
X100335916Y-117772938D01*
X100375000Y-117678581D01*
X100414084Y-117772938D01*
X100566093Y-118000436D01*
X100759564Y-118193907D01*
X100987062Y-118345916D01*
X101239844Y-118450622D01*
X101508195Y-118504000D01*
X101781805Y-118504000D01*
X102050156Y-118450622D01*
X102302938Y-118345916D01*
X102530436Y-118193907D01*
X102723907Y-118000436D01*
X102875916Y-117772938D01*
X102980622Y-117520156D01*
X103034000Y-117251805D01*
X103034000Y-116978195D01*
X102980622Y-116709844D01*
X102875916Y-116457062D01*
X102723907Y-116229564D01*
X102530436Y-116036093D01*
X102302938Y-115884084D01*
X102208581Y-115845000D01*
X102302938Y-115805916D01*
X102530436Y-115653907D01*
X102723907Y-115460436D01*
X102875916Y-115232938D01*
X102980622Y-114980156D01*
X103034000Y-114711805D01*
X103034000Y-114438195D01*
X103004569Y-114290233D01*
X103661008Y-113633795D01*
X103690001Y-113610001D01*
X103713795Y-113581008D01*
X103713799Y-113581004D01*
X103784973Y-113494277D01*
X103784974Y-113494276D01*
X103855546Y-113362247D01*
X103899003Y-113218986D01*
X103910000Y-113107333D01*
X103910000Y-113107324D01*
X103913676Y-113070001D01*
X103910000Y-113032678D01*
X103910000Y-112239444D01*
X103948102Y-112255226D01*
X103998226Y-112265196D01*
X104047106Y-112280024D01*
X104097942Y-112285031D01*
X104148061Y-112295000D01*
X104199162Y-112295000D01*
X104250000Y-112300007D01*
X104300838Y-112295000D01*
X104351939Y-112295000D01*
X104402057Y-112285031D01*
X104452895Y-112280024D01*
X104501777Y-112265196D01*
X104551898Y-112255226D01*
X104599113Y-112235669D01*
X104647993Y-112220841D01*
X104693042Y-112196762D01*
X104740256Y-112177205D01*
X104782746Y-112148814D01*
X104827797Y-112124734D01*
X104867284Y-112092328D01*
X104909774Y-112063937D01*
X104945908Y-112027803D01*
X104985396Y-111995396D01*
X105017803Y-111955908D01*
X105053937Y-111919774D01*
X105082328Y-111877284D01*
X105114734Y-111837797D01*
X105138814Y-111792746D01*
X105167205Y-111750256D01*
X105186762Y-111703042D01*
X105210841Y-111657993D01*
X105225669Y-111609113D01*
X105245226Y-111561898D01*
X105255196Y-111511777D01*
X105270024Y-111462895D01*
X105275031Y-111412057D01*
X105285000Y-111361939D01*
X105285000Y-109965150D01*
X105290007Y-109914315D01*
X105285000Y-109863477D01*
X105270024Y-109711420D01*
X105210841Y-109516322D01*
X105147651Y-109398102D01*
X105114734Y-109336517D01*
X105017803Y-109218407D01*
X104985396Y-109178919D01*
X104945908Y-109146512D01*
X103610000Y-107810605D01*
X103610000Y-106736280D01*
X103945875Y-106736280D01*
X103945875Y-106940158D01*
X103985649Y-107140117D01*
X104063670Y-107328475D01*
X104176938Y-107497993D01*
X104321101Y-107642156D01*
X104490619Y-107755424D01*
X104678977Y-107833445D01*
X104878936Y-107873219D01*
X104929745Y-107873219D01*
X105028901Y-108021617D01*
X105173064Y-108165780D01*
X105342582Y-108279048D01*
X105530940Y-108357069D01*
X105730899Y-108396843D01*
X105934777Y-108396843D01*
X106134736Y-108357069D01*
X106323094Y-108279048D01*
X106492612Y-108165780D01*
X106636775Y-108021617D01*
X106750043Y-107852099D01*
X106828064Y-107663741D01*
X106867838Y-107463782D01*
X106867838Y-107401645D01*
X106936002Y-107333481D01*
X106965001Y-107309682D01*
X107059974Y-107193957D01*
X107130546Y-107061928D01*
X107174003Y-106918667D01*
X107185000Y-106807014D01*
X107188677Y-106769681D01*
X107185000Y-106732348D01*
X107185000Y-104678711D01*
X107228937Y-104634774D01*
X107342205Y-104465256D01*
X107420226Y-104276898D01*
X107460000Y-104076939D01*
X107460000Y-103873061D01*
X107420226Y-103673102D01*
X107342205Y-103484744D01*
X107228937Y-103315226D01*
X107084774Y-103171063D01*
X106915256Y-103057795D01*
X106726898Y-102979774D01*
X106526939Y-102940000D01*
X106323061Y-102940000D01*
X106123102Y-102979774D01*
X105934744Y-103057795D01*
X105765226Y-103171063D01*
X105621063Y-103315226D01*
X105507795Y-103484744D01*
X105429774Y-103673102D01*
X105390000Y-103873061D01*
X105390000Y-103916267D01*
X105301898Y-103879774D01*
X105101939Y-103840000D01*
X104898061Y-103840000D01*
X104698102Y-103879774D01*
X104509744Y-103957795D01*
X104340226Y-104071063D01*
X104196063Y-104215226D01*
X104082795Y-104384744D01*
X104004774Y-104573102D01*
X103965000Y-104773061D01*
X103965000Y-104976939D01*
X104004774Y-105176898D01*
X104082795Y-105365256D01*
X104196063Y-105534774D01*
X104240000Y-105578711D01*
X104240001Y-106115382D01*
X104176938Y-106178445D01*
X104063670Y-106347963D01*
X103985649Y-106536321D01*
X103945875Y-106736280D01*
X103610000Y-106736280D01*
X103610000Y-101548061D01*
X103600031Y-101497943D01*
X103595024Y-101447105D01*
X103580196Y-101398223D01*
X103570226Y-101348102D01*
X103550669Y-101300887D01*
X103535841Y-101252007D01*
X103511762Y-101206958D01*
X103492205Y-101159744D01*
X103463814Y-101117254D01*
X103439734Y-101072203D01*
X103407328Y-101032716D01*
X103378937Y-100990226D01*
X103342803Y-100954092D01*
X103310396Y-100914604D01*
X103270908Y-100882197D01*
X103234774Y-100846063D01*
X103192284Y-100817672D01*
X103152797Y-100785266D01*
X103107747Y-100761186D01*
X103065256Y-100732795D01*
X103018039Y-100713237D01*
X102972992Y-100689159D01*
X102924116Y-100674332D01*
X102876898Y-100654774D01*
X102826774Y-100644804D01*
X102777894Y-100629976D01*
X102727058Y-100624969D01*
X102676939Y-100615000D01*
X102625838Y-100615000D01*
X102575000Y-100609993D01*
X102524162Y-100615000D01*
X102473061Y-100615000D01*
X102422943Y-100624969D01*
X102372105Y-100629976D01*
X102323223Y-100644804D01*
X102273102Y-100654774D01*
X102225887Y-100674331D01*
X102177007Y-100689159D01*
X102131958Y-100713238D01*
X102084744Y-100732795D01*
X102042254Y-100761186D01*
X101997203Y-100785266D01*
X101957716Y-100817672D01*
X101915226Y-100846063D01*
X101879092Y-100882197D01*
X101839604Y-100914604D01*
X101807197Y-100954092D01*
X101771063Y-100990226D01*
X101742672Y-101032716D01*
X101710266Y-101072203D01*
X101686186Y-101117253D01*
X101657795Y-101159744D01*
X101638237Y-101206961D01*
X101614159Y-101252008D01*
X101599332Y-101300884D01*
X101579774Y-101348102D01*
X101569804Y-101398226D01*
X101554976Y-101447106D01*
X101549969Y-101497942D01*
X101540000Y-101548061D01*
X101540000Y-101599163D01*
X101540001Y-108188477D01*
X101534994Y-108239315D01*
X101554977Y-108442210D01*
X101614160Y-108637308D01*
X101710266Y-108817112D01*
X101773606Y-108894291D01*
X101839605Y-108974711D01*
X101879092Y-109007117D01*
X102429132Y-109557157D01*
X102346063Y-109640226D01*
X102232795Y-109809744D01*
X102154774Y-109998102D01*
X102115000Y-110198061D01*
X102115000Y-110401939D01*
X102154774Y-110601898D01*
X102225182Y-110771876D01*
X102050156Y-110699378D01*
X101781805Y-110646000D01*
X101508195Y-110646000D01*
X101239844Y-110699378D01*
X101110000Y-110753161D01*
X101110000Y-110203711D01*
X101153937Y-110159774D01*
X101267205Y-109990256D01*
X101345226Y-109801898D01*
X101385000Y-109601939D01*
X101385000Y-109398061D01*
X101345226Y-109198102D01*
X101267205Y-109009744D01*
X101153937Y-108840226D01*
X101009774Y-108696063D01*
X100840256Y-108582795D01*
X100651898Y-108504774D01*
X100451939Y-108465000D01*
X100248061Y-108465000D01*
X100048102Y-108504774D01*
X99859744Y-108582795D01*
X99690226Y-108696063D01*
X99546063Y-108840226D01*
X99432795Y-109009744D01*
X99354774Y-109198102D01*
X99315000Y-109398061D01*
X99315000Y-109601939D01*
X99354774Y-109801898D01*
X99432795Y-109990256D01*
X99546063Y-110159774D01*
X99590001Y-110203712D01*
X99590001Y-110728227D01*
X99571574Y-110719574D01*
X99305982Y-110653826D01*
X99032666Y-110641155D01*
X98762130Y-110682049D01*
X98504771Y-110774937D01*
X98390765Y-110835873D01*
X98324754Y-111075149D01*
X99105000Y-111855395D01*
X99119143Y-111841253D01*
X99298748Y-112020858D01*
X99284605Y-112035000D01*
X99298748Y-112049143D01*
X99119143Y-112228748D01*
X99105000Y-112214605D01*
X98324754Y-112994851D01*
X98390765Y-113234127D01*
X98541563Y-113304940D01*
X98447062Y-113344084D01*
X98219564Y-113496093D01*
X98026093Y-113689564D01*
X97942280Y-113815000D01*
X97814803Y-113815000D01*
X96107136Y-112107334D01*
X97711155Y-112107334D01*
X97752049Y-112377870D01*
X97844937Y-112635229D01*
X97905873Y-112749235D01*
X98145149Y-112815246D01*
X98925395Y-112035000D01*
X98145149Y-111254754D01*
X97905873Y-111320765D01*
X97789574Y-111568426D01*
X97723826Y-111834018D01*
X97711155Y-112107334D01*
X96107136Y-112107334D01*
X95035000Y-111035199D01*
X95035000Y-110973061D01*
X94995226Y-110773102D01*
X94957686Y-110682473D01*
X95115256Y-110617205D01*
X95284774Y-110503937D01*
X95428937Y-110359774D01*
X95542205Y-110190256D01*
X95620226Y-110001898D01*
X95660000Y-109801939D01*
X95660000Y-109739802D01*
X95906899Y-109492903D01*
X96388259Y-109492903D01*
X96431217Y-109535861D01*
X96348134Y-109552387D01*
X96159776Y-109630408D01*
X95990258Y-109743676D01*
X95846095Y-109887839D01*
X95732827Y-110057357D01*
X95654806Y-110245715D01*
X95615032Y-110445674D01*
X95615032Y-110649552D01*
X95654806Y-110849511D01*
X95732827Y-111037869D01*
X95846095Y-111207387D01*
X95990258Y-111351550D01*
X96159776Y-111464818D01*
X96348134Y-111542839D01*
X96548093Y-111582613D01*
X96751971Y-111582613D01*
X96951930Y-111542839D01*
X97140288Y-111464818D01*
X97309806Y-111351550D01*
X97453969Y-111207387D01*
X97567237Y-111037869D01*
X97645258Y-110849511D01*
X97685032Y-110649552D01*
X97685032Y-110587414D01*
X98336003Y-109936444D01*
X98365001Y-109912646D01*
X98459974Y-109796921D01*
X98530546Y-109664892D01*
X98574003Y-109521631D01*
X98585000Y-109409978D01*
X98585000Y-109409970D01*
X98588676Y-109372645D01*
X98585000Y-109335320D01*
X98585000Y-107946637D01*
X98588676Y-107909314D01*
X98585000Y-107871991D01*
X98585000Y-107871982D01*
X98574003Y-107760329D01*
X98530546Y-107617068D01*
X98459974Y-107485039D01*
X98365001Y-107369314D01*
X98336003Y-107345516D01*
X98004488Y-107014002D01*
X97980686Y-106984999D01*
X97864961Y-106890026D01*
X97732932Y-106819454D01*
X97589724Y-106776013D01*
X97534774Y-106721063D01*
X97365256Y-106607795D01*
X97176898Y-106529774D01*
X96976939Y-106490000D01*
X96773061Y-106490000D01*
X96573102Y-106529774D01*
X96384744Y-106607795D01*
X96215226Y-106721063D01*
X96071063Y-106865226D01*
X95957795Y-107034744D01*
X95879774Y-107223102D01*
X95840000Y-107423061D01*
X95840000Y-107626939D01*
X95879774Y-107826898D01*
X95940252Y-107972903D01*
X95629422Y-107972903D01*
X95592097Y-107969227D01*
X95554772Y-107972903D01*
X95554764Y-107972903D01*
X95443111Y-107983900D01*
X95299850Y-108027357D01*
X95167821Y-108097929D01*
X95052096Y-108192902D01*
X95028298Y-108221900D01*
X94585198Y-108665000D01*
X94523061Y-108665000D01*
X94323102Y-108704774D01*
X94134744Y-108782795D01*
X93965226Y-108896063D01*
X93821063Y-109040226D01*
X93707795Y-109209744D01*
X93629774Y-109398102D01*
X93590000Y-109598061D01*
X93590000Y-109801939D01*
X93629774Y-110001898D01*
X93667314Y-110092527D01*
X93509744Y-110157795D01*
X93340226Y-110271063D01*
X93196063Y-110415226D01*
X93082795Y-110584744D01*
X93004774Y-110773102D01*
X92965000Y-110973061D01*
X92965000Y-111035198D01*
X90741544Y-113258655D01*
X90740256Y-113257795D01*
X90551898Y-113179774D01*
X90351939Y-113140000D01*
X90148061Y-113140000D01*
X89948102Y-113179774D01*
X89759744Y-113257795D01*
X89590226Y-113371063D01*
X89446063Y-113515226D01*
X89332795Y-113684744D01*
X89254774Y-113873102D01*
X89215000Y-114073061D01*
X87660000Y-114073061D01*
X87660000Y-96323061D01*
X142840000Y-96323061D01*
X142840000Y-96526939D01*
X142879774Y-96726898D01*
X142957795Y-96915256D01*
X143071063Y-97084774D01*
X143186289Y-97200000D01*
X143096063Y-97290226D01*
X142982795Y-97459744D01*
X142904774Y-97648102D01*
X142865000Y-97848061D01*
X142865000Y-98051939D01*
X142904774Y-98251898D01*
X142982795Y-98440256D01*
X143096063Y-98609774D01*
X143240226Y-98753937D01*
X143409744Y-98867205D01*
X143598102Y-98945226D01*
X143798061Y-98985000D01*
X144001939Y-98985000D01*
X144201898Y-98945226D01*
X144390256Y-98867205D01*
X144559774Y-98753937D01*
X144603711Y-98710000D01*
X147212678Y-98710000D01*
X147250000Y-98713676D01*
X147287322Y-98710000D01*
X147287333Y-98710000D01*
X147398986Y-98699003D01*
X147542247Y-98655546D01*
X147674276Y-98584974D01*
X147790001Y-98490001D01*
X147813803Y-98460998D01*
X148089801Y-98185000D01*
X148151939Y-98185000D01*
X148351898Y-98145226D01*
X148540256Y-98067205D01*
X148709774Y-97953937D01*
X148853937Y-97809774D01*
X148967205Y-97640256D01*
X149045226Y-97451898D01*
X149085000Y-97251939D01*
X149085000Y-97080968D01*
X149124276Y-97059974D01*
X149240001Y-96965001D01*
X149263803Y-96935998D01*
X149389801Y-96810000D01*
X149451939Y-96810000D01*
X149651898Y-96770226D01*
X149840256Y-96692205D01*
X150009774Y-96578937D01*
X150153937Y-96434774D01*
X150267205Y-96265256D01*
X150345226Y-96076898D01*
X150385000Y-95876939D01*
X150385000Y-95673061D01*
X150345226Y-95473102D01*
X150267205Y-95284744D01*
X150153937Y-95115226D01*
X150009774Y-94971063D01*
X149937934Y-94923061D01*
X151915000Y-94923061D01*
X151915000Y-95126939D01*
X151954774Y-95326898D01*
X152032795Y-95515256D01*
X152146063Y-95684774D01*
X152290226Y-95828937D01*
X152459744Y-95942205D01*
X152648102Y-96020226D01*
X152848061Y-96060000D01*
X153051939Y-96060000D01*
X153251898Y-96020226D01*
X153440256Y-95942205D01*
X153609774Y-95828937D01*
X153753937Y-95684774D01*
X153867205Y-95515256D01*
X153945226Y-95326898D01*
X153958533Y-95260000D01*
X155661715Y-95260000D01*
X155784744Y-95342205D01*
X155973102Y-95420226D01*
X156173061Y-95460000D01*
X156376939Y-95460000D01*
X156576898Y-95420226D01*
X156765256Y-95342205D01*
X156934774Y-95228937D01*
X157078937Y-95084774D01*
X157192205Y-94915256D01*
X157270226Y-94726898D01*
X157310000Y-94526939D01*
X157310000Y-94323061D01*
X157270226Y-94123102D01*
X157192205Y-93934744D01*
X157078937Y-93765226D01*
X156934774Y-93621063D01*
X156765256Y-93507795D01*
X156576898Y-93429774D01*
X156376939Y-93390000D01*
X156173061Y-93390000D01*
X155973102Y-93429774D01*
X155784744Y-93507795D01*
X155661715Y-93590000D01*
X153591018Y-93590000D01*
X153549999Y-93585960D01*
X153508981Y-93590000D01*
X153386311Y-93602082D01*
X153228913Y-93649828D01*
X153083854Y-93727364D01*
X152956709Y-93831709D01*
X152930558Y-93863574D01*
X152793225Y-94000908D01*
X152648102Y-94029774D01*
X152459744Y-94107795D01*
X152290226Y-94221063D01*
X152146063Y-94365226D01*
X152032795Y-94534744D01*
X151954774Y-94723102D01*
X151915000Y-94923061D01*
X149937934Y-94923061D01*
X149840256Y-94857795D01*
X149651898Y-94779774D01*
X149451939Y-94740000D01*
X149248061Y-94740000D01*
X149048102Y-94779774D01*
X148859744Y-94857795D01*
X148690226Y-94971063D01*
X148546063Y-95115226D01*
X148432795Y-95284744D01*
X148354774Y-95473102D01*
X148316603Y-95665000D01*
X144578711Y-95665000D01*
X144534774Y-95621063D01*
X144365256Y-95507795D01*
X144176898Y-95429774D01*
X143976939Y-95390000D01*
X143773061Y-95390000D01*
X143573102Y-95429774D01*
X143384744Y-95507795D01*
X143215226Y-95621063D01*
X143071063Y-95765226D01*
X142957795Y-95934744D01*
X142879774Y-96123102D01*
X142840000Y-96323061D01*
X87660000Y-96323061D01*
X87660000Y-85698061D01*
X144864990Y-85698061D01*
X144864990Y-85901939D01*
X144904764Y-86101898D01*
X144982785Y-86290256D01*
X145096053Y-86459774D01*
X145240216Y-86603937D01*
X145409734Y-86717205D01*
X145598092Y-86795226D01*
X145798051Y-86835000D01*
X146001929Y-86835000D01*
X146201888Y-86795226D01*
X146390246Y-86717205D01*
X146559764Y-86603937D01*
X146703927Y-86459774D01*
X146817195Y-86290256D01*
X146895216Y-86101898D01*
X146924083Y-85956775D01*
X147096607Y-85784251D01*
X147123102Y-85795226D01*
X147323061Y-85835000D01*
X147526939Y-85835000D01*
X147726898Y-85795226D01*
X147915256Y-85717205D01*
X148084774Y-85603937D01*
X148228937Y-85459774D01*
X148342205Y-85290256D01*
X148420226Y-85101898D01*
X148460000Y-84901939D01*
X148460000Y-84798061D01*
X149415000Y-84798061D01*
X149415000Y-85001939D01*
X149454774Y-85201898D01*
X149532795Y-85390256D01*
X149615000Y-85513285D01*
X149615001Y-86653974D01*
X149610960Y-86695002D01*
X149627082Y-86858690D01*
X149674828Y-87016088D01*
X149752364Y-87161147D01*
X149752365Y-87161148D01*
X149856710Y-87288293D01*
X149888574Y-87314443D01*
X152110557Y-89536427D01*
X152136707Y-89568291D01*
X152217717Y-89634774D01*
X152263852Y-89672636D01*
X152408911Y-89750172D01*
X152566309Y-89797918D01*
X152729997Y-89814040D01*
X152771016Y-89810000D01*
X155861715Y-89810000D01*
X155984744Y-89892205D01*
X156173102Y-89970226D01*
X156373061Y-90010000D01*
X156576939Y-90010000D01*
X156776898Y-89970226D01*
X156965256Y-89892205D01*
X157134774Y-89778937D01*
X157278937Y-89634774D01*
X157392205Y-89465256D01*
X157470226Y-89276898D01*
X157510000Y-89076939D01*
X157510000Y-88873061D01*
X157470226Y-88673102D01*
X157392205Y-88484744D01*
X157278937Y-88315226D01*
X157134774Y-88171063D01*
X156965256Y-88057795D01*
X156776898Y-87979774D01*
X156576939Y-87940000D01*
X156373061Y-87940000D01*
X156173102Y-87979774D01*
X155984744Y-88057795D01*
X155861715Y-88140000D01*
X154845206Y-88140000D01*
X154847216Y-88046164D01*
X154425000Y-87623948D01*
X154408029Y-87640919D01*
X154308958Y-87541848D01*
X154310113Y-87536002D01*
X154310001Y-87450000D01*
X154598948Y-87450000D01*
X155021164Y-87872216D01*
X155209827Y-87868174D01*
X155276328Y-87707026D01*
X155310113Y-87536002D01*
X155309884Y-87361672D01*
X155275649Y-87190736D01*
X155209827Y-87031826D01*
X155021164Y-87027784D01*
X154598948Y-87450000D01*
X154310001Y-87450000D01*
X154309884Y-87361672D01*
X154309142Y-87357968D01*
X154408029Y-87259081D01*
X154425000Y-87276052D01*
X154711815Y-86989237D01*
X154843174Y-86934827D01*
X154844859Y-86856193D01*
X154847216Y-86853836D01*
X154846063Y-86800000D01*
X154847216Y-86746164D01*
X154844859Y-86743807D01*
X154843174Y-86665173D01*
X154712159Y-86611107D01*
X154425000Y-86323948D01*
X154408029Y-86340919D01*
X154308958Y-86241848D01*
X154310113Y-86236002D01*
X154310001Y-86150000D01*
X154598948Y-86150000D01*
X155021164Y-86572216D01*
X155209827Y-86568174D01*
X155276328Y-86407026D01*
X155310113Y-86236002D01*
X155309884Y-86061672D01*
X155275649Y-85890736D01*
X155209827Y-85731826D01*
X155021164Y-85727784D01*
X154598948Y-86150000D01*
X154310001Y-86150000D01*
X154309884Y-86061672D01*
X154309142Y-86057968D01*
X154408029Y-85959081D01*
X154425000Y-85976052D01*
X154847216Y-85553836D01*
X154843174Y-85365173D01*
X154682026Y-85298672D01*
X154511002Y-85264887D01*
X154336672Y-85265116D01*
X154165736Y-85299351D01*
X154006826Y-85365173D01*
X154004521Y-85472755D01*
X153963579Y-85431813D01*
X153925000Y-85470392D01*
X153886421Y-85431813D01*
X153845479Y-85472755D01*
X153843174Y-85365173D01*
X153682026Y-85298672D01*
X153511002Y-85264887D01*
X153336672Y-85265116D01*
X153165736Y-85299351D01*
X153006826Y-85365173D01*
X153004521Y-85472755D01*
X152963579Y-85431813D01*
X152925000Y-85470392D01*
X152886421Y-85431813D01*
X152845479Y-85472755D01*
X152843174Y-85365173D01*
X152682026Y-85298672D01*
X152511002Y-85264887D01*
X152336672Y-85265116D01*
X152165736Y-85299351D01*
X152006826Y-85365173D01*
X152002784Y-85553836D01*
X152425000Y-85976052D01*
X152441971Y-85959081D01*
X152541042Y-86058152D01*
X152539887Y-86063998D01*
X152540116Y-86238328D01*
X152540858Y-86242032D01*
X152441971Y-86340919D01*
X152425000Y-86323948D01*
X152138185Y-86610763D01*
X152006826Y-86665173D01*
X152005141Y-86743807D01*
X152002784Y-86746164D01*
X152003937Y-86800000D01*
X152002784Y-86853836D01*
X152005141Y-86856193D01*
X152006826Y-86934827D01*
X152137841Y-86988893D01*
X152425000Y-87276052D01*
X152441971Y-87259081D01*
X152541042Y-87358152D01*
X152539887Y-87363998D01*
X152540116Y-87538328D01*
X152540858Y-87542032D01*
X152509378Y-87573513D01*
X151285000Y-86349135D01*
X151285000Y-86063998D01*
X151539887Y-86063998D01*
X151540116Y-86238328D01*
X151574351Y-86409264D01*
X151640173Y-86568174D01*
X151828836Y-86572216D01*
X152251052Y-86150000D01*
X151828836Y-85727784D01*
X151640173Y-85731826D01*
X151573672Y-85892974D01*
X151539887Y-86063998D01*
X151285000Y-86063998D01*
X151285000Y-85513285D01*
X151367205Y-85390256D01*
X151445226Y-85201898D01*
X151485000Y-85001939D01*
X151485000Y-84798061D01*
X151445226Y-84598102D01*
X151367205Y-84409744D01*
X151253937Y-84240226D01*
X151109774Y-84096063D01*
X150940256Y-83982795D01*
X150751898Y-83904774D01*
X150551939Y-83865000D01*
X150348061Y-83865000D01*
X150148102Y-83904774D01*
X149959744Y-83982795D01*
X149790226Y-84096063D01*
X149646063Y-84240226D01*
X149532795Y-84409744D01*
X149454774Y-84598102D01*
X149415000Y-84798061D01*
X148460000Y-84798061D01*
X148460000Y-84698061D01*
X148420226Y-84498102D01*
X148342205Y-84309744D01*
X148260000Y-84186715D01*
X148260000Y-83259018D01*
X148329285Y-83245236D01*
X148517643Y-83167215D01*
X148687161Y-83053947D01*
X148831324Y-82909784D01*
X148944592Y-82740266D01*
X149022613Y-82551908D01*
X149062387Y-82351949D01*
X149062387Y-82148071D01*
X149022613Y-81948112D01*
X148944592Y-81759754D01*
X148831324Y-81590236D01*
X148687161Y-81446073D01*
X148517643Y-81332805D01*
X148329285Y-81254784D01*
X148129326Y-81215010D01*
X147925448Y-81215010D01*
X147725489Y-81254784D01*
X147537131Y-81332805D01*
X147367613Y-81446073D01*
X147326199Y-81487488D01*
X147234774Y-81396063D01*
X147065256Y-81282795D01*
X146876898Y-81204774D01*
X146676939Y-81165000D01*
X146473061Y-81165000D01*
X146273102Y-81204774D01*
X146084744Y-81282795D01*
X145915226Y-81396063D01*
X145771063Y-81540226D01*
X145657795Y-81709744D01*
X145579774Y-81898102D01*
X145540000Y-82098061D01*
X145540000Y-82301939D01*
X145579774Y-82501898D01*
X145657795Y-82690256D01*
X145740000Y-82813285D01*
X145740001Y-84776547D01*
X145598092Y-84804774D01*
X145409734Y-84882795D01*
X145240216Y-84996063D01*
X145096053Y-85140226D01*
X144982785Y-85309744D01*
X144904764Y-85498102D01*
X144864990Y-85698061D01*
X87660000Y-85698061D01*
X87660000Y-83100000D01*
X109340880Y-83100000D01*
X109377275Y-83469524D01*
X109485061Y-83824848D01*
X109660097Y-84152317D01*
X109895655Y-84439345D01*
X110182683Y-84674903D01*
X110510152Y-84849939D01*
X110865476Y-84957725D01*
X111142403Y-84985000D01*
X112827597Y-84985000D01*
X113104524Y-84957725D01*
X113459848Y-84849939D01*
X113787317Y-84674903D01*
X114074345Y-84439345D01*
X114309903Y-84152317D01*
X114484939Y-83824848D01*
X114525000Y-83692784D01*
X114565061Y-83824848D01*
X114740097Y-84152317D01*
X114975655Y-84439345D01*
X115262683Y-84674903D01*
X115590152Y-84849939D01*
X115945476Y-84957725D01*
X116222403Y-84985000D01*
X117907597Y-84985000D01*
X118184524Y-84957725D01*
X118539848Y-84849939D01*
X118867317Y-84674903D01*
X119154345Y-84439345D01*
X119389903Y-84152317D01*
X119564939Y-83824848D01*
X119672725Y-83469524D01*
X119709120Y-83100000D01*
X130590880Y-83100000D01*
X130627275Y-83469524D01*
X130735061Y-83824848D01*
X130910097Y-84152317D01*
X131145655Y-84439345D01*
X131432683Y-84674903D01*
X131760152Y-84849939D01*
X132115476Y-84957725D01*
X132392403Y-84985000D01*
X134077597Y-84985000D01*
X134354524Y-84957725D01*
X134709848Y-84849939D01*
X135037317Y-84674903D01*
X135324345Y-84439345D01*
X135559903Y-84152317D01*
X135734939Y-83824848D01*
X135775000Y-83692784D01*
X135815061Y-83824848D01*
X135990097Y-84152317D01*
X136225655Y-84439345D01*
X136512683Y-84674903D01*
X136840152Y-84849939D01*
X137195476Y-84957725D01*
X137472403Y-84985000D01*
X139157597Y-84985000D01*
X139434524Y-84957725D01*
X139789848Y-84849939D01*
X140117317Y-84674903D01*
X140404345Y-84439345D01*
X140639903Y-84152317D01*
X140814939Y-83824848D01*
X140922725Y-83469524D01*
X140959120Y-83100000D01*
X140922725Y-82730476D01*
X140814939Y-82375152D01*
X140639903Y-82047683D01*
X140404345Y-81760655D01*
X140117317Y-81525097D01*
X139789848Y-81350061D01*
X139434524Y-81242275D01*
X139157597Y-81215000D01*
X137472403Y-81215000D01*
X137195476Y-81242275D01*
X136840152Y-81350061D01*
X136512683Y-81525097D01*
X136225655Y-81760655D01*
X135990097Y-82047683D01*
X135815061Y-82375152D01*
X135775000Y-82507216D01*
X135734939Y-82375152D01*
X135559903Y-82047683D01*
X135324345Y-81760655D01*
X135037317Y-81525097D01*
X134709848Y-81350061D01*
X134354524Y-81242275D01*
X134077597Y-81215000D01*
X132392403Y-81215000D01*
X132115476Y-81242275D01*
X131760152Y-81350061D01*
X131432683Y-81525097D01*
X131145655Y-81760655D01*
X130910097Y-82047683D01*
X130735061Y-82375152D01*
X130627275Y-82730476D01*
X130590880Y-83100000D01*
X119709120Y-83100000D01*
X119672725Y-82730476D01*
X119564939Y-82375152D01*
X119389903Y-82047683D01*
X119154345Y-81760655D01*
X118867317Y-81525097D01*
X118539848Y-81350061D01*
X118184524Y-81242275D01*
X117907597Y-81215000D01*
X116222403Y-81215000D01*
X115945476Y-81242275D01*
X115590152Y-81350061D01*
X115262683Y-81525097D01*
X114975655Y-81760655D01*
X114740097Y-82047683D01*
X114565061Y-82375152D01*
X114525000Y-82507216D01*
X114484939Y-82375152D01*
X114309903Y-82047683D01*
X114074345Y-81760655D01*
X113787317Y-81525097D01*
X113459848Y-81350061D01*
X113104524Y-81242275D01*
X112827597Y-81215000D01*
X111142403Y-81215000D01*
X110865476Y-81242275D01*
X110510152Y-81350061D01*
X110182683Y-81525097D01*
X109895655Y-81760655D01*
X109660097Y-82047683D01*
X109485061Y-82375152D01*
X109377275Y-82730476D01*
X109340880Y-83100000D01*
X87660000Y-83100000D01*
X87660000Y-80598380D01*
X91168282Y-77090098D01*
X94615000Y-77090098D01*
X94615000Y-77559902D01*
X94706654Y-78020679D01*
X94886440Y-78454721D01*
X95147450Y-78845349D01*
X95479651Y-79177550D01*
X95870279Y-79438560D01*
X96304321Y-79618346D01*
X96765098Y-79710000D01*
X97234902Y-79710000D01*
X97695679Y-79618346D01*
X98129721Y-79438560D01*
X98520349Y-79177550D01*
X98852550Y-78845349D01*
X99113560Y-78454721D01*
X99293346Y-78020679D01*
X99385000Y-77559902D01*
X99385000Y-77090098D01*
X99293346Y-76629321D01*
X99113560Y-76195279D01*
X98852550Y-75804651D01*
X98527899Y-75480000D01*
X111880880Y-75480000D01*
X111917275Y-75849524D01*
X112025061Y-76204848D01*
X112200097Y-76532317D01*
X112435655Y-76819345D01*
X112722683Y-77054903D01*
X113050152Y-77229939D01*
X113405476Y-77337725D01*
X113682403Y-77365000D01*
X115367597Y-77365000D01*
X115644524Y-77337725D01*
X115999848Y-77229939D01*
X116327317Y-77054903D01*
X116614345Y-76819345D01*
X116849903Y-76532317D01*
X117024939Y-76204848D01*
X117132725Y-75849524D01*
X117169120Y-75480000D01*
X133130880Y-75480000D01*
X133167275Y-75849524D01*
X133275061Y-76204848D01*
X133450097Y-76532317D01*
X133685655Y-76819345D01*
X133972683Y-77054903D01*
X134300152Y-77229939D01*
X134655476Y-77337725D01*
X134932403Y-77365000D01*
X136617597Y-77365000D01*
X136894524Y-77337725D01*
X137249848Y-77229939D01*
X137511471Y-77090098D01*
X154615000Y-77090098D01*
X154615000Y-77559902D01*
X154706654Y-78020679D01*
X154886440Y-78454721D01*
X155147450Y-78845349D01*
X155479651Y-79177550D01*
X155870279Y-79438560D01*
X156304321Y-79618346D01*
X156765098Y-79710000D01*
X157234902Y-79710000D01*
X157695679Y-79618346D01*
X158129721Y-79438560D01*
X158520349Y-79177550D01*
X158852550Y-78845349D01*
X159113560Y-78454721D01*
X159293346Y-78020679D01*
X159385000Y-77559902D01*
X159385000Y-77090098D01*
X159293346Y-76629321D01*
X159113560Y-76195279D01*
X158852550Y-75804651D01*
X158520349Y-75472450D01*
X158129721Y-75211440D01*
X157695679Y-75031654D01*
X157234902Y-74940000D01*
X156765098Y-74940000D01*
X156304321Y-75031654D01*
X155870279Y-75211440D01*
X155479651Y-75472450D01*
X155147450Y-75804651D01*
X154886440Y-76195279D01*
X154706654Y-76629321D01*
X154615000Y-77090098D01*
X137511471Y-77090098D01*
X137577317Y-77054903D01*
X137864345Y-76819345D01*
X138099903Y-76532317D01*
X138274939Y-76204848D01*
X138382725Y-75849524D01*
X138419120Y-75480000D01*
X138382725Y-75110476D01*
X138274939Y-74755152D01*
X138099903Y-74427683D01*
X137864345Y-74140655D01*
X137577317Y-73905097D01*
X137249848Y-73730061D01*
X136894524Y-73622275D01*
X136617597Y-73595000D01*
X134932403Y-73595000D01*
X134655476Y-73622275D01*
X134300152Y-73730061D01*
X133972683Y-73905097D01*
X133685655Y-74140655D01*
X133450097Y-74427683D01*
X133275061Y-74755152D01*
X133167275Y-75110476D01*
X133130880Y-75480000D01*
X117169120Y-75480000D01*
X117132725Y-75110476D01*
X117024939Y-74755152D01*
X116849903Y-74427683D01*
X116614345Y-74140655D01*
X116327317Y-73905097D01*
X115999848Y-73730061D01*
X115644524Y-73622275D01*
X115367597Y-73595000D01*
X113682403Y-73595000D01*
X113405476Y-73622275D01*
X113050152Y-73730061D01*
X112722683Y-73905097D01*
X112435655Y-74140655D01*
X112200097Y-74427683D01*
X112025061Y-74755152D01*
X111917275Y-75110476D01*
X111880880Y-75480000D01*
X98527899Y-75480000D01*
X98520349Y-75472450D01*
X98129721Y-75211440D01*
X97695679Y-75031654D01*
X97234902Y-74940000D01*
X96765098Y-74940000D01*
X96304321Y-75031654D01*
X95870279Y-75211440D01*
X95479651Y-75472450D01*
X95147450Y-75804651D01*
X94886440Y-76195279D01*
X94706654Y-76629321D01*
X94615000Y-77090098D01*
X91168282Y-77090098D01*
X100273381Y-67985000D01*
X153726620Y-67985000D01*
X166340000Y-80598381D01*
G36*
X153541042Y-87358152D02*
G01*
X153539887Y-87363998D01*
X153540116Y-87538328D01*
X153540858Y-87542032D01*
X153441971Y-87640919D01*
X153425000Y-87623948D01*
X153408029Y-87640919D01*
X153308958Y-87541848D01*
X153310113Y-87536002D01*
X153309884Y-87361672D01*
X153309142Y-87357968D01*
X153408029Y-87259081D01*
X153425000Y-87276052D01*
X153441971Y-87259081D01*
X153541042Y-87358152D01*
G37*
X153541042Y-87358152D02*
X153539887Y-87363998D01*
X153540116Y-87538328D01*
X153540858Y-87542032D01*
X153441971Y-87640919D01*
X153425000Y-87623948D01*
X153408029Y-87640919D01*
X153308958Y-87541848D01*
X153310113Y-87536002D01*
X153309884Y-87361672D01*
X153309142Y-87357968D01*
X153408029Y-87259081D01*
X153425000Y-87276052D01*
X153441971Y-87259081D01*
X153541042Y-87358152D01*
G36*
X153541042Y-86058152D02*
G01*
X153539887Y-86063998D01*
X153540116Y-86238328D01*
X153540858Y-86242032D01*
X153441971Y-86340919D01*
X153425000Y-86323948D01*
X153408029Y-86340919D01*
X153308958Y-86241848D01*
X153310113Y-86236002D01*
X153309884Y-86061672D01*
X153309142Y-86057968D01*
X153408029Y-85959081D01*
X153425000Y-85976052D01*
X153441971Y-85959081D01*
X153541042Y-86058152D01*
G37*
X153541042Y-86058152D02*
X153539887Y-86063998D01*
X153540116Y-86238328D01*
X153540858Y-86242032D01*
X153441971Y-86340919D01*
X153425000Y-86323948D01*
X153408029Y-86340919D01*
X153308958Y-86241848D01*
X153310113Y-86236002D01*
X153309884Y-86061672D01*
X153309142Y-86057968D01*
X153408029Y-85959081D01*
X153425000Y-85976052D01*
X153441971Y-85959081D01*
X153541042Y-86058152D01*
M02*
