M48
; DRILL file {KiCad (5.1.5)-3} date 03.09.2020 09:53:28
; FORMAT={-:-/ absolute / inch / decimal}
; #@! TF.CreationDate,2020-09-03T09:53:28+02:00
; #@! TF.GenerationSoftware,Kicad,Pcbnew,(5.1.5)-3
; #@! TF.FileFunction,Plated,1,2,PTH
FMAT,2
INCH
T1C0.0079
T2C0.0157
T3C0.0394
T4C0.0520
T5C0.0720
%
G90
G05
T1
X6.001Y-3.3917
X6.001Y-3.4429
X6.0404Y-3.3917
X6.0404Y-3.4429
X6.0797Y-3.3917
X6.0797Y-3.4429
T2
X3.4547Y-4.1358
X3.4557Y-4.0974
X3.4882Y-4.1339
X3.4931Y-4.0955
X3.5217Y-3.5305
X3.5256Y-4.0955
X3.5256Y-4.1319
X3.5276Y-3.4557
X3.5285Y-3.8199
X3.5531Y-4.4951
X3.5581Y-4.0945
X3.564Y-4.1319
X3.5945Y-3.4016
X3.5945Y-3.8268
X3.6093Y-3.6703
X3.6102Y-3.5384
X3.6339Y-3.4016
X3.6378Y-3.2077
X3.6378Y-3.8228
X3.6467Y-3.7116
X3.6496Y-4.752
X3.6575Y-4.8041
X3.6791Y-3.1762
X3.69Y-4.6083
X3.6919Y-4.6644
X3.6919Y-4.7136
X3.6949Y-4.5217
X3.6959Y-4.0945
X3.7008Y-4.373
X3.7057Y-3.7165
X3.7067Y-4.4409
X3.7106Y-3.8081
X3.7175Y-3.8661
X3.7195Y-3.9075
X3.7254Y-4.3189
X3.8051Y-4.3523
X3.812Y-3.689
X3.814Y-4.2333
X3.815Y-3.5945
X3.8219Y-3.9065
X3.8225Y-4.2808
X3.8337Y-3.5394
X3.8504Y-4.7077
X3.8573Y-3.7018
X3.9508Y-4.311
X3.9636Y-4.7195
X3.9665Y-4.065
X3.9724Y-3.8238
X3.9882Y-2.8189
X3.9951Y-2.7648
X4.0079Y-3.8228
X4.0315Y-2.7146
X4.0384Y-4.002
X4.0433Y-3.8533
X4.0543Y-3.7917
X4.061Y-4.3425
X4.1043Y-4.3803
X4.1171Y-2.8445
X4.1177Y-3.813
X4.1193Y-3.7583
X4.122Y-3.1122
X4.1331Y-4.2062
X4.1339Y-4.1289
X4.1666Y-4.2268
X4.1673Y-2.7736
X4.19Y-4.0935
X4.1939Y-4.2963
X4.2283Y-4.2628
X4.2352Y-2.7549
X4.2628Y-4.2234
X4.9232Y-4.2539
X4.998Y-4.2579
X5.0728Y-4.2539
X5.4665Y-4.1211
X5.4764Y-4.2343
X5.6496Y-3.938
X5.6644Y-3.7963
X5.6654Y-3.8563
X5.7096Y-4.2274
X5.7205Y-4.1043
X5.7441Y-3.378
X5.7707Y-3.2362
X5.8041Y-3.3386
X5.81Y-2.7697
X5.8278Y-3.2382
X5.8287Y-3.8248
X5.8474Y-3.3248
X5.8553Y-3.4862
X5.8583Y-3.5315
X5.873Y-3.4331
X5.875Y-4.4429
X5.877Y-3.3711
X5.8799Y-3.7707
X5.8858Y-4.5
X5.8917Y-2.8661
X5.9006Y-3.4843
X5.9035Y-3.5246
X5.9094Y-3.0906
X5.9232Y-3.3425
X5.9281Y-4.5138
X5.9557Y-2.9587
X5.9813Y-4.0827
X5.9892Y-4.5217
X6.0049Y-3.8937
X6.0169Y-3.8564
X6.0207Y-4.439
X6.0207Y-4.4783
X6.0217Y-3.7411
X6.0256Y-3.6339
X6.0305Y-3.6801
X6.0429Y-3.8303
X6.0453Y-4.1289
X6.0463Y-4.1693
X6.0482Y-3.9488
X6.0955Y-4.1575
X6.1216Y-4.0271
X6.126Y-3.9498
X6.1526Y-3.7175
X6.1604Y-3.503
X6.1644Y-4.5374
X6.1713Y-4.5059
X6.2008Y-3.4833
X6.2047Y-4.5374
X6.2106Y-4.3898
X6.2106Y-4.4242
X6.2116Y-4.4557
X6.2136Y-4.4872
X6.2421Y-4.5354
X6.252Y-3.4803
X6.2646Y-4.7059
X6.2657Y-4.6689
X6.2657Y-4.8886
X6.2661Y-4.7429
X6.2677Y-4.8516
X6.2681Y-4.9256
X6.2933Y-3.3553
X6.2933Y-3.4183
X6.3091Y-4.9488
X6.363Y-4.8906
X6.3642Y-4.687
X6.3917Y-4.126
X6.4016Y-4.2963
X6.4114Y-3.5148
X6.439Y-4.123
X6.4567Y-3.5157
X6.4567Y-4.3002
X6.4724Y-3.6289
X6.5049Y-4.124
X6.5157Y-4.3002
X6.5197Y-3.6299
T3
X3.9018Y-4.4108
X3.9018Y-4.5108
X3.9018Y-4.6108
X4.0018Y-4.4108
X4.0018Y-4.5108
X4.0018Y-4.6108
T4
X5.8809Y-4.8258
X6.0778Y-4.8258
T5
X4.4089Y-3.2717
X4.4089Y-5.1614
X4.5089Y-2.9717
X4.5089Y-5.4614
X4.6089Y-3.2717
X4.6089Y-5.1614
X5.2455Y-3.2717
X5.2455Y-5.1614
X5.3455Y-2.9717
X5.3455Y-5.4614
X5.4455Y-3.2717
X5.4455Y-5.1614
T0
M30
