%FSLAX45Y45*%
G04 Gerber Fmt 4.5, Leading zero omitted, Abs format (unit mm)*
G04 Created by KiCad (PCBNEW 5.1.6-c6e7f7d~87~ubuntu18.04.1) date 2020-08-27 18:22:31*
%MOMM*%
%LPD*%
G01*
G04 APERTURE LIST*
%TA.AperFunction,Profile*%
%ADD10C,0.050000*%
%TD*%
%ADD11C,0.200000*%
%ADD12C,0.300000*%
G04 APERTURE END LIST*
D10*
X16700000Y-8032500D02*
X16700000Y-13332500D01*
X15400000Y-6732500D02*
X16700000Y-8032500D01*
X10000000Y-6732500D02*
X15400000Y-6732500D01*
X8700000Y-8032500D02*
X10000000Y-6732500D01*
X8700000Y-13332500D02*
X8700000Y-8032500D01*
X10100000Y-14732500D02*
X8700000Y-13332500D01*
X15300000Y-14732500D02*
X10100000Y-14732500D01*
X16700000Y-13332500D02*
X15300000Y-14732500D01*
D11*
X15232500Y-8605000D02*
X15252500Y-8625000D01*
X15252500Y-8605000D02*
X15232500Y-8625000D01*
X15232500Y-8735000D02*
X15252500Y-8755000D01*
X15252500Y-8735000D02*
X15232500Y-8755000D01*
X15332500Y-8605000D02*
X15352500Y-8625000D01*
X15352500Y-8605000D02*
X15332500Y-8625000D01*
X15332500Y-8735000D02*
X15352500Y-8755000D01*
X15352500Y-8735000D02*
X15332500Y-8755000D01*
X15432500Y-8605000D02*
X15452500Y-8625000D01*
X15452500Y-8605000D02*
X15432500Y-8625000D01*
X15432500Y-8735000D02*
X15452500Y-8755000D01*
X15452500Y-8735000D02*
X15432500Y-8755000D01*
X8795000Y-10505000D02*
G75*
G03*
X8795000Y-10505000I-20000J0D01*
G01*
X8797500Y-10407500D02*
G75*
G03*
X8797500Y-10407500I-20000J0D01*
G01*
X8880000Y-10500000D02*
G75*
G03*
X8880000Y-10500000I-20000J0D01*
G01*
X8892500Y-10402500D02*
G75*
G03*
X8892500Y-10402500I-20000J0D01*
G01*
X8965000Y-8967500D02*
G75*
G03*
X8965000Y-8967500I-20000J0D01*
G01*
X8975000Y-10402500D02*
G75*
G03*
X8975000Y-10402500I-20000J0D01*
G01*
X8975000Y-10495000D02*
G75*
G03*
X8975000Y-10495000I-20000J0D01*
G01*
X8980000Y-8777500D02*
G75*
G03*
X8980000Y-8777500I-20000J0D01*
G01*
X8982500Y-9702500D02*
G75*
G03*
X8982500Y-9702500I-20000J0D01*
G01*
X9045000Y-11417500D02*
G75*
G03*
X9045000Y-11417500I-20000J0D01*
G01*
X9057500Y-10400000D02*
G75*
G03*
X9057500Y-10400000I-20000J0D01*
G01*
X9072500Y-10495000D02*
G75*
G03*
X9072500Y-10495000I-20000J0D01*
G01*
X9150000Y-8640000D02*
G75*
G03*
X9150000Y-8640000I-20000J0D01*
G01*
X9150000Y-9720000D02*
G75*
G03*
X9150000Y-9720000I-20000J0D01*
G01*
X9187500Y-9322500D02*
G75*
G03*
X9187500Y-9322500I-20000J0D01*
G01*
X9190000Y-8987500D02*
G75*
G03*
X9190000Y-8987500I-20000J0D01*
G01*
X9250000Y-8640000D02*
G75*
G03*
X9250000Y-8640000I-20000J0D01*
G01*
X9260000Y-8147500D02*
G75*
G03*
X9260000Y-8147500I-20000J0D01*
G01*
X9260000Y-9710000D02*
G75*
G03*
X9260000Y-9710000I-20000J0D01*
G01*
X9282500Y-9427500D02*
G75*
G03*
X9282500Y-9427500I-20000J0D01*
G01*
X9290000Y-12070000D02*
G75*
G03*
X9290000Y-12070000I-20000J0D01*
G01*
X9310000Y-12202500D02*
G75*
G03*
X9310000Y-12202500I-20000J0D01*
G01*
X9365000Y-8067500D02*
G75*
G03*
X9365000Y-8067500I-20000J0D01*
G01*
X9392500Y-11705000D02*
G75*
G03*
X9392500Y-11705000I-20000J0D01*
G01*
X9397500Y-11847500D02*
G75*
G03*
X9397500Y-11847500I-20000J0D01*
G01*
X9397500Y-11972500D02*
G75*
G03*
X9397500Y-11972500I-20000J0D01*
G01*
X9405000Y-11485000D02*
G75*
G03*
X9405000Y-11485000I-20000J0D01*
G01*
X9407500Y-10400000D02*
G75*
G03*
X9407500Y-10400000I-20000J0D01*
G01*
X9420000Y-11107500D02*
G75*
G03*
X9420000Y-11107500I-20000J0D01*
G01*
X9432500Y-9440000D02*
G75*
G03*
X9432500Y-9440000I-20000J0D01*
G01*
X9435000Y-11280000D02*
G75*
G03*
X9435000Y-11280000I-20000J0D01*
G01*
X9445000Y-9672500D02*
G75*
G03*
X9445000Y-9672500I-20000J0D01*
G01*
X9462500Y-9820000D02*
G75*
G03*
X9462500Y-9820000I-20000J0D01*
G01*
X9467500Y-9925000D02*
G75*
G03*
X9467500Y-9925000I-20000J0D01*
G01*
X9482500Y-10970000D02*
G75*
G03*
X9482500Y-10970000I-20000J0D01*
G01*
X9685003Y-11054761D02*
G75*
G03*
X9685003Y-11054761I-20000J0D01*
G01*
X9702500Y-9370000D02*
G75*
G03*
X9702500Y-9370000I-20000J0D01*
G01*
X9707500Y-10752500D02*
G75*
G03*
X9707500Y-10752500I-20000J0D01*
G01*
X9710000Y-9130000D02*
G75*
G03*
X9710000Y-9130000I-20000J0D01*
G01*
X9727500Y-9922500D02*
G75*
G03*
X9727500Y-9922500I-20000J0D01*
G01*
X9729197Y-10873290D02*
G75*
G03*
X9729197Y-10873290I-20000J0D01*
G01*
X9757500Y-8990000D02*
G75*
G03*
X9757500Y-8990000I-20000J0D01*
G01*
X9800000Y-11957500D02*
G75*
G03*
X9800000Y-11957500I-20000J0D01*
G01*
X9817500Y-9402500D02*
G75*
G03*
X9817500Y-9402500I-20000J0D01*
G01*
X10055000Y-10950000D02*
G75*
G03*
X10055000Y-10950000I-20000J0D01*
G01*
X10087500Y-11987500D02*
G75*
G03*
X10087500Y-11987500I-20000J0D01*
G01*
X10095000Y-10325000D02*
G75*
G03*
X10095000Y-10325000I-20000J0D01*
G01*
X10110000Y-9712500D02*
G75*
G03*
X10110000Y-9712500I-20000J0D01*
G01*
X10150000Y-7160000D02*
G75*
G03*
X10150000Y-7160000I-20000J0D01*
G01*
X10167500Y-7022500D02*
G75*
G03*
X10167500Y-7022500I-20000J0D01*
G01*
X10200000Y-9710000D02*
G75*
G03*
X10200000Y-9710000I-20000J0D01*
G01*
X10260000Y-6895000D02*
G75*
G03*
X10260000Y-6895000I-20000J0D01*
G01*
X10277500Y-10165000D02*
G75*
G03*
X10277500Y-10165000I-20000J0D01*
G01*
X10290000Y-9787500D02*
G75*
G03*
X10290000Y-9787500I-20000J0D01*
G01*
X10318000Y-9631000D02*
G75*
G03*
X10318000Y-9631000I-20000J0D01*
G01*
X10335000Y-11030000D02*
G75*
G03*
X10335000Y-11030000I-20000J0D01*
G01*
X10445000Y-11126000D02*
G75*
G03*
X10445000Y-11126000I-20000J0D01*
G01*
X10477500Y-7225000D02*
G75*
G03*
X10477500Y-7225000I-20000J0D01*
G01*
X10479000Y-9685000D02*
G75*
G03*
X10479000Y-9685000I-20000J0D01*
G01*
X10483000Y-9546000D02*
G75*
G03*
X10483000Y-9546000I-20000J0D01*
G01*
X10490000Y-7905000D02*
G75*
G03*
X10490000Y-7905000I-20000J0D01*
G01*
X10518088Y-10683822D02*
G75*
G03*
X10518088Y-10683822I-20000J0D01*
G01*
X10520000Y-10487500D02*
G75*
G03*
X10520000Y-10487500I-20000J0D01*
G01*
X10603284Y-10736184D02*
G75*
G03*
X10603284Y-10736184I-20000J0D01*
G01*
X10605000Y-7045000D02*
G75*
G03*
X10605000Y-7045000I-20000J0D01*
G01*
X10662500Y-10397500D02*
G75*
G03*
X10662500Y-10397500I-20000J0D01*
G01*
X10672500Y-10912500D02*
G75*
G03*
X10672500Y-10912500I-20000J0D01*
G01*
X10760000Y-10827500D02*
G75*
G03*
X10760000Y-10827500I-20000J0D01*
G01*
X10777500Y-6997500D02*
G75*
G03*
X10777500Y-6997500I-20000J0D01*
G01*
X10847500Y-10727500D02*
G75*
G03*
X10847500Y-10727500I-20000J0D01*
G01*
X12525000Y-10805000D02*
G75*
G03*
X12525000Y-10805000I-20000J0D01*
G01*
X12715000Y-10815000D02*
G75*
G03*
X12715000Y-10815000I-20000J0D01*
G01*
X12905000Y-10805000D02*
G75*
G03*
X12905000Y-10805000I-20000J0D01*
G01*
X13905000Y-10467500D02*
G75*
G03*
X13905000Y-10467500I-20000J0D01*
G01*
X13930000Y-10755000D02*
G75*
G03*
X13930000Y-10755000I-20000J0D01*
G01*
X14370000Y-10002500D02*
G75*
G03*
X14370000Y-10002500I-20000J0D01*
G01*
X14407500Y-9642500D02*
G75*
G03*
X14407500Y-9642500I-20000J0D01*
G01*
X14410000Y-9795000D02*
G75*
G03*
X14410000Y-9795000I-20000J0D01*
G01*
X14522500Y-10737500D02*
G75*
G03*
X14522500Y-10737500I-20000J0D01*
G01*
X14550000Y-10425000D02*
G75*
G03*
X14550000Y-10425000I-20000J0D01*
G01*
X14609999Y-8580000D02*
G75*
G03*
X14609999Y-8580000I-20000J0D01*
G01*
X14677500Y-8220000D02*
G75*
G03*
X14677500Y-8220000I-20000J0D01*
G01*
X14762500Y-8480000D02*
G75*
G03*
X14762500Y-8480000I-20000J0D01*
G01*
X14777500Y-7035000D02*
G75*
G03*
X14777500Y-7035000I-20000J0D01*
G01*
X14822739Y-8225001D02*
G75*
G03*
X14822739Y-8225001I-20000J0D01*
G01*
X14825000Y-9715000D02*
G75*
G03*
X14825000Y-9715000I-20000J0D01*
G01*
X14872500Y-8445000D02*
G75*
G03*
X14872500Y-8445000I-20000J0D01*
G01*
X14892500Y-8855000D02*
G75*
G03*
X14892500Y-8855000I-20000J0D01*
G01*
X14900000Y-8970000D02*
G75*
G03*
X14900000Y-8970000I-20000J0D01*
G01*
X14937500Y-8720000D02*
G75*
G03*
X14937500Y-8720000I-20000J0D01*
G01*
X14942500Y-11285000D02*
G75*
G03*
X14942500Y-11285000I-20000J0D01*
G01*
X14947500Y-8562500D02*
G75*
G03*
X14947500Y-8562500I-20000J0D01*
G01*
X14955000Y-9577500D02*
G75*
G03*
X14955000Y-9577500I-20000J0D01*
G01*
X14970000Y-11430000D02*
G75*
G03*
X14970000Y-11430000I-20000J0D01*
G01*
X14985000Y-7280000D02*
G75*
G03*
X14985000Y-7280000I-20000J0D01*
G01*
X15007500Y-8850000D02*
G75*
G03*
X15007500Y-8850000I-20000J0D01*
G01*
X15015000Y-8952500D02*
G75*
G03*
X15015000Y-8952500I-20000J0D01*
G01*
X15030000Y-7850000D02*
G75*
G03*
X15030000Y-7850000I-20000J0D01*
G01*
X15065000Y-8490000D02*
G75*
G03*
X15065000Y-8490000I-20000J0D01*
G01*
X15077500Y-11465000D02*
G75*
G03*
X15077500Y-11465000I-20000J0D01*
G01*
X15147500Y-7515000D02*
G75*
G03*
X15147500Y-7515000I-20000J0D01*
G01*
X15212500Y-10370000D02*
G75*
G03*
X15212500Y-10370000I-20000J0D01*
G01*
X15232500Y-11485000D02*
G75*
G03*
X15232500Y-11485000I-20000J0D01*
G01*
X15272500Y-9890000D02*
G75*
G03*
X15272500Y-9890000I-20000J0D01*
G01*
X15302819Y-9795319D02*
G75*
G03*
X15302819Y-9795319I-20000J0D01*
G01*
X15312500Y-11275000D02*
G75*
G03*
X15312500Y-11275000I-20000J0D01*
G01*
X15312500Y-11375000D02*
G75*
G03*
X15312500Y-11375000I-20000J0D01*
G01*
X15315000Y-9502500D02*
G75*
G03*
X15315000Y-9502500I-20000J0D01*
G01*
X15325000Y-9230000D02*
G75*
G03*
X15325000Y-9230000I-20000J0D01*
G01*
X15337500Y-9347500D02*
G75*
G03*
X15337500Y-9347500I-20000J0D01*
G01*
X15369069Y-9729069D02*
G75*
G03*
X15369069Y-9729069I-20000J0D01*
G01*
X15375000Y-10487500D02*
G75*
G03*
X15375000Y-10487500I-20000J0D01*
G01*
X15377500Y-10590000D02*
G75*
G03*
X15377500Y-10590000I-20000J0D01*
G01*
X15382500Y-10030000D02*
G75*
G03*
X15382500Y-10030000I-20000J0D01*
G01*
X15502500Y-10560000D02*
G75*
G03*
X15502500Y-10560000I-20000J0D01*
G01*
X15568750Y-10228750D02*
G75*
G03*
X15568750Y-10228750I-20000J0D01*
G01*
X15580000Y-10032500D02*
G75*
G03*
X15580000Y-10032500I-20000J0D01*
G01*
X15647500Y-9442500D02*
G75*
G03*
X15647500Y-9442500I-20000J0D01*
G01*
X15667500Y-8897500D02*
G75*
G03*
X15667500Y-8897500I-20000J0D01*
G01*
X15677500Y-11525000D02*
G75*
G03*
X15677500Y-11525000I-20000J0D01*
G01*
X15695000Y-11445000D02*
G75*
G03*
X15695000Y-11445000I-20000J0D01*
G01*
X15770000Y-8847500D02*
G75*
G03*
X15770000Y-8847500I-20000J0D01*
G01*
X15780000Y-11525000D02*
G75*
G03*
X15780000Y-11525000I-20000J0D01*
G01*
X15795000Y-11150000D02*
G75*
G03*
X15795000Y-11150000I-20000J0D01*
G01*
X15795000Y-11237500D02*
G75*
G03*
X15795000Y-11237500I-20000J0D01*
G01*
X15797500Y-11317500D02*
G75*
G03*
X15797500Y-11317500I-20000J0D01*
G01*
X15802500Y-11397500D02*
G75*
G03*
X15802500Y-11397500I-20000J0D01*
G01*
X15875000Y-11520000D02*
G75*
G03*
X15875000Y-11520000I-20000J0D01*
G01*
X15900000Y-8840000D02*
G75*
G03*
X15900000Y-8840000I-20000J0D01*
G01*
X15932000Y-11953000D02*
G75*
G03*
X15932000Y-11953000I-20000J0D01*
G01*
X15935000Y-11859000D02*
G75*
G03*
X15935000Y-11859000I-20000J0D01*
G01*
X15935000Y-12417000D02*
G75*
G03*
X15935000Y-12417000I-20000J0D01*
G01*
X15936000Y-12047000D02*
G75*
G03*
X15936000Y-12047000I-20000J0D01*
G01*
X15940000Y-12323000D02*
G75*
G03*
X15940000Y-12323000I-20000J0D01*
G01*
X15941000Y-12511000D02*
G75*
G03*
X15941000Y-12511000I-20000J0D01*
G01*
X16005000Y-8522500D02*
G75*
G03*
X16005000Y-8522500I-20000J0D01*
G01*
X16005000Y-8682500D02*
G75*
G03*
X16005000Y-8682500I-20000J0D01*
G01*
X16045000Y-12570000D02*
G75*
G03*
X16045000Y-12570000I-20000J0D01*
G01*
X16182000Y-12422000D02*
G75*
G03*
X16182000Y-12422000I-20000J0D01*
G01*
X16185000Y-11905000D02*
G75*
G03*
X16185000Y-11905000I-20000J0D01*
G01*
X16255000Y-10480000D02*
G75*
G03*
X16255000Y-10480000I-20000J0D01*
G01*
X16280000Y-10912500D02*
G75*
G03*
X16280000Y-10912500I-20000J0D01*
G01*
X16305000Y-8927500D02*
G75*
G03*
X16305000Y-8927500I-20000J0D01*
G01*
X16375000Y-10472500D02*
G75*
G03*
X16375000Y-10472500I-20000J0D01*
G01*
X16420000Y-8930000D02*
G75*
G03*
X16420000Y-8930000I-20000J0D01*
G01*
X16420000Y-10922500D02*
G75*
G03*
X16420000Y-10922500I-20000J0D01*
G01*
X16460000Y-9217500D02*
G75*
G03*
X16460000Y-9217500I-20000J0D01*
G01*
X16542500Y-10475000D02*
G75*
G03*
X16542500Y-10475000I-20000J0D01*
G01*
X16570000Y-10922500D02*
G75*
G03*
X16570000Y-10922500I-20000J0D01*
G01*
X16580000Y-9220000D02*
G75*
G03*
X16580000Y-9220000I-20000J0D01*
G01*
X9910500Y-11153500D02*
X9910500Y-11253500D01*
X9860500Y-11203500D02*
X9960500Y-11203500D01*
X9910500Y-11407500D02*
X9910500Y-11507500D01*
X9860500Y-11457500D02*
X9960500Y-11457500D01*
X9910500Y-11661500D02*
X9910500Y-11761500D01*
X9860500Y-11711500D02*
X9960500Y-11711500D01*
X10164500Y-11153500D02*
X10164500Y-11253500D01*
X10114500Y-11203500D02*
X10214500Y-11203500D01*
X10164500Y-11407500D02*
X10164500Y-11507500D01*
X10114500Y-11457500D02*
X10214500Y-11457500D01*
X10164500Y-11661500D02*
X10164500Y-11761500D01*
X10114500Y-11711500D02*
X10214500Y-11711500D01*
X14984169Y-12304169D02*
X14984169Y-12210830D01*
X14890830Y-12210830D01*
X14890830Y-12304169D01*
X14984169Y-12304169D01*
X15484169Y-12304169D02*
X15484169Y-12210830D01*
X15390830Y-12210830D01*
X15390830Y-12304169D01*
X15484169Y-12304169D01*
X11198500Y-8401500D02*
X11290000Y-8310000D01*
X11198500Y-8218500D01*
X11107000Y-8310000D01*
X11198500Y-8401500D01*
X11198500Y-13201500D02*
X11290000Y-13110000D01*
X11198500Y-13018500D01*
X11107000Y-13110000D01*
X11198500Y-13201500D01*
X11452500Y-7639500D02*
X11544000Y-7548000D01*
X11452500Y-7456500D01*
X11361000Y-7548000D01*
X11452500Y-7639500D01*
X11452500Y-13963500D02*
X11544000Y-13872000D01*
X11452500Y-13780500D01*
X11361000Y-13872000D01*
X11452500Y-13963500D01*
X11706500Y-8401500D02*
X11798000Y-8310000D01*
X11706500Y-8218500D01*
X11615000Y-8310000D01*
X11706500Y-8401500D01*
X11706500Y-13201500D02*
X11798000Y-13110000D01*
X11706500Y-13018500D01*
X11615000Y-13110000D01*
X11706500Y-13201500D01*
X13323500Y-8401500D02*
X13415000Y-8310000D01*
X13323500Y-8218500D01*
X13232000Y-8310000D01*
X13323500Y-8401500D01*
X13323500Y-13201500D02*
X13415000Y-13110000D01*
X13323500Y-13018500D01*
X13232000Y-13110000D01*
X13323500Y-13201500D01*
X13577500Y-7639500D02*
X13669000Y-7548000D01*
X13577500Y-7456500D01*
X13486000Y-7548000D01*
X13577500Y-7639500D01*
X13577500Y-13963500D02*
X13669000Y-13872000D01*
X13577500Y-13780500D01*
X13486000Y-13872000D01*
X13577500Y-13963500D01*
X13831500Y-8401500D02*
X13923000Y-8310000D01*
X13831500Y-8218500D01*
X13740000Y-8310000D01*
X13831500Y-8401500D01*
X13831500Y-13201500D02*
X13923000Y-13110000D01*
X13831500Y-13018500D01*
X13740000Y-13110000D01*
X13831500Y-13201500D01*
D12*
X8983928Y-15200714D02*
X8983928Y-14900714D01*
X9055357Y-14900714D01*
X9098214Y-14915000D01*
X9126786Y-14943571D01*
X9141071Y-14972143D01*
X9155357Y-15029286D01*
X9155357Y-15072143D01*
X9141071Y-15129286D01*
X9126786Y-15157857D01*
X9098214Y-15186429D01*
X9055357Y-15200714D01*
X8983928Y-15200714D01*
X9283928Y-15200714D02*
X9283928Y-15000714D01*
X9283928Y-15057857D02*
X9298214Y-15029286D01*
X9312500Y-15015000D01*
X9341071Y-15000714D01*
X9369643Y-15000714D01*
X9469643Y-15200714D02*
X9469643Y-15000714D01*
X9469643Y-14900714D02*
X9455357Y-14915000D01*
X9469643Y-14929286D01*
X9483928Y-14915000D01*
X9469643Y-14900714D01*
X9469643Y-14929286D01*
X9655357Y-15200714D02*
X9626786Y-15186429D01*
X9612500Y-15157857D01*
X9612500Y-14900714D01*
X9812500Y-15200714D02*
X9783928Y-15186429D01*
X9769643Y-15157857D01*
X9769643Y-14900714D01*
X10155357Y-15200714D02*
X10155357Y-14900714D01*
X10255357Y-15115000D01*
X10355357Y-14900714D01*
X10355357Y-15200714D01*
X10626786Y-15200714D02*
X10626786Y-15043571D01*
X10612500Y-15015000D01*
X10583928Y-15000714D01*
X10526786Y-15000714D01*
X10498214Y-15015000D01*
X10626786Y-15186429D02*
X10598214Y-15200714D01*
X10526786Y-15200714D01*
X10498214Y-15186429D01*
X10483928Y-15157857D01*
X10483928Y-15129286D01*
X10498214Y-15100714D01*
X10526786Y-15086429D01*
X10598214Y-15086429D01*
X10626786Y-15072143D01*
X10769643Y-15000714D02*
X10769643Y-15300714D01*
X10769643Y-15015000D02*
X10798214Y-15000714D01*
X10855357Y-15000714D01*
X10883928Y-15015000D01*
X10898214Y-15029286D01*
X10912500Y-15057857D01*
X10912500Y-15143571D01*
X10898214Y-15172143D01*
X10883928Y-15186429D01*
X10855357Y-15200714D01*
X10798214Y-15200714D01*
X10769643Y-15186429D01*
X11041071Y-15172143D02*
X11055357Y-15186429D01*
X11041071Y-15200714D01*
X11026786Y-15186429D01*
X11041071Y-15172143D01*
X11041071Y-15200714D01*
X11041071Y-15015000D02*
X11055357Y-15029286D01*
X11041071Y-15043571D01*
X11026786Y-15029286D01*
X11041071Y-15015000D01*
X11041071Y-15043571D01*
X8677500Y-15685000D02*
X8697500Y-15705000D01*
X8697500Y-15685000D02*
X8677500Y-15705000D01*
X9041071Y-15530714D02*
X9069643Y-15530714D01*
X9098214Y-15545000D01*
X9112500Y-15559286D01*
X9126786Y-15587857D01*
X9141071Y-15645000D01*
X9141071Y-15716429D01*
X9126786Y-15773571D01*
X9112500Y-15802143D01*
X9098214Y-15816429D01*
X9069643Y-15830714D01*
X9041071Y-15830714D01*
X9012500Y-15816429D01*
X8998214Y-15802143D01*
X8983928Y-15773571D01*
X8969643Y-15716429D01*
X8969643Y-15645000D01*
X8983928Y-15587857D01*
X8998214Y-15559286D01*
X9012500Y-15545000D01*
X9041071Y-15530714D01*
X9269643Y-15802143D02*
X9283928Y-15816429D01*
X9269643Y-15830714D01*
X9255357Y-15816429D01*
X9269643Y-15802143D01*
X9269643Y-15830714D01*
X9398214Y-15559286D02*
X9412500Y-15545000D01*
X9441071Y-15530714D01*
X9512500Y-15530714D01*
X9541071Y-15545000D01*
X9555357Y-15559286D01*
X9569643Y-15587857D01*
X9569643Y-15616429D01*
X9555357Y-15659286D01*
X9383928Y-15830714D01*
X9569643Y-15830714D01*
X9755357Y-15530714D02*
X9783928Y-15530714D01*
X9812500Y-15545000D01*
X9826786Y-15559286D01*
X9841071Y-15587857D01*
X9855357Y-15645000D01*
X9855357Y-15716429D01*
X9841071Y-15773571D01*
X9826786Y-15802143D01*
X9812500Y-15816429D01*
X9783928Y-15830714D01*
X9755357Y-15830714D01*
X9726786Y-15816429D01*
X9712500Y-15802143D01*
X9698214Y-15773571D01*
X9683928Y-15716429D01*
X9683928Y-15645000D01*
X9698214Y-15587857D01*
X9712500Y-15559286D01*
X9726786Y-15545000D01*
X9755357Y-15530714D01*
X9983928Y-15830714D02*
X9983928Y-15630714D01*
X9983928Y-15659286D02*
X9998214Y-15645000D01*
X10026786Y-15630714D01*
X10069643Y-15630714D01*
X10098214Y-15645000D01*
X10112500Y-15673571D01*
X10112500Y-15830714D01*
X10112500Y-15673571D02*
X10126786Y-15645000D01*
X10155357Y-15630714D01*
X10198214Y-15630714D01*
X10226786Y-15645000D01*
X10241071Y-15673571D01*
X10241071Y-15830714D01*
X10383928Y-15830714D02*
X10383928Y-15630714D01*
X10383928Y-15659286D02*
X10398214Y-15645000D01*
X10426786Y-15630714D01*
X10469643Y-15630714D01*
X10498214Y-15645000D01*
X10512500Y-15673571D01*
X10512500Y-15830714D01*
X10512500Y-15673571D02*
X10526786Y-15645000D01*
X10555357Y-15630714D01*
X10598214Y-15630714D01*
X10626786Y-15645000D01*
X10641071Y-15673571D01*
X10641071Y-15830714D01*
X11226786Y-15516429D02*
X10969643Y-15902143D01*
X11612500Y-15530714D02*
X11641071Y-15530714D01*
X11669643Y-15545000D01*
X11683928Y-15559286D01*
X11698214Y-15587857D01*
X11712500Y-15645000D01*
X11712500Y-15716429D01*
X11698214Y-15773571D01*
X11683928Y-15802143D01*
X11669643Y-15816429D01*
X11641071Y-15830714D01*
X11612500Y-15830714D01*
X11583928Y-15816429D01*
X11569643Y-15802143D01*
X11555357Y-15773571D01*
X11541071Y-15716429D01*
X11541071Y-15645000D01*
X11555357Y-15587857D01*
X11569643Y-15559286D01*
X11583928Y-15545000D01*
X11612500Y-15530714D01*
X11841071Y-15802143D02*
X11855357Y-15816429D01*
X11841071Y-15830714D01*
X11826786Y-15816429D01*
X11841071Y-15802143D01*
X11841071Y-15830714D01*
X12041071Y-15530714D02*
X12069643Y-15530714D01*
X12098214Y-15545000D01*
X12112500Y-15559286D01*
X12126786Y-15587857D01*
X12141071Y-15645000D01*
X12141071Y-15716429D01*
X12126786Y-15773571D01*
X12112500Y-15802143D01*
X12098214Y-15816429D01*
X12069643Y-15830714D01*
X12041071Y-15830714D01*
X12012500Y-15816429D01*
X11998214Y-15802143D01*
X11983928Y-15773571D01*
X11969643Y-15716429D01*
X11969643Y-15645000D01*
X11983928Y-15587857D01*
X11998214Y-15559286D01*
X12012500Y-15545000D01*
X12041071Y-15530714D01*
X12326786Y-15530714D02*
X12355357Y-15530714D01*
X12383928Y-15545000D01*
X12398214Y-15559286D01*
X12412500Y-15587857D01*
X12426786Y-15645000D01*
X12426786Y-15716429D01*
X12412500Y-15773571D01*
X12398214Y-15802143D01*
X12383928Y-15816429D01*
X12355357Y-15830714D01*
X12326786Y-15830714D01*
X12298214Y-15816429D01*
X12283928Y-15802143D01*
X12269643Y-15773571D01*
X12255357Y-15716429D01*
X12255357Y-15645000D01*
X12269643Y-15587857D01*
X12283928Y-15559286D01*
X12298214Y-15545000D01*
X12326786Y-15530714D01*
X12598214Y-15659286D02*
X12569643Y-15645000D01*
X12555357Y-15630714D01*
X12541071Y-15602143D01*
X12541071Y-15587857D01*
X12555357Y-15559286D01*
X12569643Y-15545000D01*
X12598214Y-15530714D01*
X12655357Y-15530714D01*
X12683928Y-15545000D01*
X12698214Y-15559286D01*
X12712500Y-15587857D01*
X12712500Y-15602143D01*
X12698214Y-15630714D01*
X12683928Y-15645000D01*
X12655357Y-15659286D01*
X12598214Y-15659286D01*
X12569643Y-15673571D01*
X12555357Y-15687857D01*
X12541071Y-15716429D01*
X12541071Y-15773571D01*
X12555357Y-15802143D01*
X12569643Y-15816429D01*
X12598214Y-15830714D01*
X12655357Y-15830714D01*
X12683928Y-15816429D01*
X12698214Y-15802143D01*
X12712500Y-15773571D01*
X12712500Y-15716429D01*
X12698214Y-15687857D01*
X12683928Y-15673571D01*
X12655357Y-15659286D01*
X12826786Y-15530714D02*
X12826786Y-15587857D01*
X12941071Y-15530714D02*
X12941071Y-15587857D01*
X13383928Y-15945000D02*
X13369643Y-15930714D01*
X13341071Y-15887857D01*
X13326786Y-15859286D01*
X13312500Y-15816429D01*
X13298214Y-15745000D01*
X13298214Y-15687857D01*
X13312500Y-15616429D01*
X13326786Y-15573571D01*
X13341071Y-15545000D01*
X13369643Y-15502143D01*
X13383928Y-15487857D01*
X13626786Y-15530714D02*
X13569643Y-15530714D01*
X13541071Y-15545000D01*
X13526786Y-15559286D01*
X13498214Y-15602143D01*
X13483928Y-15659286D01*
X13483928Y-15773571D01*
X13498214Y-15802143D01*
X13512500Y-15816429D01*
X13541071Y-15830714D01*
X13598214Y-15830714D01*
X13626786Y-15816429D01*
X13641071Y-15802143D01*
X13655357Y-15773571D01*
X13655357Y-15702143D01*
X13641071Y-15673571D01*
X13626786Y-15659286D01*
X13598214Y-15645000D01*
X13541071Y-15645000D01*
X13512500Y-15659286D01*
X13498214Y-15673571D01*
X13483928Y-15702143D01*
X14012500Y-15830714D02*
X14012500Y-15530714D01*
X14141071Y-15830714D02*
X14141071Y-15673571D01*
X14126786Y-15645000D01*
X14098214Y-15630714D01*
X14055357Y-15630714D01*
X14026786Y-15645000D01*
X14012500Y-15659286D01*
X14326786Y-15830714D02*
X14298214Y-15816429D01*
X14283928Y-15802143D01*
X14269643Y-15773571D01*
X14269643Y-15687857D01*
X14283928Y-15659286D01*
X14298214Y-15645000D01*
X14326786Y-15630714D01*
X14369643Y-15630714D01*
X14398214Y-15645000D01*
X14412500Y-15659286D01*
X14426786Y-15687857D01*
X14426786Y-15773571D01*
X14412500Y-15802143D01*
X14398214Y-15816429D01*
X14369643Y-15830714D01*
X14326786Y-15830714D01*
X14598214Y-15830714D02*
X14569643Y-15816429D01*
X14555357Y-15787857D01*
X14555357Y-15530714D01*
X14826786Y-15816429D02*
X14798214Y-15830714D01*
X14741071Y-15830714D01*
X14712500Y-15816429D01*
X14698214Y-15787857D01*
X14698214Y-15673571D01*
X14712500Y-15645000D01*
X14741071Y-15630714D01*
X14798214Y-15630714D01*
X14826786Y-15645000D01*
X14841071Y-15673571D01*
X14841071Y-15702143D01*
X14698214Y-15730714D01*
X14955357Y-15816429D02*
X14983928Y-15830714D01*
X15041071Y-15830714D01*
X15069643Y-15816429D01*
X15083928Y-15787857D01*
X15083928Y-15773571D01*
X15069643Y-15745000D01*
X15041071Y-15730714D01*
X14998214Y-15730714D01*
X14969643Y-15716429D01*
X14955357Y-15687857D01*
X14955357Y-15673571D01*
X14969643Y-15645000D01*
X14998214Y-15630714D01*
X15041071Y-15630714D01*
X15069643Y-15645000D01*
X15183928Y-15945000D02*
X15198214Y-15930714D01*
X15226786Y-15887857D01*
X15241071Y-15859286D01*
X15255357Y-15816429D01*
X15269643Y-15745000D01*
X15269643Y-15687857D01*
X15255357Y-15616429D01*
X15241071Y-15573571D01*
X15226786Y-15545000D01*
X15198214Y-15502143D01*
X15183928Y-15487857D01*
X8697500Y-16091000D02*
G75*
G03*
X8697500Y-16091000I-20000J0D01*
G01*
X9041071Y-15926714D02*
X9069643Y-15926714D01*
X9098214Y-15941000D01*
X9112500Y-15955286D01*
X9126786Y-15983857D01*
X9141071Y-16041000D01*
X9141071Y-16112429D01*
X9126786Y-16169571D01*
X9112500Y-16198143D01*
X9098214Y-16212429D01*
X9069643Y-16226714D01*
X9041071Y-16226714D01*
X9012500Y-16212429D01*
X8998214Y-16198143D01*
X8983928Y-16169571D01*
X8969643Y-16112429D01*
X8969643Y-16041000D01*
X8983928Y-15983857D01*
X8998214Y-15955286D01*
X9012500Y-15941000D01*
X9041071Y-15926714D01*
X9269643Y-16198143D02*
X9283928Y-16212429D01*
X9269643Y-16226714D01*
X9255357Y-16212429D01*
X9269643Y-16198143D01*
X9269643Y-16226714D01*
X9541071Y-16026714D02*
X9541071Y-16226714D01*
X9469643Y-15912429D02*
X9398214Y-16126714D01*
X9583928Y-16126714D01*
X9755357Y-15926714D02*
X9783928Y-15926714D01*
X9812500Y-15941000D01*
X9826786Y-15955286D01*
X9841071Y-15983857D01*
X9855357Y-16041000D01*
X9855357Y-16112429D01*
X9841071Y-16169571D01*
X9826786Y-16198143D01*
X9812500Y-16212429D01*
X9783928Y-16226714D01*
X9755357Y-16226714D01*
X9726786Y-16212429D01*
X9712500Y-16198143D01*
X9698214Y-16169571D01*
X9683928Y-16112429D01*
X9683928Y-16041000D01*
X9698214Y-15983857D01*
X9712500Y-15955286D01*
X9726786Y-15941000D01*
X9755357Y-15926714D01*
X9983928Y-16226714D02*
X9983928Y-16026714D01*
X9983928Y-16055286D02*
X9998214Y-16041000D01*
X10026786Y-16026714D01*
X10069643Y-16026714D01*
X10098214Y-16041000D01*
X10112500Y-16069571D01*
X10112500Y-16226714D01*
X10112500Y-16069571D02*
X10126786Y-16041000D01*
X10155357Y-16026714D01*
X10198214Y-16026714D01*
X10226786Y-16041000D01*
X10241071Y-16069571D01*
X10241071Y-16226714D01*
X10383928Y-16226714D02*
X10383928Y-16026714D01*
X10383928Y-16055286D02*
X10398214Y-16041000D01*
X10426786Y-16026714D01*
X10469643Y-16026714D01*
X10498214Y-16041000D01*
X10512500Y-16069571D01*
X10512500Y-16226714D01*
X10512500Y-16069571D02*
X10526786Y-16041000D01*
X10555357Y-16026714D01*
X10598214Y-16026714D01*
X10626786Y-16041000D01*
X10641071Y-16069571D01*
X10641071Y-16226714D01*
X11226786Y-15912429D02*
X10969643Y-16298143D01*
X11612500Y-15926714D02*
X11641071Y-15926714D01*
X11669643Y-15941000D01*
X11683928Y-15955286D01*
X11698214Y-15983857D01*
X11712500Y-16041000D01*
X11712500Y-16112429D01*
X11698214Y-16169571D01*
X11683928Y-16198143D01*
X11669643Y-16212429D01*
X11641071Y-16226714D01*
X11612500Y-16226714D01*
X11583928Y-16212429D01*
X11569643Y-16198143D01*
X11555357Y-16169571D01*
X11541071Y-16112429D01*
X11541071Y-16041000D01*
X11555357Y-15983857D01*
X11569643Y-15955286D01*
X11583928Y-15941000D01*
X11612500Y-15926714D01*
X11841071Y-16198143D02*
X11855357Y-16212429D01*
X11841071Y-16226714D01*
X11826786Y-16212429D01*
X11841071Y-16198143D01*
X11841071Y-16226714D01*
X12041071Y-15926714D02*
X12069643Y-15926714D01*
X12098214Y-15941000D01*
X12112500Y-15955286D01*
X12126786Y-15983857D01*
X12141071Y-16041000D01*
X12141071Y-16112429D01*
X12126786Y-16169571D01*
X12112500Y-16198143D01*
X12098214Y-16212429D01*
X12069643Y-16226714D01*
X12041071Y-16226714D01*
X12012500Y-16212429D01*
X11998214Y-16198143D01*
X11983928Y-16169571D01*
X11969643Y-16112429D01*
X11969643Y-16041000D01*
X11983928Y-15983857D01*
X11998214Y-15955286D01*
X12012500Y-15941000D01*
X12041071Y-15926714D01*
X12426786Y-16226714D02*
X12255357Y-16226714D01*
X12341071Y-16226714D02*
X12341071Y-15926714D01*
X12312500Y-15969571D01*
X12283928Y-15998143D01*
X12255357Y-16012429D01*
X12683928Y-15926714D02*
X12626786Y-15926714D01*
X12598214Y-15941000D01*
X12583928Y-15955286D01*
X12555357Y-15998143D01*
X12541071Y-16055286D01*
X12541071Y-16169571D01*
X12555357Y-16198143D01*
X12569643Y-16212429D01*
X12598214Y-16226714D01*
X12655357Y-16226714D01*
X12683928Y-16212429D01*
X12698214Y-16198143D01*
X12712500Y-16169571D01*
X12712500Y-16098143D01*
X12698214Y-16069571D01*
X12683928Y-16055286D01*
X12655357Y-16041000D01*
X12598214Y-16041000D01*
X12569643Y-16055286D01*
X12555357Y-16069571D01*
X12541071Y-16098143D01*
X12826786Y-15926714D02*
X12826786Y-15983857D01*
X12941071Y-15926714D02*
X12941071Y-15983857D01*
X13383928Y-16341000D02*
X13369643Y-16326714D01*
X13341071Y-16283857D01*
X13326786Y-16255286D01*
X13312500Y-16212429D01*
X13298214Y-16141000D01*
X13298214Y-16083857D01*
X13312500Y-16012429D01*
X13326786Y-15969571D01*
X13341071Y-15941000D01*
X13369643Y-15898143D01*
X13383928Y-15883857D01*
X13655357Y-16226714D02*
X13483928Y-16226714D01*
X13569643Y-16226714D02*
X13569643Y-15926714D01*
X13541071Y-15969571D01*
X13512500Y-15998143D01*
X13483928Y-16012429D01*
X13926786Y-15926714D02*
X13783928Y-15926714D01*
X13769643Y-16069571D01*
X13783928Y-16055286D01*
X13812500Y-16041000D01*
X13883928Y-16041000D01*
X13912500Y-16055286D01*
X13926786Y-16069571D01*
X13941071Y-16098143D01*
X13941071Y-16169571D01*
X13926786Y-16198143D01*
X13912500Y-16212429D01*
X13883928Y-16226714D01*
X13812500Y-16226714D01*
X13783928Y-16212429D01*
X13769643Y-16198143D01*
X14126786Y-15926714D02*
X14155357Y-15926714D01*
X14183928Y-15941000D01*
X14198214Y-15955286D01*
X14212500Y-15983857D01*
X14226786Y-16041000D01*
X14226786Y-16112429D01*
X14212500Y-16169571D01*
X14198214Y-16198143D01*
X14183928Y-16212429D01*
X14155357Y-16226714D01*
X14126786Y-16226714D01*
X14098214Y-16212429D01*
X14083928Y-16198143D01*
X14069643Y-16169571D01*
X14055357Y-16112429D01*
X14055357Y-16041000D01*
X14069643Y-15983857D01*
X14083928Y-15955286D01*
X14098214Y-15941000D01*
X14126786Y-15926714D01*
X14583928Y-16226714D02*
X14583928Y-15926714D01*
X14712500Y-16226714D02*
X14712500Y-16069571D01*
X14698214Y-16041000D01*
X14669643Y-16026714D01*
X14626786Y-16026714D01*
X14598214Y-16041000D01*
X14583928Y-16055286D01*
X14898214Y-16226714D02*
X14869643Y-16212429D01*
X14855357Y-16198143D01*
X14841071Y-16169571D01*
X14841071Y-16083857D01*
X14855357Y-16055286D01*
X14869643Y-16041000D01*
X14898214Y-16026714D01*
X14941071Y-16026714D01*
X14969643Y-16041000D01*
X14983928Y-16055286D01*
X14998214Y-16083857D01*
X14998214Y-16169571D01*
X14983928Y-16198143D01*
X14969643Y-16212429D01*
X14941071Y-16226714D01*
X14898214Y-16226714D01*
X15169643Y-16226714D02*
X15141071Y-16212429D01*
X15126786Y-16183857D01*
X15126786Y-15926714D01*
X15398214Y-16212429D02*
X15369643Y-16226714D01*
X15312500Y-16226714D01*
X15283928Y-16212429D01*
X15269643Y-16183857D01*
X15269643Y-16069571D01*
X15283928Y-16041000D01*
X15312500Y-16026714D01*
X15369643Y-16026714D01*
X15398214Y-16041000D01*
X15412500Y-16069571D01*
X15412500Y-16098143D01*
X15269643Y-16126714D01*
X15526786Y-16212429D02*
X15555357Y-16226714D01*
X15612500Y-16226714D01*
X15641071Y-16212429D01*
X15655357Y-16183857D01*
X15655357Y-16169571D01*
X15641071Y-16141000D01*
X15612500Y-16126714D01*
X15569643Y-16126714D01*
X15541071Y-16112429D01*
X15526786Y-16083857D01*
X15526786Y-16069571D01*
X15541071Y-16041000D01*
X15569643Y-16026714D01*
X15612500Y-16026714D01*
X15641071Y-16041000D01*
X15755357Y-16341000D02*
X15769643Y-16326714D01*
X15798214Y-16283857D01*
X15812500Y-16255286D01*
X15826786Y-16212429D01*
X15841071Y-16141000D01*
X15841071Y-16083857D01*
X15826786Y-16012429D01*
X15812500Y-15969571D01*
X15798214Y-15941000D01*
X15769643Y-15898143D01*
X15755357Y-15883857D01*
X8647500Y-16437000D02*
X8647500Y-16537000D01*
X8597500Y-16487000D02*
X8697500Y-16487000D01*
X9141071Y-16622714D02*
X8969643Y-16622714D01*
X9055357Y-16622714D02*
X9055357Y-16322714D01*
X9026786Y-16365571D01*
X8998214Y-16394143D01*
X8969643Y-16408429D01*
X9269643Y-16594143D02*
X9283928Y-16608429D01*
X9269643Y-16622714D01*
X9255357Y-16608429D01*
X9269643Y-16594143D01*
X9269643Y-16622714D01*
X9469643Y-16322714D02*
X9498214Y-16322714D01*
X9526786Y-16337000D01*
X9541071Y-16351286D01*
X9555357Y-16379857D01*
X9569643Y-16437000D01*
X9569643Y-16508429D01*
X9555357Y-16565571D01*
X9541071Y-16594143D01*
X9526786Y-16608429D01*
X9498214Y-16622714D01*
X9469643Y-16622714D01*
X9441071Y-16608429D01*
X9426786Y-16594143D01*
X9412500Y-16565571D01*
X9398214Y-16508429D01*
X9398214Y-16437000D01*
X9412500Y-16379857D01*
X9426786Y-16351286D01*
X9441071Y-16337000D01*
X9469643Y-16322714D01*
X9755357Y-16322714D02*
X9783928Y-16322714D01*
X9812500Y-16337000D01*
X9826786Y-16351286D01*
X9841071Y-16379857D01*
X9855357Y-16437000D01*
X9855357Y-16508429D01*
X9841071Y-16565571D01*
X9826786Y-16594143D01*
X9812500Y-16608429D01*
X9783928Y-16622714D01*
X9755357Y-16622714D01*
X9726786Y-16608429D01*
X9712500Y-16594143D01*
X9698214Y-16565571D01*
X9683928Y-16508429D01*
X9683928Y-16437000D01*
X9698214Y-16379857D01*
X9712500Y-16351286D01*
X9726786Y-16337000D01*
X9755357Y-16322714D01*
X9983928Y-16622714D02*
X9983928Y-16422714D01*
X9983928Y-16451286D02*
X9998214Y-16437000D01*
X10026786Y-16422714D01*
X10069643Y-16422714D01*
X10098214Y-16437000D01*
X10112500Y-16465571D01*
X10112500Y-16622714D01*
X10112500Y-16465571D02*
X10126786Y-16437000D01*
X10155357Y-16422714D01*
X10198214Y-16422714D01*
X10226786Y-16437000D01*
X10241071Y-16465571D01*
X10241071Y-16622714D01*
X10383928Y-16622714D02*
X10383928Y-16422714D01*
X10383928Y-16451286D02*
X10398214Y-16437000D01*
X10426786Y-16422714D01*
X10469643Y-16422714D01*
X10498214Y-16437000D01*
X10512500Y-16465571D01*
X10512500Y-16622714D01*
X10512500Y-16465571D02*
X10526786Y-16437000D01*
X10555357Y-16422714D01*
X10598214Y-16422714D01*
X10626786Y-16437000D01*
X10641071Y-16465571D01*
X10641071Y-16622714D01*
X11226786Y-16308429D02*
X10969643Y-16694143D01*
X11612500Y-16322714D02*
X11641071Y-16322714D01*
X11669643Y-16337000D01*
X11683928Y-16351286D01*
X11698214Y-16379857D01*
X11712500Y-16437000D01*
X11712500Y-16508429D01*
X11698214Y-16565571D01*
X11683928Y-16594143D01*
X11669643Y-16608429D01*
X11641071Y-16622714D01*
X11612500Y-16622714D01*
X11583928Y-16608429D01*
X11569643Y-16594143D01*
X11555357Y-16565571D01*
X11541071Y-16508429D01*
X11541071Y-16437000D01*
X11555357Y-16379857D01*
X11569643Y-16351286D01*
X11583928Y-16337000D01*
X11612500Y-16322714D01*
X11841071Y-16594143D02*
X11855357Y-16608429D01*
X11841071Y-16622714D01*
X11826786Y-16608429D01*
X11841071Y-16594143D01*
X11841071Y-16622714D01*
X12041071Y-16322714D02*
X12069643Y-16322714D01*
X12098214Y-16337000D01*
X12112500Y-16351286D01*
X12126786Y-16379857D01*
X12141071Y-16437000D01*
X12141071Y-16508429D01*
X12126786Y-16565571D01*
X12112500Y-16594143D01*
X12098214Y-16608429D01*
X12069643Y-16622714D01*
X12041071Y-16622714D01*
X12012500Y-16608429D01*
X11998214Y-16594143D01*
X11983928Y-16565571D01*
X11969643Y-16508429D01*
X11969643Y-16437000D01*
X11983928Y-16379857D01*
X11998214Y-16351286D01*
X12012500Y-16337000D01*
X12041071Y-16322714D01*
X12241071Y-16322714D02*
X12426786Y-16322714D01*
X12326786Y-16437000D01*
X12369643Y-16437000D01*
X12398214Y-16451286D01*
X12412500Y-16465571D01*
X12426786Y-16494143D01*
X12426786Y-16565571D01*
X12412500Y-16594143D01*
X12398214Y-16608429D01*
X12369643Y-16622714D01*
X12283928Y-16622714D01*
X12255357Y-16608429D01*
X12241071Y-16594143D01*
X12569643Y-16622714D02*
X12626786Y-16622714D01*
X12655357Y-16608429D01*
X12669643Y-16594143D01*
X12698214Y-16551286D01*
X12712500Y-16494143D01*
X12712500Y-16379857D01*
X12698214Y-16351286D01*
X12683928Y-16337000D01*
X12655357Y-16322714D01*
X12598214Y-16322714D01*
X12569643Y-16337000D01*
X12555357Y-16351286D01*
X12541071Y-16379857D01*
X12541071Y-16451286D01*
X12555357Y-16479857D01*
X12569643Y-16494143D01*
X12598214Y-16508429D01*
X12655357Y-16508429D01*
X12683928Y-16494143D01*
X12698214Y-16479857D01*
X12712500Y-16451286D01*
X12826786Y-16322714D02*
X12826786Y-16379857D01*
X12941071Y-16322714D02*
X12941071Y-16379857D01*
X13383928Y-16737000D02*
X13369643Y-16722714D01*
X13341071Y-16679857D01*
X13326786Y-16651286D01*
X13312500Y-16608429D01*
X13298214Y-16537000D01*
X13298214Y-16479857D01*
X13312500Y-16408429D01*
X13326786Y-16365571D01*
X13341071Y-16337000D01*
X13369643Y-16294143D01*
X13383928Y-16279857D01*
X13626786Y-16322714D02*
X13569643Y-16322714D01*
X13541071Y-16337000D01*
X13526786Y-16351286D01*
X13498214Y-16394143D01*
X13483928Y-16451286D01*
X13483928Y-16565571D01*
X13498214Y-16594143D01*
X13512500Y-16608429D01*
X13541071Y-16622714D01*
X13598214Y-16622714D01*
X13626786Y-16608429D01*
X13641071Y-16594143D01*
X13655357Y-16565571D01*
X13655357Y-16494143D01*
X13641071Y-16465571D01*
X13626786Y-16451286D01*
X13598214Y-16437000D01*
X13541071Y-16437000D01*
X13512500Y-16451286D01*
X13498214Y-16465571D01*
X13483928Y-16494143D01*
X14012500Y-16622714D02*
X14012500Y-16322714D01*
X14141071Y-16622714D02*
X14141071Y-16465571D01*
X14126786Y-16437000D01*
X14098214Y-16422714D01*
X14055357Y-16422714D01*
X14026786Y-16437000D01*
X14012500Y-16451286D01*
X14326786Y-16622714D02*
X14298214Y-16608429D01*
X14283928Y-16594143D01*
X14269643Y-16565571D01*
X14269643Y-16479857D01*
X14283928Y-16451286D01*
X14298214Y-16437000D01*
X14326786Y-16422714D01*
X14369643Y-16422714D01*
X14398214Y-16437000D01*
X14412500Y-16451286D01*
X14426786Y-16479857D01*
X14426786Y-16565571D01*
X14412500Y-16594143D01*
X14398214Y-16608429D01*
X14369643Y-16622714D01*
X14326786Y-16622714D01*
X14598214Y-16622714D02*
X14569643Y-16608429D01*
X14555357Y-16579857D01*
X14555357Y-16322714D01*
X14826786Y-16608429D02*
X14798214Y-16622714D01*
X14741071Y-16622714D01*
X14712500Y-16608429D01*
X14698214Y-16579857D01*
X14698214Y-16465571D01*
X14712500Y-16437000D01*
X14741071Y-16422714D01*
X14798214Y-16422714D01*
X14826786Y-16437000D01*
X14841071Y-16465571D01*
X14841071Y-16494143D01*
X14698214Y-16522714D01*
X14955357Y-16608429D02*
X14983928Y-16622714D01*
X15041071Y-16622714D01*
X15069643Y-16608429D01*
X15083928Y-16579857D01*
X15083928Y-16565571D01*
X15069643Y-16537000D01*
X15041071Y-16522714D01*
X14998214Y-16522714D01*
X14969643Y-16508429D01*
X14955357Y-16479857D01*
X14955357Y-16465571D01*
X14969643Y-16437000D01*
X14998214Y-16422714D01*
X15041071Y-16422714D01*
X15069643Y-16437000D01*
X15183928Y-16737000D02*
X15198214Y-16722714D01*
X15226786Y-16679857D01*
X15241071Y-16651286D01*
X15255357Y-16608429D01*
X15269643Y-16537000D01*
X15269643Y-16479857D01*
X15255357Y-16408429D01*
X15241071Y-16365571D01*
X15226786Y-16337000D01*
X15198214Y-16294143D01*
X15183928Y-16279857D01*
X8678169Y-16929670D02*
X8678169Y-16836331D01*
X8584830Y-16836331D01*
X8584830Y-16929670D01*
X8678169Y-16929670D01*
X9141071Y-17018714D02*
X8969643Y-17018714D01*
X9055357Y-17018714D02*
X9055357Y-16718714D01*
X9026786Y-16761571D01*
X8998214Y-16790143D01*
X8969643Y-16804429D01*
X9269643Y-16990143D02*
X9283928Y-17004429D01*
X9269643Y-17018714D01*
X9255357Y-17004429D01*
X9269643Y-16990143D01*
X9269643Y-17018714D01*
X9383928Y-16718714D02*
X9569643Y-16718714D01*
X9469643Y-16833000D01*
X9512500Y-16833000D01*
X9541071Y-16847286D01*
X9555357Y-16861572D01*
X9569643Y-16890143D01*
X9569643Y-16961572D01*
X9555357Y-16990143D01*
X9541071Y-17004429D01*
X9512500Y-17018714D01*
X9426786Y-17018714D01*
X9398214Y-17004429D01*
X9383928Y-16990143D01*
X9683928Y-16747286D02*
X9698214Y-16733000D01*
X9726786Y-16718714D01*
X9798214Y-16718714D01*
X9826786Y-16733000D01*
X9841071Y-16747286D01*
X9855357Y-16775857D01*
X9855357Y-16804429D01*
X9841071Y-16847286D01*
X9669643Y-17018714D01*
X9855357Y-17018714D01*
X9983928Y-17018714D02*
X9983928Y-16818714D01*
X9983928Y-16847286D02*
X9998214Y-16833000D01*
X10026786Y-16818714D01*
X10069643Y-16818714D01*
X10098214Y-16833000D01*
X10112500Y-16861572D01*
X10112500Y-17018714D01*
X10112500Y-16861572D02*
X10126786Y-16833000D01*
X10155357Y-16818714D01*
X10198214Y-16818714D01*
X10226786Y-16833000D01*
X10241071Y-16861572D01*
X10241071Y-17018714D01*
X10383928Y-17018714D02*
X10383928Y-16818714D01*
X10383928Y-16847286D02*
X10398214Y-16833000D01*
X10426786Y-16818714D01*
X10469643Y-16818714D01*
X10498214Y-16833000D01*
X10512500Y-16861572D01*
X10512500Y-17018714D01*
X10512500Y-16861572D02*
X10526786Y-16833000D01*
X10555357Y-16818714D01*
X10598214Y-16818714D01*
X10626786Y-16833000D01*
X10641071Y-16861572D01*
X10641071Y-17018714D01*
X11226786Y-16704429D02*
X10969643Y-17090143D01*
X11612500Y-16718714D02*
X11641071Y-16718714D01*
X11669643Y-16733000D01*
X11683928Y-16747286D01*
X11698214Y-16775857D01*
X11712500Y-16833000D01*
X11712500Y-16904429D01*
X11698214Y-16961572D01*
X11683928Y-16990143D01*
X11669643Y-17004429D01*
X11641071Y-17018714D01*
X11612500Y-17018714D01*
X11583928Y-17004429D01*
X11569643Y-16990143D01*
X11555357Y-16961572D01*
X11541071Y-16904429D01*
X11541071Y-16833000D01*
X11555357Y-16775857D01*
X11569643Y-16747286D01*
X11583928Y-16733000D01*
X11612500Y-16718714D01*
X11841071Y-16990143D02*
X11855357Y-17004429D01*
X11841071Y-17018714D01*
X11826786Y-17004429D01*
X11841071Y-16990143D01*
X11841071Y-17018714D01*
X12041071Y-16718714D02*
X12069643Y-16718714D01*
X12098214Y-16733000D01*
X12112500Y-16747286D01*
X12126786Y-16775857D01*
X12141071Y-16833000D01*
X12141071Y-16904429D01*
X12126786Y-16961572D01*
X12112500Y-16990143D01*
X12098214Y-17004429D01*
X12069643Y-17018714D01*
X12041071Y-17018714D01*
X12012500Y-17004429D01*
X11998214Y-16990143D01*
X11983928Y-16961572D01*
X11969643Y-16904429D01*
X11969643Y-16833000D01*
X11983928Y-16775857D01*
X11998214Y-16747286D01*
X12012500Y-16733000D01*
X12041071Y-16718714D01*
X12412500Y-16718714D02*
X12269643Y-16718714D01*
X12255357Y-16861572D01*
X12269643Y-16847286D01*
X12298214Y-16833000D01*
X12369643Y-16833000D01*
X12398214Y-16847286D01*
X12412500Y-16861572D01*
X12426786Y-16890143D01*
X12426786Y-16961572D01*
X12412500Y-16990143D01*
X12398214Y-17004429D01*
X12369643Y-17018714D01*
X12298214Y-17018714D01*
X12269643Y-17004429D01*
X12255357Y-16990143D01*
X12541071Y-16747286D02*
X12555357Y-16733000D01*
X12583928Y-16718714D01*
X12655357Y-16718714D01*
X12683928Y-16733000D01*
X12698214Y-16747286D01*
X12712500Y-16775857D01*
X12712500Y-16804429D01*
X12698214Y-16847286D01*
X12526786Y-17018714D01*
X12712500Y-17018714D01*
X12826786Y-16718714D02*
X12826786Y-16775857D01*
X12941071Y-16718714D02*
X12941071Y-16775857D01*
X13383928Y-17133000D02*
X13369643Y-17118714D01*
X13341071Y-17075857D01*
X13326786Y-17047286D01*
X13312500Y-17004429D01*
X13298214Y-16933000D01*
X13298214Y-16875857D01*
X13312500Y-16804429D01*
X13326786Y-16761571D01*
X13341071Y-16733000D01*
X13369643Y-16690143D01*
X13383928Y-16675857D01*
X13483928Y-16747286D02*
X13498214Y-16733000D01*
X13526786Y-16718714D01*
X13598214Y-16718714D01*
X13626786Y-16733000D01*
X13641071Y-16747286D01*
X13655357Y-16775857D01*
X13655357Y-16804429D01*
X13641071Y-16847286D01*
X13469643Y-17018714D01*
X13655357Y-17018714D01*
X14012500Y-17018714D02*
X14012500Y-16718714D01*
X14141071Y-17018714D02*
X14141071Y-16861572D01*
X14126786Y-16833000D01*
X14098214Y-16818714D01*
X14055357Y-16818714D01*
X14026786Y-16833000D01*
X14012500Y-16847286D01*
X14326786Y-17018714D02*
X14298214Y-17004429D01*
X14283928Y-16990143D01*
X14269643Y-16961572D01*
X14269643Y-16875857D01*
X14283928Y-16847286D01*
X14298214Y-16833000D01*
X14326786Y-16818714D01*
X14369643Y-16818714D01*
X14398214Y-16833000D01*
X14412500Y-16847286D01*
X14426786Y-16875857D01*
X14426786Y-16961572D01*
X14412500Y-16990143D01*
X14398214Y-17004429D01*
X14369643Y-17018714D01*
X14326786Y-17018714D01*
X14598214Y-17018714D02*
X14569643Y-17004429D01*
X14555357Y-16975857D01*
X14555357Y-16718714D01*
X14826786Y-17004429D02*
X14798214Y-17018714D01*
X14741071Y-17018714D01*
X14712500Y-17004429D01*
X14698214Y-16975857D01*
X14698214Y-16861572D01*
X14712500Y-16833000D01*
X14741071Y-16818714D01*
X14798214Y-16818714D01*
X14826786Y-16833000D01*
X14841071Y-16861572D01*
X14841071Y-16890143D01*
X14698214Y-16918714D01*
X14955357Y-17004429D02*
X14983928Y-17018714D01*
X15041071Y-17018714D01*
X15069643Y-17004429D01*
X15083928Y-16975857D01*
X15083928Y-16961572D01*
X15069643Y-16933000D01*
X15041071Y-16918714D01*
X14998214Y-16918714D01*
X14969643Y-16904429D01*
X14955357Y-16875857D01*
X14955357Y-16861572D01*
X14969643Y-16833000D01*
X14998214Y-16818714D01*
X15041071Y-16818714D01*
X15069643Y-16833000D01*
X15183928Y-17133000D02*
X15198214Y-17118714D01*
X15226786Y-17075857D01*
X15241071Y-17047286D01*
X15255357Y-17004429D01*
X15269643Y-16933000D01*
X15269643Y-16875857D01*
X15255357Y-16804429D01*
X15241071Y-16761571D01*
X15226786Y-16733000D01*
X15198214Y-16690143D01*
X15183928Y-16675857D01*
X8606000Y-17370500D02*
X8697500Y-17279000D01*
X8606000Y-17187500D01*
X8514500Y-17279000D01*
X8606000Y-17370500D01*
X9141071Y-17414714D02*
X8969643Y-17414714D01*
X9055357Y-17414714D02*
X9055357Y-17114714D01*
X9026786Y-17157572D01*
X8998214Y-17186143D01*
X8969643Y-17200429D01*
X9269643Y-17386143D02*
X9283928Y-17400429D01*
X9269643Y-17414714D01*
X9255357Y-17400429D01*
X9269643Y-17386143D01*
X9269643Y-17414714D01*
X9455357Y-17243286D02*
X9426786Y-17229000D01*
X9412500Y-17214714D01*
X9398214Y-17186143D01*
X9398214Y-17171857D01*
X9412500Y-17143286D01*
X9426786Y-17129000D01*
X9455357Y-17114714D01*
X9512500Y-17114714D01*
X9541071Y-17129000D01*
X9555357Y-17143286D01*
X9569643Y-17171857D01*
X9569643Y-17186143D01*
X9555357Y-17214714D01*
X9541071Y-17229000D01*
X9512500Y-17243286D01*
X9455357Y-17243286D01*
X9426786Y-17257572D01*
X9412500Y-17271857D01*
X9398214Y-17300429D01*
X9398214Y-17357572D01*
X9412500Y-17386143D01*
X9426786Y-17400429D01*
X9455357Y-17414714D01*
X9512500Y-17414714D01*
X9541071Y-17400429D01*
X9555357Y-17386143D01*
X9569643Y-17357572D01*
X9569643Y-17300429D01*
X9555357Y-17271857D01*
X9541071Y-17257572D01*
X9512500Y-17243286D01*
X9669643Y-17114714D02*
X9855357Y-17114714D01*
X9755357Y-17229000D01*
X9798214Y-17229000D01*
X9826786Y-17243286D01*
X9841071Y-17257572D01*
X9855357Y-17286143D01*
X9855357Y-17357572D01*
X9841071Y-17386143D01*
X9826786Y-17400429D01*
X9798214Y-17414714D01*
X9712500Y-17414714D01*
X9683928Y-17400429D01*
X9669643Y-17386143D01*
X9983928Y-17414714D02*
X9983928Y-17214714D01*
X9983928Y-17243286D02*
X9998214Y-17229000D01*
X10026786Y-17214714D01*
X10069643Y-17214714D01*
X10098214Y-17229000D01*
X10112500Y-17257572D01*
X10112500Y-17414714D01*
X10112500Y-17257572D02*
X10126786Y-17229000D01*
X10155357Y-17214714D01*
X10198214Y-17214714D01*
X10226786Y-17229000D01*
X10241071Y-17257572D01*
X10241071Y-17414714D01*
X10383928Y-17414714D02*
X10383928Y-17214714D01*
X10383928Y-17243286D02*
X10398214Y-17229000D01*
X10426786Y-17214714D01*
X10469643Y-17214714D01*
X10498214Y-17229000D01*
X10512500Y-17257572D01*
X10512500Y-17414714D01*
X10512500Y-17257572D02*
X10526786Y-17229000D01*
X10555357Y-17214714D01*
X10598214Y-17214714D01*
X10626786Y-17229000D01*
X10641071Y-17257572D01*
X10641071Y-17414714D01*
X11226786Y-17100429D02*
X10969643Y-17486143D01*
X11612500Y-17114714D02*
X11641071Y-17114714D01*
X11669643Y-17129000D01*
X11683928Y-17143286D01*
X11698214Y-17171857D01*
X11712500Y-17229000D01*
X11712500Y-17300429D01*
X11698214Y-17357572D01*
X11683928Y-17386143D01*
X11669643Y-17400429D01*
X11641071Y-17414714D01*
X11612500Y-17414714D01*
X11583928Y-17400429D01*
X11569643Y-17386143D01*
X11555357Y-17357572D01*
X11541071Y-17300429D01*
X11541071Y-17229000D01*
X11555357Y-17171857D01*
X11569643Y-17143286D01*
X11583928Y-17129000D01*
X11612500Y-17114714D01*
X11841071Y-17386143D02*
X11855357Y-17400429D01*
X11841071Y-17414714D01*
X11826786Y-17400429D01*
X11841071Y-17386143D01*
X11841071Y-17414714D01*
X12041071Y-17114714D02*
X12069643Y-17114714D01*
X12098214Y-17129000D01*
X12112500Y-17143286D01*
X12126786Y-17171857D01*
X12141071Y-17229000D01*
X12141071Y-17300429D01*
X12126786Y-17357572D01*
X12112500Y-17386143D01*
X12098214Y-17400429D01*
X12069643Y-17414714D01*
X12041071Y-17414714D01*
X12012500Y-17400429D01*
X11998214Y-17386143D01*
X11983928Y-17357572D01*
X11969643Y-17300429D01*
X11969643Y-17229000D01*
X11983928Y-17171857D01*
X11998214Y-17143286D01*
X12012500Y-17129000D01*
X12041071Y-17114714D01*
X12241071Y-17114714D02*
X12441071Y-17114714D01*
X12312500Y-17414714D01*
X12541071Y-17143286D02*
X12555357Y-17129000D01*
X12583928Y-17114714D01*
X12655357Y-17114714D01*
X12683928Y-17129000D01*
X12698214Y-17143286D01*
X12712500Y-17171857D01*
X12712500Y-17200429D01*
X12698214Y-17243286D01*
X12526786Y-17414714D01*
X12712500Y-17414714D01*
X12826786Y-17114714D02*
X12826786Y-17171857D01*
X12941071Y-17114714D02*
X12941071Y-17171857D01*
X13383928Y-17529000D02*
X13369643Y-17514714D01*
X13341071Y-17471857D01*
X13326786Y-17443286D01*
X13312500Y-17400429D01*
X13298214Y-17329000D01*
X13298214Y-17271857D01*
X13312500Y-17200429D01*
X13326786Y-17157572D01*
X13341071Y-17129000D01*
X13369643Y-17086143D01*
X13383928Y-17071857D01*
X13655357Y-17414714D02*
X13483928Y-17414714D01*
X13569643Y-17414714D02*
X13569643Y-17114714D01*
X13541071Y-17157572D01*
X13512500Y-17186143D01*
X13483928Y-17200429D01*
X13769643Y-17143286D02*
X13783928Y-17129000D01*
X13812500Y-17114714D01*
X13883928Y-17114714D01*
X13912500Y-17129000D01*
X13926786Y-17143286D01*
X13941071Y-17171857D01*
X13941071Y-17200429D01*
X13926786Y-17243286D01*
X13755357Y-17414714D01*
X13941071Y-17414714D01*
X14298214Y-17414714D02*
X14298214Y-17114714D01*
X14426786Y-17414714D02*
X14426786Y-17257572D01*
X14412500Y-17229000D01*
X14383928Y-17214714D01*
X14341071Y-17214714D01*
X14312500Y-17229000D01*
X14298214Y-17243286D01*
X14612500Y-17414714D02*
X14583928Y-17400429D01*
X14569643Y-17386143D01*
X14555357Y-17357572D01*
X14555357Y-17271857D01*
X14569643Y-17243286D01*
X14583928Y-17229000D01*
X14612500Y-17214714D01*
X14655357Y-17214714D01*
X14683928Y-17229000D01*
X14698214Y-17243286D01*
X14712500Y-17271857D01*
X14712500Y-17357572D01*
X14698214Y-17386143D01*
X14683928Y-17400429D01*
X14655357Y-17414714D01*
X14612500Y-17414714D01*
X14883928Y-17414714D02*
X14855357Y-17400429D01*
X14841071Y-17371857D01*
X14841071Y-17114714D01*
X15112500Y-17400429D02*
X15083928Y-17414714D01*
X15026786Y-17414714D01*
X14998214Y-17400429D01*
X14983928Y-17371857D01*
X14983928Y-17257572D01*
X14998214Y-17229000D01*
X15026786Y-17214714D01*
X15083928Y-17214714D01*
X15112500Y-17229000D01*
X15126786Y-17257572D01*
X15126786Y-17286143D01*
X14983928Y-17314714D01*
X15241071Y-17400429D02*
X15269643Y-17414714D01*
X15326786Y-17414714D01*
X15355357Y-17400429D01*
X15369643Y-17371857D01*
X15369643Y-17357572D01*
X15355357Y-17329000D01*
X15326786Y-17314714D01*
X15283928Y-17314714D01*
X15255357Y-17300429D01*
X15241071Y-17271857D01*
X15241071Y-17257572D01*
X15255357Y-17229000D01*
X15283928Y-17214714D01*
X15326786Y-17214714D01*
X15355357Y-17229000D01*
X15469643Y-17529000D02*
X15483928Y-17514714D01*
X15512500Y-17471857D01*
X15526786Y-17443286D01*
X15541071Y-17400429D01*
X15555357Y-17329000D01*
X15555357Y-17271857D01*
X15541071Y-17200429D01*
X15526786Y-17157572D01*
X15512500Y-17129000D01*
X15483928Y-17086143D01*
X15469643Y-17071857D01*
M02*
